<svg width="40" height="40" viewBox="0 0 40 40" fill="none" xmlns="http://www.w3.org/2000/svg">
<path fill-rule="evenodd" clip-rule="evenodd" d="M8.83263 29.711C8.77402 29.544 8.71491 29.3756 8.56474 29.2512C8.75072 28.9276 8.98123 28.6906 9.20989 28.4554L9.28724 28.3757C11.1457 26.4553 13.0681 24.596 14.9904 22.7368C15.8355 21.9194 16.6806 21.1021 17.5202 20.2795C17.4689 20.2163 17.4162 20.1539 17.3615 20.0925C16.4877 20.9478 15.6112 21.8007 14.7343 22.6539C12.5793 24.7507 10.4226 26.8492 8.30207 28.9887C8.20069 28.9484 8.1202 28.8404 8.02988 28.7192L8 28.6792C8.42127 28.1848 8.91275 27.7645 9.40374 27.3448C9.58077 27.1934 9.75772 27.0421 9.93131 26.8874C10.9305 25.9967 11.8752 25.053 12.8198 24.1092C13.1845 23.7449 13.5492 23.3807 13.917 23.0194C14.6112 22.3375 15.3098 21.6598 16.0084 20.9821C16.3911 20.6109 16.7737 20.2396 17.1556 19.8677C16.7754 19.4623 16.3718 19.0809 15.9683 18.6997C15.6958 18.4423 15.4234 18.1849 15.1583 17.9202C13.8882 16.6521 12.5764 15.4218 11.2655 14.1922L11.0115 13.954C10.4483 13.4257 9.87135 12.9116 9.29436 12.3975C9.01987 12.1529 8.74537 11.9083 8.47235 11.6622C8.44342 11.6361 8.41333 11.611 8.38304 11.5857C8.28462 11.5037 8.1842 11.4199 8.1153 11.2952C8.13932 11.2568 8.16282 11.2175 8.18645 11.178C8.24071 11.0872 8.29568 10.9952 8.35933 10.9101C8.46414 10.7702 8.57473 10.6349 8.68612 10.4986C8.73365 10.4404 8.78132 10.382 8.82875 10.3231C9.69229 11.0332 10.492 11.8063 11.2905 12.5782C12.0715 13.3331 12.8513 14.0869 13.6884 14.7795C12.2235 13.16 10.7499 11.5513 9.02936 10.182C9.10105 9.99578 9.26712 10.0111 9.43422 10.0265C9.56701 10.0387 9.70044 10.051 9.78767 9.96226C9.84033 10.0179 9.89031 10.0746 9.93959 10.1305C10.0449 10.2499 10.1469 10.3656 10.265 10.4601C11.1568 11.1734 12.0151 11.9204 12.8236 12.7292C13.3593 13.2649 13.9142 13.7828 14.4689 14.3005L14.7737 14.5853C14.7924 14.6028 14.8109 14.6223 14.8298 14.6423C14.913 14.7301 15.0046 14.827 15.1589 14.7992C15.1336 14.6325 15.0092 14.5223 14.8892 14.4161C14.857 14.3876 14.8252 14.3594 14.7956 14.3304C13.2801 12.8462 11.7644 11.362 10.2382 9.88816C9.97996 9.63864 10.0122 9.47786 10.226 9.38617C10.7282 9.17086 11.159 8.87389 11.5084 8.49498C12.6433 9.39201 13.6754 10.3643 14.7031 11.3326C15.0262 11.637 15.3489 11.9409 15.6741 12.242C16.0009 12.5446 16.3311 12.8437 16.6613 13.1427C17.2046 13.6347 17.7479 14.1268 18.2758 14.6342C18.7764 15.1153 19.2613 15.6118 19.7463 16.1084C19.943 16.3098 20.1398 16.5113 20.3376 16.7117C21.37 15.6791 22.4225 14.6667 23.4748 13.6546L23.9556 13.192C24.5338 12.6354 25.0816 12.0527 25.6294 11.4699C26.2434 10.8168 26.8575 10.1636 27.5143 9.54723C28.0767 9.01942 28.6322 8.49834 29.2566 8L29.5725 8.38694C28.0008 9.80732 26.5362 11.3072 25.0714 12.8071L24.8986 12.9841C25.9316 12.234 26.8422 11.3516 27.7498 10.4721C28.3814 9.86014 29.0115 9.2495 29.6804 8.68584C29.7882 8.68756 29.8132 8.74978 29.8371 8.80933C29.8476 8.8355 29.8579 8.86111 29.8749 8.88089C30.3197 9.39826 30.3083 9.41358 29.9064 9.95244C29.8697 10.0018 29.8296 10.0554 29.7864 10.1143C29.516 10.4822 29.2249 10.8364 28.9292 11.196C28.529 11.6828 28.1206 12.1796 27.7442 12.7342C28.0544 12.6622 28.2048 12.4968 28.3444 12.3431L28.3464 12.3409C28.621 12.0388 28.8826 11.7256 29.1401 11.4102C29.5193 10.9455 29.8974 10.4868 30.6318 10.4569C29.9473 11.0971 29.3328 11.723 28.8397 12.4501C29.2685 12.1545 29.6359 11.7907 30.0079 11.4223C30.3129 11.1202 30.6209 10.8152 30.9682 10.5424C31.0926 10.7074 31.2501 10.8381 31.4076 10.9688C31.5879 11.1184 31.7682 11.2681 31.8987 11.469C32.0271 11.6664 32.0644 11.8 31.824 12.0327C30.8005 13.0237 29.7966 14.0343 28.7929 15.0447L28.7602 15.0776C28.3606 15.48 27.9644 15.8855 27.5682 16.291C26.9554 16.9183 26.3426 17.5455 25.7172 18.1608C25.0594 18.8081 24.3971 19.4512 23.7311 20.0905C24.5066 20.8591 25.2832 21.6266 26.0612 22.3928C26.5264 22.8511 26.9893 23.3116 27.4523 23.7721C28.4046 24.7193 29.3569 25.6666 30.3292 26.5947C30.409 26.6709 30.4882 26.7477 30.5674 26.8245C30.8806 27.1281 31.1939 27.4319 31.5457 27.7002C32.0826 28.1099 32.1137 28.3432 31.7761 28.7406C31.6757 28.8588 31.5779 28.9796 31.4851 29.1041C31.4651 29.1309 31.4468 29.159 31.4282 29.1874C31.3681 29.2794 31.3063 29.374 31.1834 29.4331C30.8054 29.1279 30.4653 28.7795 30.1187 28.4247C29.6757 27.971 29.2224 27.5067 28.6665 27.1085C28.734 27.4728 28.9626 27.6743 29.1753 27.8619C29.2552 27.9324 29.3328 28.0009 29.3989 28.0752C29.8106 28.5392 30.2717 28.9684 30.7326 29.3903C30.8756 29.5211 30.9671 29.6712 31.0583 29.8207C31.1108 29.9068 31.1632 29.9927 31.2253 30.0747C31.3287 30.2114 31.2539 30.2924 31.1805 30.3719C31.1701 30.3832 31.1597 30.3944 31.1499 30.4058C31.0454 30.5266 30.9179 30.623 30.7902 30.7196C30.6506 30.8252 30.5108 30.9309 30.4005 31.0688C30.247 31.2605 29.95 31.1956 29.768 31.0224C29.5946 30.8573 29.3965 30.7246 29.2004 30.5933C28.9686 30.438 28.7396 30.2847 28.5576 30.0818C27.471 28.8706 26.3031 27.7346 25.1356 26.599C24.7587 26.2324 24.3819 25.8659 24.0078 25.4968L23.4176 24.9142C22.6394 24.146 21.8611 23.3778 21.079 22.6132C21.0168 22.6731 20.9546 22.733 20.8925 22.793C21.3727 23.2541 21.8512 23.7169 22.3252 24.1839C22.7785 24.6306 23.2356 25.074 23.6927 25.5174C24.6799 26.4748 25.6671 27.4323 26.6157 28.423C26.7844 28.5992 26.9554 28.7741 27.1267 28.9491C27.7934 29.6303 28.4634 30.3149 29.0065 31.0949C29.0895 31.2142 29.2137 31.3127 29.3416 31.4141C29.4019 31.4618 29.4629 31.5102 29.5209 31.5618C29.5157 31.5737 29.5115 31.5875 29.5072 31.6016C29.4977 31.6328 29.4877 31.6656 29.4647 31.6847C29.2257 31.882 29.13 32.0024 29.0375 32C28.942 31.9975 28.8501 31.864 28.6074 31.5493C28.2216 31.0487 27.7603 30.6122 27.2993 30.176C27.1407 30.026 26.9822 29.876 26.8267 29.7235C25.9399 28.853 25.0502 27.9853 24.1606 27.1176C23.264 26.2431 22.3674 25.3686 21.4737 24.4914C21.1001 24.1245 20.7316 23.7528 20.363 23.3811C20.3506 23.3686 20.3383 23.3561 20.3259 23.3436C19.094 24.5473 17.8832 25.7709 16.6726 26.9943C16.4026 27.2671 16.1327 27.5398 15.8626 27.8123C14.6455 29.0402 13.3604 30.1904 12.0556 31.3485C11.7103 31.0584 11.4461 30.7257 11.2404 30.4427C11.4251 29.3425 12.1966 28.6361 12.9778 27.9207C13.2735 27.6499 13.5707 27.3778 13.8379 27.0826C13.5726 27.0102 13.4495 27.1343 13.3567 27.2279C13.3426 27.2422 13.3291 27.2557 13.316 27.2678C13.1922 27.3814 13.0675 27.4939 12.9428 27.6065C12.4146 28.0834 11.8866 28.56 11.4304 29.1122C11.0855 29.5296 10.6746 29.908 10.2578 30.2628C9.79667 30.6553 9.14295 30.4556 8.8964 29.8804C8.87276 29.8253 8.85273 29.7682 8.83263 29.711ZM17.8954 19.9114C17.9563 19.8514 18.0172 19.7914 18.0781 19.7314C18.0188 19.6758 17.9595 19.6201 17.9001 19.5646C17.8394 19.6241 17.7787 19.6837 17.7179 19.7433C17.7766 19.7972 17.8343 19.8516 17.8907 19.9068C17.8923 19.9083 17.8938 19.9098 17.8954 19.9114ZM17.4913 19.5404C17.5537 19.4795 17.6161 19.4186 17.6784 19.3577C17.6443 19.326 17.6103 19.2943 17.5762 19.2626C17.2715 18.9794 16.9788 18.6839 16.7232 18.3575L17.7683 19.2697C17.8265 19.2128 17.8845 19.1559 17.9426 19.099C17.0955 18.3325 16.2452 17.5693 15.3949 16.806C13.4925 15.0984 11.5897 13.3904 9.72063 11.6437C9.75733 11.8485 9.89198 11.985 10.0248 12.1196C10.0537 12.1489 10.0825 12.1781 10.1102 12.2079C11.071 13.2418 12.1226 14.1831 13.1743 15.1246C13.3586 15.2895 13.5428 15.4544 13.7266 15.6199C14.2093 16.0545 14.6899 16.4914 15.1705 16.9284C15.367 17.1069 15.5635 17.2856 15.7601 17.4641C15.8052 17.5049 15.8748 17.5459 15.8887 17.59C16.132 18.3588 16.7305 18.8788 17.3221 19.393C17.3787 19.4421 17.4352 19.4912 17.4913 19.5404ZM18.1671 19.3023C18.1104 19.358 18.0538 19.4137 17.9971 19.4693L18.181 19.6298C18.2364 19.5751 18.2918 19.5204 18.3472 19.4656C18.2872 19.4112 18.2271 19.3567 18.1671 19.3023ZM20.6906 17.0669C21.0048 16.7297 21.3167 16.3903 21.6286 16.0509C21.9593 15.6911 22.29 15.3313 22.6234 14.974C22.6692 14.925 22.7025 14.8652 22.6904 14.7662C21.9841 15.4932 21.2723 16.2147 20.5563 16.9324C20.5984 16.9747 20.6405 17.0169 20.6827 17.059C20.6854 17.0616 20.688 17.0643 20.6906 17.0669Z" fill="url(#paint0_linear_49_4959)"/>
<defs>
<linearGradient id="paint0_linear_49_4959" x1="20" y1="8" x2="20" y2="32" gradientUnits="userSpaceOnUse">
<stop stop-color="#FF6666"/>
<stop offset="1" stop-color="#FF3333"/>
</linearGradient>
</defs>
</svg>
