<svg width="45" height="45" viewBox="0 0 45 45" fill="none" xmlns="http://www.w3.org/2000/svg">
<path d="M11.3185 18.355C11.2285 18.7962 11.0561 18.7862 10.9143 18.7982C9.54467 18.9127 8.17478 19.0231 6.80426 19.1182C6.52326 19.1377 6.28833 19.1468 6.05523 19.4651C4.8455 21.1164 3.42739 22.3662 1.85886 23.3064C1.39603 23.5838 1.00153 23.97 1 24.7295C0.998782 25.453 1.39968 25.7982 1.81523 26.0976C2.8895 26.8715 3.99122 27.5843 5.02795 28.441C5.65188 28.9565 6.2746 29.0649 6.97603 29.1186C7.79736 29.1819 8.39841 28.3723 9.2289 28.4009C11.0043 28.4621 12.7879 28.5733 14.563 28.3107C14.8211 28.2727 14.9883 28.3918 15.1225 28.6799C13.8167 29.5643 11.8836 30.1481 10.661 29.5527C9.27436 28.8772 8.0454 29.6114 6.60594 29.7475C8.96559 31.6915 11.4589 32.8036 13.7792 34.4024C14.4062 34.8345 15.1125 35.0499 15.7703 35.4054C16.1419 35.606 16.4046 35.4993 16.4473 34.9726C16.587 33.2481 16.9733 31.5426 16.6288 29.7764C16.4095 28.6522 16.6883 28.2892 17.542 28.3475C18.2703 28.3972 19.0028 28.3897 19.7323 28.3537C23.9955 28.1445 24.2617 28.0387 28.5255 27.8915C34.046 27.7013 36.5723 27.8283 42.0959 27.8241C42.6539 27.8237 43.2028 27.777 43.7852 27.4814C43.7184 25.9157 44.3564 24.3285 43.7026 22.7756C43.4823 22.2526 43.3078 21.6849 43.3163 21.1309C43.3334 20.0332 42.8306 19.9029 42.2243 19.702C40.2449 19.0463 38.2196 19.6255 36.2358 19.2286C35.2967 19.0405 34.3881 19.1724 33.2931 19.528C34.1501 20.0229 34.8565 20.2759 35.6866 20.3755C35.4416 19.5863 35.7702 19.5573 36.1495 19.6024C37.2878 19.7367 38.4387 19.7785 39.559 20.0489C40.0688 20.1721 40.7229 20.1651 41.1013 20.9353C39.6554 21.6894 33.8347 21.3603 33.0695 19.303C34.2929 18.0102 42.4449 18.4485 43.925 19.9286C43.8774 19.4738 43.7792 19.0624 43.8029 18.6647C43.8704 17.5331 43.3917 17.1573 42.6826 17.068C42.0788 16.9919 41.4674 16.8364 40.8694 16.8985C39.0757 17.0845 37.2762 17.0775 35.4819 17.1821C29.7146 17.5186 26.9408 17.6398 24.1668 17.6464C22.0299 17.6489 20.8704 17.9035 18.7621 17.5691C16.5053 17.211 14.2609 17.2296 12.0084 17.1709C11.3127 17.1527 10.6125 17.273 9.92728 16.9005C11.9168 16.9005 13.9067 16.9005 16.0025 16.9005C15.4511 15.6341 15.3733 14.4372 15.5271 13.1324C15.6232 12.3175 15.7398 11.3724 15.1891 10.5C12.7531 13.4784 9.48305 14.7692 7.2732 18.2893C8.65378 18.3769 9.96541 18.1566 11.3185 18.355Z" fill="#3CCDBE"/>
</svg>
