<svg width="28" height="28" viewBox="0 0 28 28" fill="none" xmlns="http://www.w3.org/2000/svg">
<path d="M20.9575 16.5792C21.0135 16.3047 21.1208 16.3109 21.209 16.3035C22.0612 16.2322 22.9136 16.1635 23.7664 16.1043C23.9412 16.0922 24.0874 16.0866 24.2325 15.8885C24.9852 14.861 25.8676 14.0834 26.8435 13.4984C27.1315 13.3257 27.377 13.0855 27.3779 12.6129C27.3787 12.1627 27.1292 11.9479 26.8707 11.7616C26.2022 11.2801 25.5167 10.8365 24.8716 10.3035C24.4834 9.98272 24.096 9.91532 23.6595 9.88188C23.1485 9.84252 22.7745 10.3462 22.2577 10.3285C21.153 10.2904 20.0432 10.2212 18.9387 10.3846C18.7781 10.4082 18.6741 10.3341 18.5906 10.1548C19.4031 9.60456 20.6059 9.24132 21.3666 9.61176C22.2294 10.0321 22.9941 9.57524 23.8898 9.4906C22.4216 8.28099 20.8702 7.58898 19.4264 6.59418C19.0363 6.32535 18.5968 6.19131 18.1875 5.97008C17.9563 5.84531 17.7929 5.91168 17.7663 6.23942C17.6793 7.31243 17.439 8.3736 17.6533 9.47259C17.7898 10.1721 17.6163 10.3979 17.0851 10.3617C16.632 10.3308 16.1762 10.3354 15.7223 10.3578C13.0696 10.488 12.904 10.5538 10.2509 10.6454C6.81594 10.7638 5.24402 10.6848 1.80714 10.6873C1.45992 10.6876 1.1184 10.7167 0.755991 10.9006C0.797566 11.8748 0.400607 12.8624 0.807436 13.8287C0.944501 14.1541 1.05309 14.5073 1.04777 14.852C1.03714 15.535 1.35 15.6161 1.72722 15.7411C2.95891 16.1491 4.21907 15.7887 5.45341 16.0357C6.03774 16.1527 6.60309 16.0706 7.28443 15.8494C6.75117 15.5415 6.31168 15.384 5.79512 15.322C5.94757 15.8131 5.74311 15.8311 5.50714 15.8031C4.79884 15.7195 4.08276 15.6935 3.38567 15.5253C3.06844 15.4486 2.66143 15.453 2.42602 14.9737C3.32568 14.5045 6.94746 14.7093 7.42358 15.9893C6.66232 16.7938 1.58996 16.5211 0.669042 15.6001C0.698657 15.8831 0.759785 16.1391 0.744978 16.3866C0.703023 17.0907 1.00088 17.3245 1.44207 17.3801C1.81777 17.4274 2.19821 17.5241 2.5703 17.4855C3.68637 17.3698 4.80606 17.3741 5.92251 17.3091C9.51108 17.0997 11.237 17.0243 12.963 17.0202C14.2927 17.0186 15.0142 16.8602 16.326 17.0683C17.7302 17.2911 19.1267 17.2795 20.5283 17.316C20.9611 17.3273 21.3968 17.2525 21.8232 17.4843C20.5852 17.4843 19.3471 17.4843 18.0431 17.4843C18.3861 18.2722 18.4345 19.017 18.3388 19.8289C18.279 20.3359 18.2065 20.924 18.5492 21.4668C20.0649 19.6135 22.0996 18.8104 23.4746 16.6201C22.6156 16.5656 21.7994 16.7027 20.9575 16.5792Z" fill="white"/>
</svg>
