<svg width="28" height="28" viewBox="0 0 28 28" fill="none" xmlns="http://www.w3.org/2000/svg">
<path d="M10.07 21.6808C10.07 21.6808 18.5339 12.1802 22.2484 9.25652C24.9409 5.5581 25.0586 2.3335 25.0586 2.3335C25.0586 2.3335 21.4318 4.11165 17.9002 4.53079C17.9002 4.53079 19.0879 5.66663 17.8913 7.17581C16.695 8.68471 12.3612 14.0913 5.64659 16.7836L10.07 21.6808Z" fill="url(#paint0_linear_983_3741)"/>
<path d="M10.07 21.6811L7.75756 19.121C9.50879 17.6562 15.583 12.5575 19.6334 8.90594C22.745 6.41581 25.0586 2.3335 25.0586 2.3335C25.0586 2.3335 24.9409 5.5581 22.2484 9.25652C18.5339 12.1808 10.07 21.6811 10.07 21.6811Z" fill="url(#paint1_linear_983_3741)"/>
<path d="M1.38124 23.2737C0.821648 23.7931 0.789728 24.6672 1.30963 25.2259C1.82897 25.785 2.70307 25.8169 3.26183 25.297C3.82114 24.7776 3.85306 23.9036 3.33316 23.3454C2.81382 22.7858 1.94 22.7538 1.38124 23.2737Z" fill="url(#paint2_radial_983_3741)"/>
<path d="M6.46611 17.7666L2.21003 22.9087L3.68729 24.4989L9.12695 20.6284L6.46611 17.7666Z" fill="url(#paint3_linear_983_3741)"/>
<path d="M3.66667 14.7555L4.2468 14.2162L5.14892 13.3779L5.19943 15.0403L8.82902 18.1764L11.7527 22.0891L13.4062 22.2615L12.5044 23.0997L11.924 23.6391L10.6799 23.6049L6.70196 20.1536L3.61032 15.9988L3.66667 14.7555Z" fill="#59616E"/>
<path d="M17.93 21.6808C17.93 21.6808 9.46611 12.1802 5.75158 9.25652C3.0591 5.5581 2.94141 2.3335 2.94141 2.3335C2.94141 2.3335 6.56822 4.11165 10.0998 4.53079C10.0998 4.53079 8.91206 5.66663 10.1087 7.17581C11.305 8.68471 15.6388 14.0913 22.3534 16.7836L17.93 21.6808Z" fill="url(#paint4_linear_983_3741)"/>
<path d="M17.93 21.6811L20.2424 19.121C18.4912 17.6562 12.417 12.5575 8.36663 8.90594C5.255 6.41581 2.94141 2.3335 2.94141 2.3335C2.94141 2.3335 3.0591 5.5581 5.75158 9.25652C9.46611 12.1808 17.93 21.6811 17.93 21.6811Z" fill="url(#paint5_linear_983_3741)"/>
<path d="M26.6188 23.2737C27.1784 23.7931 27.2103 24.6672 26.6904 25.2259C26.171 25.785 25.2969 25.8169 24.7382 25.297C24.1789 24.7776 24.1469 23.9036 24.6668 23.3454C25.1862 22.7858 26.06 22.7538 26.6188 23.2737Z" fill="url(#paint6_radial_983_3741)"/>
<path d="M21.5339 17.7666L25.79 22.9087L24.3127 24.4989L18.873 20.6284L21.5339 17.7666Z" fill="url(#paint7_linear_983_3741)"/>
<path d="M24.3333 14.7555L23.7532 14.2162L22.8511 13.3779L22.8006 15.0403L19.171 18.1764L16.2473 22.0891L14.5938 22.2615L15.4956 23.0997L16.076 23.6391L17.3201 23.6049L21.298 20.1536L24.3897 15.9988L24.3333 14.7555Z" fill="#59616E"/>
<defs>
<linearGradient id="paint0_linear_983_3741" x1="24.6958" y1="12.2677" x2="5.83654" y2="11.5789" gradientUnits="userSpaceOnUse">
<stop stop-color="#F0EAFF"/>
<stop offset="1" stop-color="#AFABBA"/>
</linearGradient>
<linearGradient id="paint1_linear_983_3741" x1="29.514" y1="12.4926" x2="12.4226" y2="11.7988" gradientUnits="userSpaceOnUse">
<stop stop-color="#F0EAFF"/>
<stop offset="1" stop-color="#AFABBA"/>
</linearGradient>
<radialGradient id="paint2_radial_983_3741" cx="0" cy="0" r="1" gradientUnits="userSpaceOnUse" gradientTransform="translate(3.16737 24.6487) rotate(-132.909) scale(2.62238)">
<stop stop-color="#F4C405"/>
<stop offset="1" stop-color="#F47E00"/>
</radialGradient>
<linearGradient id="paint3_linear_983_3741" x1="6.70278" y1="22.8818" x2="4.04222" y2="20.0196" gradientUnits="userSpaceOnUse">
<stop stop-color="#A0592B"/>
<stop offset="0.3333" stop-color="#A35B2C"/>
<stop offset="0.5859" stop-color="#AD602E"/>
<stop offset="0.8112" stop-color="#BD6933"/>
<stop offset="1" stop-color="#D17538"/>
</linearGradient>
<linearGradient id="paint4_linear_983_3741" x1="3.30425" y1="12.2677" x2="22.1635" y2="11.5789" gradientUnits="userSpaceOnUse">
<stop stop-color="#F0EAFF"/>
<stop offset="1" stop-color="#AFABBA"/>
</linearGradient>
<linearGradient id="paint5_linear_983_3741" x1="-1.51402" y1="12.4926" x2="15.5774" y2="11.7988" gradientUnits="userSpaceOnUse">
<stop stop-color="#F0EAFF"/>
<stop offset="1" stop-color="#AFABBA"/>
</linearGradient>
<radialGradient id="paint6_radial_983_3741" cx="0" cy="0" r="1" gradientUnits="userSpaceOnUse" gradientTransform="translate(24.8326 24.6487) rotate(-47.091) scale(2.62238)">
<stop stop-color="#F4C405"/>
<stop offset="1" stop-color="#F47E00"/>
</radialGradient>
<linearGradient id="paint7_linear_983_3741" x1="21.2972" y1="22.8818" x2="23.9578" y2="20.0196" gradientUnits="userSpaceOnUse">
<stop stop-color="#A0592B"/>
<stop offset="0.3333" stop-color="#A35B2C"/>
<stop offset="0.5859" stop-color="#AD602E"/>
<stop offset="0.8112" stop-color="#BD6933"/>
<stop offset="1" stop-color="#D17538"/>
</linearGradient>
</defs>
</svg>
