<svg width="32" height="32" viewBox="0 0 32 32" fill="none" xmlns="http://www.w3.org/2000/svg">
<g clip-path="url(#clip0_73_19520)">
<path d="M5.40557 8.31491C5.21327 8.03774 4.76764 7.40027 4.3678 7.56349C4.26402 7.44338 4.07783 7.39103 3.92827 7.53269C3.61999 7.82217 3.47348 8.25331 3.51621 8.67214C3.53758 8.87539 3.59252 9.07556 3.69324 9.25418C3.74819 9.34965 3.81533 9.43895 3.89164 9.51594C3.94658 9.5683 4.11141 9.64837 4.13582 9.71612C4.18771 9.85778 3.92216 10.1319 3.85196 10.2396C3.6963 10.4768 3.57115 10.7324 3.47348 10.9972C3.39717 11.2005 3.2995 11.453 3.32392 11.6747C3.35749 11.9858 3.61694 12.109 3.9008 12.0258C4.35559 11.8872 4.69134 11.5023 4.95078 11.1204C5.23464 10.7016 5.52155 10.2273 5.65585 9.7346C5.79015 9.2357 5.69859 8.73681 5.40557 8.31491Z" fill="#0053AD"/>
<path d="M23.7955 26.7154C24.0214 26.9248 24.0366 27.2821 23.9054 27.5469C23.7558 27.858 23.417 28.0181 23.1301 28.1721C22.4464 28.5324 21.7474 28.8527 21.0301 29.1421C20.7188 29.2653 20.3312 29.4994 20.0076 29.2869C19.8031 29.1545 19.7329 28.9512 19.7299 28.7356C19.6658 28.7079 19.6047 28.6648 19.5711 28.6063C19.4857 28.4523 19.5528 28.2829 19.6871 28.1844C20.3434 27.7132 21.0515 27.3252 21.7993 27.0172C22.1351 26.8786 22.48 26.7555 22.831 26.6538C23.1484 26.5614 23.5208 26.4598 23.7955 26.7154Z" fill="#0053AD"/>
<path d="M2.5578 19.6878C1.90766 19.6385 1.19038 19.9003 0.747802 19.2443C0.546352 18.9425 0.491412 18.5791 0.433418 18.228C0.363216 17.8123 0.296066 17.3996 0.228916 16.9839C0.00915285 15.6165 -0.0427356 13.8673 1.4193 13.2145V13.1406C1.42541 12.7433 2.03586 12.7402 2.02976 13.1375C2.01449 14.1815 1.99618 15.2254 1.98092 16.2694C1.97481 16.756 1.86188 17.3935 2.02976 17.8585C2.17626 18.2558 2.60053 18.4344 2.97901 18.5268C3.75429 18.7146 4.53872 18.6931 5.17054 19.2566C5.58565 19.6262 6.01907 20.3222 5.81457 20.9011C5.56428 21.6002 4.76764 21.3415 4.42579 20.895C3.93437 20.2513 3.40633 19.7524 2.5578 19.6878Z" fill="#0053AD"/>
<path d="M24.7722 15.3672C24.6806 17.9879 23.3041 20.5101 21.0973 21.9051C20.8439 22.0653 20.5143 21.7388 20.6791 21.4863C21.4788 20.2668 22.1656 19.0503 22.4433 17.6029C22.7028 16.2572 22.6326 14.8467 22.2358 13.5379C21.5246 11.182 19.7421 9.26033 17.5139 8.29334C17.4956 8.28411 17.4864 8.27179 17.4712 8.26255C17.2972 8.17324 17.1293 8.06237 16.9706 7.93303C16.76 7.76365 16.9401 7.40334 17.1843 7.4095C18.6524 7.44954 20.087 7.92995 21.3018 8.75836C23.4719 10.2366 24.8607 12.7033 24.7722 15.3672Z" fill="#0053AD"/>
<path d="M28.6974 10.0671C28.4075 10.1749 28.0931 9.98088 27.9649 9.71295C27.8214 9.40807 27.9191 9.09396 28.0687 8.81371C28.1847 8.5889 28.2854 8.36717 28.38 8.1362C28.4777 7.896 28.5753 7.65271 28.728 7.4433C29.0118 7.05219 29.5216 6.68264 30.0313 6.85202C30.2816 6.93824 30.5135 7.14458 30.5227 7.4279C30.5319 7.71122 30.3029 7.96375 30.1534 8.1824C29.8298 8.64742 29.4849 9.10011 29.1187 9.53434C29.0607 9.60517 28.966 9.62672 28.8775 9.61441C28.8928 9.63904 28.908 9.66368 28.9141 9.68832C28.9599 9.86077 28.8531 10.0086 28.6974 10.0671Z" fill="#0053AD"/>
<path d="M19.7543 30.6296C19.9679 30.9036 19.9527 31.2947 19.6658 31.5103C19.385 31.7259 18.9302 31.6859 18.5975 31.7105C17.6818 31.7782 16.7661 31.8491 15.8504 31.9137C15.4872 31.9384 15.0935 31.9476 14.773 31.7474C14.4922 31.5688 14.2938 31.2578 14.3243 30.916C14.3396 30.7158 14.5105 30.6172 14.6692 30.6234C15.5605 30.3185 16.5067 30.2354 17.4437 30.2415C17.871 30.2446 18.2953 30.2631 18.7196 30.2877C19.0889 30.3062 19.504 30.3093 19.7543 30.6296Z" fill="#0053AD"/>
<path d="M14.0588 29.0375C14.0099 29.1761 13.8451 29.3239 13.6864 29.2561C13.0759 29.0036 12.4716 28.7141 11.8489 28.5016C11.272 28.3045 10.9271 28.5817 10.4968 28.9359C10.1671 29.213 9.77033 29.5549 9.31249 29.5364C8.78139 29.5179 8.31745 28.8897 7.95728 28.5602C6.95919 27.6486 5.96109 26.7401 4.963 25.8286C4.60589 25.5052 4.1511 25.1726 3.99543 24.6922C3.85503 24.2549 3.98627 23.8145 4.3617 23.5558C4.54179 23.4296 4.71577 23.5404 4.77681 23.7036C4.85617 23.6944 4.93553 23.719 5.00573 23.7991C5.74743 24.6337 6.53187 25.4251 7.36209 26.1704C7.75888 26.5245 8.17094 26.9557 8.63488 27.2205C9.13545 27.5069 9.55056 27.2113 10.0023 26.9711C10.9241 26.4784 11.7879 26.6447 12.6791 27.1374C13.3354 27.4977 14.3762 28.1259 14.0588 29.0375Z" fill="#0053AD"/>
<path d="M14.3823 2.38061C14.3091 2.58387 14.1534 2.71629 13.9947 2.85487C13.8421 2.98421 13.6833 3.13819 13.5094 3.23366C13.2865 3.35992 13.0149 3.33221 12.8409 3.13819C12.7036 2.98729 12.6242 2.78404 12.5296 2.6085C12.4319 2.42373 12.3342 2.23587 12.2366 2.0511C12.1847 1.95563 12.1908 1.854 12.2335 1.76777C12.1938 1.74314 12.1541 1.70926 12.1267 1.66307C12.0412 1.53065 12.0962 1.31507 12.2396 1.24424C12.4502 1.13954 12.67 1.04715 12.8928 0.973241C13.1004 0.90241 13.3293 0.822341 13.5521 0.810023C14.0496 0.782306 14.1717 1.37359 14.3091 1.73698C14.3884 1.94023 14.4617 2.16196 14.3823 2.38061Z" fill="#0053AD"/>
<path d="M31.7283 18.3543C31.8443 18.5822 31.7863 18.8655 31.765 19.1088C31.7497 19.3398 31.7619 19.5954 31.649 19.8017C31.5086 20.0666 31.2247 20.0758 30.9622 20.0789C30.4616 20.082 29.958 20.0635 29.4574 20.0234C29.4147 20.0204 29.372 20.0081 29.3354 19.9896C29.2713 20.0204 29.2011 20.0327 29.1309 20.0142C28.9752 19.9742 28.8714 19.7986 28.9141 19.6385C28.9813 19.3829 29.0362 19.115 29.1431 18.8717C29.2591 18.613 29.4788 18.4744 29.7413 18.4036C29.9885 18.3358 30.2358 18.2742 30.48 18.2096C30.6997 18.1511 30.9225 18.0741 31.1515 18.0587C31.3804 18.0464 31.6185 18.1418 31.7283 18.3543Z" fill="#0053AD"/>
<path fill-rule="evenodd" clip-rule="evenodd" d="M10.3532 19.1581C11.7512 21.6802 13.9122 22.949 16.2289 23.0137V23.0106C18.4448 22.9767 20.0167 22.598 21.4208 21.6741C23.1972 20.5069 24.2655 18.8439 24.6653 16.7406C25.0408 14.7604 24.7996 12.8973 23.7222 11.1696C22.9774 9.97473 21.9488 9.08165 20.7829 8.33947C19.4887 7.51722 18.1152 6.96905 16.5494 7.0214C15.5574 7.05528 14.6325 7.354 13.7046 7.66196C12.209 8.15777 11.0888 9.04777 10.399 10.5229C9.04992 13.4085 8.75996 16.2817 10.3532 19.1581ZM17.8582 22.4894C17.6184 22.5358 17.3953 22.579 17.1995 22.6164L17.2025 22.6195C14.2724 22.6164 12.1388 21.4924 10.7958 19.0934C8.96141 15.8136 9.43756 12.6355 11.4978 9.62981C12.2273 8.5612 13.3536 8.13621 14.5928 7.88985C16.5494 7.50182 18.0999 8.31791 19.5314 9.47892C21.0667 10.7261 21.9915 12.3676 22.2357 14.3477C22.5379 16.7714 21.9366 19.001 20.6791 21.0705C20.3128 21.6741 19.8336 22.1114 19.1224 22.2469C18.6869 22.329 18.2502 22.4136 17.8582 22.4894ZM22.5043 13.1221C22.8401 12.657 23.1789 12.1951 23.5726 11.6593H23.5757C23.6379 11.8147 23.6991 11.9652 23.7592 12.1127C23.8906 12.4356 24.0159 12.7435 24.1312 13.0543C24.1587 13.1282 24.1251 13.2637 24.0701 13.3222C23.7711 13.6283 23.466 13.9282 23.1463 14.2425C23.0124 14.3741 22.876 14.5083 22.7363 14.6465C22.7109 14.5221 22.6863 14.4029 22.6624 14.2875C22.5917 13.9453 22.5278 13.6362 22.4708 13.3253C22.4585 13.2606 22.4677 13.1744 22.5043 13.1221ZM24.3296 15.6843C24.3632 15.6997 24.3937 15.712 24.4273 15.7243C24.3357 16.1739 24.2441 16.6205 24.1526 17.067C24.1518 17.0697 24.151 17.0726 24.1502 17.0756C24.1447 17.0961 24.138 17.1209 24.122 17.1317C23.8548 17.348 23.5869 17.5649 23.3136 17.7862C22.972 18.0627 22.622 18.3461 22.254 18.6438C22.373 18.1267 22.4768 17.6896 22.5805 17.2525L22.5806 17.2518C22.5928 17.2056 22.6173 17.1563 22.6508 17.1255C22.9301 16.8853 23.2102 16.6451 23.4902 16.4049C23.7703 16.1647 24.0503 15.9245 24.3296 15.6843ZM23.7222 14.2717C23.8998 14.1097 24.0779 13.9474 24.2563 13.7842L24.2624 13.7811C24.5768 14.5448 24.5005 14.939 23.9358 15.4533C23.6549 15.7089 23.3705 15.9574 23.0865 16.2056C22.9941 16.2864 22.9018 16.3671 22.8096 16.448C22.7996 16.4581 22.7831 16.4603 22.7677 16.4623C22.7596 16.4633 22.7518 16.4644 22.7455 16.4665C22.7455 16.3311 22.7451 16.1954 22.7448 16.0595C22.7441 15.7875 22.7434 15.515 22.7455 15.2439C22.7455 15.2008 22.7699 15.1454 22.8004 15.1146C23.1064 14.8331 23.4137 14.553 23.7222 14.2717ZM22.5228 10.8783C22.5951 10.7809 22.6684 10.6822 22.7424 10.5814L22.7455 10.5783C23.3223 11.1542 23.3529 11.2066 22.9103 11.8656C22.7911 12.044 22.6654 12.2172 22.5324 12.4005C22.4611 12.4988 22.3877 12.5999 22.312 12.7063C22.272 12.6184 22.232 12.5336 22.1929 12.4508C22.0978 12.2492 22.008 12.0589 21.9366 11.8625C21.9091 11.7855 21.961 11.6562 22.016 11.5761C22.178 11.3429 22.3477 11.1143 22.5228 10.8783ZM21.6985 11.3174C21.0423 10.5722 21.0423 10.3504 21.6985 9.47583H21.7016C21.7612 9.53515 21.8217 9.59319 21.8818 9.65098C22.031 9.79423 22.1785 9.93596 22.309 10.0918C22.3639 10.1564 22.3639 10.335 22.3151 10.4151C22.1817 10.6321 22.0348 10.8399 21.8859 11.0504C21.8235 11.1387 21.7607 11.2274 21.6985 11.3174ZM23.5828 18.1038C23.6948 18.0068 23.8096 17.9074 23.9297 17.8061C23.6978 18.9302 23.1056 19.466 21.9091 19.657C21.9557 19.5043 22.0013 19.3572 22.0406 19.2304C22.0735 19.1245 22.102 19.0328 22.1228 18.964C22.2195 18.9343 22.3101 18.9134 22.3937 18.8941C22.553 18.8573 22.6872 18.8263 22.7912 18.7516C23.0607 18.5558 23.3135 18.337 23.5828 18.1038ZM17.8376 7.94198C17.5119 7.78716 17.1872 7.63281 16.8607 7.47718H16.8637C17.7184 7.43715 18.6646 7.64964 19.2415 8.01919C19.1764 8.15549 19.1114 8.29592 19.053 8.42185C19.0402 8.44956 19.0277 8.47657 19.0156 8.50268C18.6182 8.31313 18.2272 8.12722 17.8376 7.94198ZM21.0141 21.3483C21.378 20.6388 21.7441 19.9252 22.8523 19.9372C22.526 20.2211 22.2178 20.49 21.9181 20.7515C21.6261 21.0063 21.3422 21.2539 21.0576 21.5016C21.0453 21.4862 21.0324 21.4716 21.0194 21.457C21.0064 21.4423 20.9935 21.4277 20.9812 21.4123C20.9922 21.391 21.0032 21.3696 21.0141 21.3483ZM20.8103 10.1072C21.3903 9.22331 21.3628 9.05393 20.6028 8.77677C20.3016 9.26334 20.3708 9.7068 20.8103 10.1072ZM19.855 9.15248C20.2701 8.59815 20.2243 8.41954 19.6382 8.21936C19.2872 8.78293 19.2903 8.79525 19.855 9.15248Z" fill="#3395FF"/>
<path fill-rule="evenodd" clip-rule="evenodd" d="M20.2762 29.293C21.7107 28.9296 23.0385 28.3352 24.2563 27.4514V27.4575C24.3007 27.4895 24.3468 27.5192 24.3929 27.5489C24.4801 27.6051 24.567 27.6611 24.6409 27.7316C24.9248 28.0057 25.1903 27.9934 25.4742 27.7316C25.6189 27.5996 25.7681 27.4728 25.9171 27.3461C26.0949 27.1949 26.2724 27.0439 26.4418 26.8847C27.4551 25.9239 28.4685 24.9631 29.4696 23.9899C29.7779 23.6881 29.7474 23.5218 29.4421 23.2169C29.4173 23.1921 29.3924 23.1672 29.3676 23.1423C28.9679 22.7421 28.5671 22.3408 28.1907 21.9204C28.1052 21.825 28.0717 21.6032 28.1175 21.4801C28.1926 21.2795 28.2879 21.0862 28.3833 20.8928C28.4622 20.7329 28.5412 20.5728 28.6089 20.4084C28.7035 20.1805 28.8378 20.0973 29.0789 20.0942C29.7504 20.0819 30.4219 20.0604 31.0904 20.0111C31.2613 19.9988 31.5299 19.8971 31.5696 19.777C31.7374 19.2566 31.9084 18.7177 31.945 18.1787C31.9954 17.4166 31.9942 16.6509 31.9931 15.8844C31.9927 15.6289 31.9923 15.3733 31.9938 15.1176C31.9969 14.2677 31.9969 13.4208 31.9847 12.5708C31.9816 12.309 31.8962 12.0935 31.5818 12.0473C31.5408 12.0414 31.4999 12.0356 31.4589 12.0298C30.8742 11.9465 30.2898 11.8633 29.7107 11.7424C29.552 11.7085 29.3628 11.5545 29.2956 11.4036C29.1586 11.0943 29.0495 10.7724 28.9407 10.4514C28.8968 10.3218 28.8529 10.1924 28.8073 10.064C28.948 9.90474 29.0877 9.74568 29.227 9.58712C29.61 9.15097 29.9897 8.71869 30.3792 8.29634C30.6356 8.01918 30.6508 7.75433 30.4006 7.48641C30.2673 7.3434 30.1458 7.18917 30.0243 7.03497C29.7533 6.69108 29.4824 6.34731 29.082 6.12831C28.991 6.07904 28.9129 6.0037 28.8348 5.92836C28.8055 5.90011 28.7762 5.87186 28.7462 5.84499C28.437 5.5722 28.1275 5.29965 27.818 5.02707C27.0338 4.3365 26.2494 3.64571 25.4681 2.95018C25.227 2.7346 25.0225 2.72537 24.76 2.92862C24.4395 3.17499 24.0915 3.3844 23.7436 3.58457C23.6276 3.65232 23.4658 3.68928 23.3345 3.66772C22.9383 3.60082 22.5447 3.52528 22.1514 3.44979C21.8023 3.38281 21.4535 3.31587 21.1033 3.25505C20.8683 3.21194 20.8012 3.11031 20.7737 2.87011C20.6897 2.14418 20.5785 1.42281 20.4675 0.702078C20.4495 0.585042 20.4314 0.468023 20.4135 0.351003C20.3708 0.0584421 20.1907 -0.0308659 19.9099 0.0245666C19.6352 0.0799992 19.3574 0.135432 19.0797 0.15083C18.5653 0.181566 18.051 0.207764 17.5368 0.233954C16.7115 0.275989 15.8866 0.318002 15.0629 0.378719C14.0862 0.44955 13.1308 0.643564 12.2579 1.1363C11.974 1.29644 11.8641 1.46889 12.0045 1.78609C12.1371 2.08247 12.2602 2.38435 12.381 2.68071C12.4409 2.82777 12.5003 2.97348 12.56 3.11647C12.3302 3.25955 12.0999 3.40263 11.8683 3.54649C11.5217 3.76184 11.1722 3.97895 10.8172 4.20049C10.642 4.06588 10.4655 3.92971 10.2878 3.79265C9.85579 3.45935 9.417 3.12084 8.97362 2.78696C8.60429 2.50671 8.37843 2.50363 8.02741 2.83007C7.29182 3.51682 6.56233 4.20973 5.8603 4.92727C5.843 4.94494 5.8257 4.96261 5.80839 4.98028C4.82435 5.98502 3.83804 6.99208 3.22314 8.3025C3.00338 8.7706 2.98201 8.81987 3.37881 9.17402C3.47811 9.26219 3.57741 9.34905 3.66746 9.42783C3.71581 9.47012 3.76149 9.51008 3.80307 9.54665C3.75315 9.66979 3.70378 9.79179 3.65481 9.91281C3.38048 10.5908 3.11874 11.2377 2.84161 11.8779C2.78056 12.0196 2.64016 12.1551 2.49975 12.229C2.3586 12.3041 2.20828 12.3645 2.05809 12.4248C1.85102 12.508 1.6442 12.5911 1.46198 12.7125C1.25643 12.8483 1.07248 13.0185 0.888632 13.1885C0.755804 13.3114 0.623031 13.4342 0.482202 13.544C0.118982 13.8273 -0.0244749 14.1845 -5.66232e-05 14.6372C0.0243615 15.0437 0.0365706 15.4502 0.0365706 15.8567C0.0274137 17.027 0.198341 18.1572 0.622606 19.2535C0.821004 19.7647 1.16286 19.9865 1.67564 20.0357C2.24641 20.0912 2.81414 20.1589 3.38186 20.2451C3.50395 20.2636 3.64435 20.356 3.72066 20.4576C4.08999 20.9473 4.44405 21.4462 4.79201 21.9512C4.84084 22.019 4.85611 22.1668 4.81643 22.2284C4.50204 22.7057 4.1785 23.18 3.8397 23.645C3.54668 24.0484 3.5009 24.2517 3.82139 24.6336L3.85658 24.6756C4.44312 25.3761 5.03092 26.0782 5.68327 26.7092C6.58064 27.5746 7.52379 28.3999 8.4822 29.1975C9.03161 29.6564 9.27274 29.6286 9.77637 29.2499C10.1579 28.9635 10.5516 28.6955 10.9515 28.4338C11.037 28.3783 11.1804 28.3321 11.2689 28.3629C12.0534 28.6247 12.8317 28.9049 13.61 29.1883C13.6772 29.2129 13.7626 29.2776 13.7779 29.3392C13.814 29.4927 13.8523 29.6458 13.8906 29.7989C14.0013 30.2415 14.1119 30.6838 14.1686 31.1346C14.2663 31.9106 14.3395 32.0307 15.1148 31.9999C16.1159 31.9599 17.114 31.9014 18.1121 31.8398C18.5004 31.8152 18.8886 31.7747 19.2769 31.7343C19.3739 31.7242 19.471 31.7141 19.568 31.7043C19.8733 31.6735 19.9984 31.5134 19.9984 31.1869C19.9923 30.648 20.0259 30.106 20.0686 29.5701C20.0778 29.4685 20.1877 29.3145 20.2762 29.293ZM3.6626 8.55626C3.64142 8.58032 3.62076 8.60386 3.6001 8.62739C3.57644 8.65434 3.55279 8.68129 3.52837 8.709C3.61063 8.77102 3.69026 8.84219 3.76979 8.91328C3.94699 9.07166 4.12371 9.22962 4.32806 9.28489C4.53411 9.34004 4.76622 9.29437 5.00943 9.24652C5.1193 9.2249 5.23144 9.20284 5.34447 9.18942C5.33337 9.16702 5.32273 9.14564 5.3125 9.12509C5.26364 9.02692 5.22414 8.94755 5.1888 8.86606C5.04535 8.53655 4.83779 8.39797 4.48373 8.57966C4.32554 8.66097 4.15275 8.70989 3.9825 8.75809L3.97095 8.76136C3.79298 8.81223 3.6323 8.81076 3.6626 8.55626ZM3.68037 8.52601C3.80178 8.4642 3.92327 8.40279 4.04678 8.34037C4.23811 8.24366 4.43427 8.14452 4.64245 8.03765C4.58018 7.94791 4.51576 7.85453 4.44323 7.74941C4.36643 7.63809 4.28054 7.5136 4.1785 7.3663L4.1439 7.44704C3.96804 7.85736 3.8239 8.19369 3.68037 8.52601ZM20.0381 0.505227C19.82 0.514011 19.6055 0.521546 19.3939 0.528986C18.8673 0.54749 18.3577 0.565399 17.8496 0.60045C17.1001 0.651923 16.3505 0.71485 15.601 0.777777C15.1846 0.812737 14.7681 0.847696 14.3517 0.880692C14.1228 0.89917 14.0312 1.01003 14.0404 1.23792C14.048 1.44734 14.0495 1.65675 14.0511 1.86616C14.0526 2.07557 14.0541 2.28498 14.0618 2.4944C14.0709 2.76232 13.9702 2.92554 13.7321 3.04872C13.4215 3.21325 13.1136 3.38386 12.8056 3.55453C12.3238 3.82153 11.8417 4.08868 11.3483 4.33291C11.0095 4.50229 10.6157 4.56696 10.2586 4.28364C10.0663 4.13198 9.8702 3.98461 9.67418 3.83728C9.40052 3.63159 9.12694 3.42598 8.86374 3.20886C8.62566 3.01177 8.43337 2.97173 8.20139 3.20886C7.50548 3.91655 6.80626 4.62091 6.10705 5.32528C5.64091 5.79485 5.17476 6.26443 4.7096 6.73499C4.5112 6.93516 4.52341 7.13533 4.68213 7.36014C4.80246 7.53147 4.91694 7.70753 5.03147 7.88365C5.17838 8.10958 5.32536 8.33563 5.48487 8.55195C5.86946 9.07548 6.00071 9.59593 5.56728 10.1564C5.51228 10.2294 5.47375 10.3163 5.43607 10.4013C5.43402 10.4059 5.43198 10.4105 5.42993 10.4151C5.35531 10.5884 5.25466 10.7503 5.15391 10.9123C4.95384 11.2341 4.75335 11.5566 4.75538 11.9703C4.75538 12.0196 4.64245 12.0935 4.57224 12.115C4.51157 12.1315 4.45089 12.1481 4.39021 12.1646C3.79458 12.327 3.19825 12.4896 2.59437 12.6293C2.30136 12.6971 2.18842 12.8695 2.17926 13.1436C2.16706 13.546 2.15506 13.9483 2.14305 14.3506L2.14302 14.3516C2.10696 15.5595 2.07091 16.7675 2.0297 17.9755C2.01749 18.345 2.18842 18.459 2.53638 18.4713C3.24145 18.4959 3.94958 18.5575 4.6516 18.6222C4.75233 18.6314 4.88358 18.7146 4.92936 18.8039C5.04607 19.0292 5.15539 19.2592 5.26479 19.4894C5.41861 19.8131 5.57256 20.137 5.74737 20.4484C6.01597 20.9288 5.9946 21.3538 5.67411 21.7849C5.53682 21.9684 5.40162 22.154 5.26667 22.3393C5.1706 22.4711 5.07466 22.6028 4.9782 22.7334C4.77369 23.0106 4.78896 23.2631 5.02703 23.5218C6.193 24.7968 7.35592 26.0779 8.51578 27.3559C8.68365 27.5407 8.86374 27.5622 9.06824 27.4206C9.20484 27.3265 9.34033 27.2308 9.4758 27.135C9.78831 26.9142 10.1007 26.6934 10.4265 26.4936C10.5791 26.3982 10.8386 26.3273 10.982 26.392C11.8397 26.7769 12.6791 27.2019 13.5154 27.6269C13.6405 27.6916 13.7779 27.8178 13.8206 27.9472C14.0556 28.6247 14.2876 29.3053 14.4677 29.9982C14.5379 30.2692 14.6478 30.3216 14.8889 30.3185C16.3632 30.2969 17.8405 30.2784 19.3147 30.2754C19.568 30.2754 19.6657 30.1922 19.6596 29.9335C19.6555 29.6981 19.6587 29.4627 19.6619 29.2272C19.6658 28.933 19.6698 28.6387 19.6596 28.3445C19.6505 28.0119 19.7756 27.8148 20.0778 27.6947C20.44 27.5521 20.8009 27.4053 21.1618 27.2584L21.1623 27.2583C21.7287 27.0278 22.2953 26.7973 22.8676 26.5829C23.0476 26.5152 23.3101 26.5337 23.4902 26.6137C23.8786 26.7908 24.2559 26.995 24.6494 27.2079C24.8033 27.2912 24.9597 27.3758 25.1201 27.4606C25.3026 27.3023 25.4861 27.1442 25.6703 26.9856L25.6707 26.9853C26.8947 25.9309 28.1456 24.8534 29.2651 23.5526C29.1072 23.3984 28.952 23.2448 28.7978 23.0923L28.7976 23.0921C28.484 22.7819 28.1751 22.4764 27.858 22.1791C27.5864 21.9235 27.5467 21.6618 27.7023 21.323C27.893 20.9114 28.0757 20.4966 28.2582 20.0823C28.432 19.6875 28.6057 19.2931 28.7859 18.9024C28.8347 18.7947 28.9599 18.6838 29.0698 18.6499C29.7809 18.4497 30.4921 18.2557 31.2125 18.0956C31.4688 18.0371 31.5452 17.9293 31.5482 17.6768C31.5531 17.2301 31.5649 16.7844 31.5767 16.3386C31.5871 15.9483 31.5975 15.5579 31.6031 15.1669C31.6081 14.7436 31.6077 14.3203 31.6072 13.897V13.8962C31.6069 13.5437 31.6065 13.1912 31.6093 12.8387C31.6093 12.577 31.5421 12.4599 31.246 12.423C30.8208 12.3696 30.3982 12.2861 29.9756 12.2026C29.7643 12.1609 29.553 12.1191 29.3414 12.0812C29.1247 12.0411 29.0331 11.9179 28.9538 11.7054C28.902 11.5659 28.8515 11.4253 28.8008 11.2843C28.5889 10.6944 28.3754 10.1002 28.0625 9.56821C27.8275 9.17094 27.9252 8.97693 28.1358 8.68437C28.3304 8.41824 28.5157 8.14526 28.701 7.87221C28.8674 7.62707 29.0338 7.38187 29.2071 7.14149C29.3597 6.929 29.3689 6.7935 29.1247 6.63952C28.8789 6.48645 28.6573 6.29078 28.4388 6.09787L28.4349 6.09443C27.4032 5.19212 26.3746 4.28672 25.349 3.37208C25.172 3.21502 25.0499 3.19962 24.8515 3.34744C24.4914 3.61845 24.1098 3.86173 23.7222 4.0927C23.6306 4.14813 23.4872 4.14506 23.3742 4.1235C22.9949 4.05391 22.6161 3.98001 22.2371 3.90608C21.7105 3.80334 21.1836 3.70054 20.6547 3.60921C20.3525 3.55685 20.2212 3.38132 20.3372 3.09492C20.3647 3.03024 20.3861 2.95325 20.3769 2.8855C20.3077 2.3872 20.2362 1.88889 20.1659 1.3991L20.1658 1.39845C20.1225 1.09682 20.0797 0.798416 20.0381 0.505227ZM1.63901 14.7136C1.57691 14.7638 1.51724 14.8117 1.45997 14.8577C0.528654 15.6061 0.234787 15.8422 0.524934 16.8422C0.593061 16.7928 0.661189 16.7437 0.729215 16.6947C0.996436 16.502 1.26208 16.3105 1.51997 16.1093C1.58407 16.06 1.62986 15.946 1.63291 15.8629C1.64199 15.5903 1.64094 15.3177 1.6398 15.0235C1.63942 14.923 1.63902 14.82 1.63901 14.7136ZM0.798917 14.85C0.682638 14.9426 0.565768 15.0356 0.448627 15.1299V15.1269C0.357059 14.551 0.378425 14.0305 0.964461 13.6764C1.15799 13.5575 1.32976 13.3992 1.51377 13.2296C1.59676 13.1531 1.68223 13.0743 1.77331 12.9958C1.76546 13.1077 1.75887 13.2138 1.75253 13.316C1.73915 13.5316 1.72687 13.7294 1.70616 13.9258C1.69701 14.0182 1.67259 14.1383 1.60849 14.1907C1.34475 14.4157 1.07348 14.6315 0.798917 14.85ZM1.00163 16.9932C1.19143 16.863 1.3736 16.7381 1.55965 16.6112C1.71227 17.3165 1.58102 17.5351 0.686704 18.1017C0.673771 18.0307 0.661006 17.9608 0.64857 17.8928C0.608179 17.6718 0.571252 17.4697 0.543247 17.3072C0.704119 17.1972 0.855146 17.0936 1.00163 16.9932ZM4.78878 10.7138C4.71491 10.8483 4.64053 10.9839 4.56614 11.1203V11.1234C4.39909 11.0804 4.23871 11.0403 4.08126 11.0009C3.95678 10.9698 3.83414 10.9391 3.7115 10.9078C3.95263 10.0455 4.19987 9.94084 4.96599 10.3905C4.90744 10.4976 4.84828 10.6054 4.78878 10.7138ZM5.53676 25.9177C4.90189 25.6252 4.7798 25.1571 5.11555 24.3502C5.58464 24.6342 5.56167 25.0452 5.53835 25.4625C5.5298 25.6153 5.52121 25.7691 5.53676 25.9177ZM1.49861 19.5584C2.34409 19.7586 2.45702 19.7062 2.86603 18.9548C2.12432 18.7669 2.05412 18.7977 1.49861 19.5584ZM4.56318 20.3908C4.49505 20.4599 4.42545 20.5305 4.36469 20.6055C4.1795 20.3757 4.06613 20.2712 4.04644 20.151C4.01809 19.9781 4.18383 19.7727 4.60887 19.1149C4.64496 19.2143 4.69008 19.3102 4.73338 19.4023C4.82561 19.5984 4.9096 19.7769 4.88052 19.9341C4.85129 20.0984 4.71067 20.2411 4.56318 20.3908ZM9.80994 28.6986C9.83741 28.2767 9.86183 27.901 9.8893 27.4545L9.89235 27.4575C9.99939 27.3721 10.1173 27.2774 10.2413 27.1778C10.3541 27.0872 10.472 26.9925 10.5913 26.8971C10.9179 27.6485 10.9057 27.9626 10.5089 28.1874C10.5186 28.1209 10.5307 28.0579 10.5424 27.9973C10.5675 27.8669 10.5905 27.7477 10.5822 27.63C10.5735 27.5342 10.5253 27.44 10.4772 27.3462C10.4573 27.3073 10.4374 27.2685 10.4204 27.2296C10.3947 27.2632 10.3643 27.2959 10.3338 27.3286C10.2666 27.4009 10.1991 27.4734 10.1823 27.5561C10.1391 27.7609 10.1204 27.9719 10.0991 28.212C10.0902 28.3112 10.081 28.4154 10.0694 28.5262C10.0541 28.5354 9.95645 28.6001 9.80994 28.6986ZM0.794501 18.5138C0.876709 18.7196 0.974023 18.962 1.07739 19.2166C1.50471 18.8747 1.88014 18.5606 1.58102 17.9786C1.3371 18.1447 1.09318 18.3108 0.794501 18.5138ZM15.2888 31.5195C15.3529 31.2762 15.4139 31.0329 15.4811 30.765H16.2014C16.1861 31.4795 16.0274 31.615 15.2888 31.5195ZM17.5108 30.7681C17.3216 31.4579 17.2972 31.4918 16.4822 31.4425C16.55 31.2427 16.6179 31.0501 16.69 30.8454L16.7172 30.7681H17.5108ZM5.83894 26.1148C5.87251 25.9393 5.92745 25.6529 5.98545 25.3603C6.55012 25.7453 6.56538 25.8161 6.30288 26.7246C6.26469 26.6745 6.22689 26.625 6.18908 26.5755C6.0758 26.4271 5.96251 26.2788 5.83894 26.1148ZM30.3548 19.6046C30.1472 19.62 29.958 19.6354 29.7413 19.6539V19.6569C29.6924 18.9363 29.8054 18.8008 30.4982 18.7269C30.4738 18.8811 30.4486 19.0336 30.4229 19.1884C30.4004 19.3243 30.3776 19.4621 30.3548 19.6046ZM12.4502 28.3845C12.731 27.6362 12.7157 27.6023 12.035 27.3959C11.7115 28.1381 11.7359 28.1997 12.4502 28.3845ZM20.8897 28.6493C21.5917 28.48 21.6436 28.3968 21.5825 27.5499C21.027 27.6793 20.9355 27.8209 20.8897 28.6493ZM4.49594 23.5434C3.89464 24.1439 3.89769 24.2948 4.5112 24.8245C4.74622 24.2147 4.74622 23.8236 4.49594 23.5434ZM21.9977 28.2336C22.5867 28.0673 22.6692 27.9195 22.602 27.1773C22.0434 27.3066 21.9549 27.4606 21.9977 28.2336ZM18.8807 30.9984C18.9033 30.8872 18.9249 30.7806 18.9484 30.6634C19.0251 30.6892 19.1181 30.6797 19.2093 30.6705C19.4124 30.6499 19.6063 30.6302 19.5894 31.0021C19.5729 31.3456 19.3918 31.3458 19.1876 31.346C19.0512 31.3462 18.9046 31.3464 18.7897 31.4487C18.8248 31.2736 18.8534 31.1326 18.8807 30.9984ZM3.5603 11.9015C3.46019 11.9257 3.35466 11.9512 3.24145 11.9795L3.24451 11.9764C3.27063 11.909 3.29555 11.8446 3.31938 11.783C3.40976 11.5494 3.48452 11.3562 3.54973 11.1881C3.63082 11.2228 3.70948 11.2551 3.78615 11.2866C3.92017 11.3416 4.04814 11.3941 4.1724 11.4529C4.21653 11.4741 4.25198 11.5158 4.28772 11.5577C4.30388 11.5767 4.32011 11.5958 4.33722 11.6131C4.31754 11.6279 4.29849 11.6454 4.27947 11.6628C4.23948 11.6995 4.19959 11.736 4.15408 11.7486C3.96646 11.8032 3.77599 11.8493 3.5603 11.9015ZM30.8798 19.6446C30.7302 18.9394 30.9194 18.5483 31.3956 18.5298H31.3986C31.3843 18.6133 31.3718 18.6969 31.3594 18.78C31.3269 18.9972 31.2948 19.2118 31.2308 19.4167C31.2102 19.4809 31.1193 19.5243 31.0211 19.571C30.9733 19.5938 30.9237 19.6174 30.8798 19.6446ZM7.18045 27.1085C7.15657 27.2362 7.13184 27.3683 7.13615 27.5007C6.9347 27.322 6.78514 27.1896 6.63863 27.0603C6.6895 26.8858 6.73766 26.7167 6.78582 26.5477C6.8099 26.4632 6.83398 26.3787 6.85839 26.2935C7.29622 26.49 7.24104 26.7848 7.18045 27.1085ZM29.1125 9.02928C29.5703 8.66589 29.5764 8.45032 29.1644 7.96374C28.7615 8.438 28.7615 8.4534 29.1125 9.02928ZM8.73859 28.8526C8.92478 28.1104 8.84848 27.938 8.32043 27.8394C8.14951 28.4584 8.15561 28.4738 8.73859 28.8526ZM13.5764 1.01311C13.5978 1.04699 13.6222 1.08394 13.6466 1.11782L13.6497 1.1209C13.6386 1.14843 13.6301 1.18204 13.6217 1.21558C13.6047 1.28333 13.5878 1.35079 13.549 1.36727C13.2285 1.50893 12.8958 1.62595 12.5661 1.7399C12.5295 1.75222 12.4471 1.7091 12.4318 1.67215C12.4135 1.63211 12.4288 1.53049 12.4593 1.51817C12.7445 1.38262 13.0333 1.25443 13.3216 1.12648C13.4066 1.08873 13.4916 1.051 13.5764 1.01311ZM23.008 27.7624C23.0385 27.4483 23.0598 27.2019 23.0873 26.8847C23.1634 26.9192 23.2352 26.9518 23.3056 26.9838C23.4864 27.0658 23.6578 27.1436 23.8687 27.2389C23.6763 27.355 23.5071 27.4582 23.3354 27.563C23.2293 27.6277 23.1222 27.693 23.008 27.7624ZM29.8359 8.26554C29.4513 7.56956 29.4482 7.5634 29.6833 7.26776C29.7571 7.3551 29.8272 7.43762 29.8963 7.5189C29.9928 7.63249 30.0873 7.74364 30.1869 7.86212C30.1119 7.94677 30.0442 8.02511 29.9778 8.10205C29.9306 8.15666 29.884 8.21057 29.8359 8.26554ZM17.7947 31.3809C18.3258 31.4456 18.4845 31.2978 18.4509 30.7619C18.0511 30.688 17.9259 30.8081 17.7947 31.3809ZM13.4845 28.5675C13.5281 28.6258 13.5756 28.6894 13.6161 28.7571H13.6131C13.4643 28.7116 13.3302 28.6698 13.1982 28.6286C13.0892 28.5946 12.9815 28.561 12.8683 28.5262C12.8915 28.4431 12.9134 28.3645 12.9347 28.2877C12.9697 28.1622 13.0033 28.0413 13.0392 27.9133L13.0467 27.9147C13.2779 27.957 13.4442 27.9875 13.3536 28.3044C13.3357 28.3686 13.4032 28.4588 13.4845 28.5675ZM5.15828 20.3375C4.76759 20.6547 4.61192 20.9996 4.76454 21.2152C5.18779 20.8272 5.31903 20.5346 5.15828 20.3375ZM7.55351 27.4166C7.57407 27.2906 7.59558 27.1587 7.56957 27.0264C8.02741 27.399 8.03352 27.4452 7.79544 28.0427C7.47757 27.8823 7.51376 27.6604 7.55351 27.4166ZM20.151 28.8988C20.0015 28.2551 20.0411 28.1628 20.5509 28.0242C20.4914 28.1209 20.486 28.243 20.4805 28.3662C20.4709 28.5844 20.4611 28.8063 20.151 28.8988ZM14.5323 30.765C14.5521 30.8778 14.5706 30.9848 14.5884 31.088C14.6171 31.2541 14.6441 31.4105 14.6722 31.5657H14.8218C14.8612 31.4336 14.8998 31.3015 14.9393 31.1665C14.9762 31.0402 15.0139 30.9113 15.0537 30.7773C15.021 30.7722 14.9941 30.7674 14.9711 30.7632C14.9254 30.7551 14.8949 30.7496 14.8645 30.7496C14.7973 30.7496 14.732 30.7534 14.6271 30.7595C14.5987 30.7612 14.5674 30.763 14.5323 30.765ZM11.2993 27.9159C11.2292 27.6143 11.159 27.3126 11.0797 26.9586C11.6535 27.1865 11.681 27.2882 11.2994 27.9164L11.2993 27.9159ZM9.20619 29.0313C9.2228 29.0343 9.24014 29.0366 9.25748 29.0389C9.27503 29.0412 9.29258 29.0435 9.30937 29.0466C9.33989 28.8295 9.37118 28.6116 9.40246 28.3937C9.43375 28.1758 9.46503 27.958 9.49556 27.7409C9.47419 27.7378 9.45206 27.7347 9.42993 27.7316C9.4078 27.7285 9.38567 27.7255 9.36431 27.7224C9.15509 27.9722 9.18125 28.2549 9.20747 28.5383C9.22285 28.7046 9.23825 28.8711 9.20619 29.0313ZM12.6547 2.26651C12.6455 2.23956 12.6363 2.21261 12.6272 2.18644C12.7629 2.13031 12.8992 2.07418 13.0387 2.01669C13.2131 1.94487 13.3927 1.87094 13.5825 1.79225C13.5852 1.81658 13.5876 1.83936 13.5899 1.8609C13.601 1.96477 13.6091 2.03961 13.6192 2.11869C13.2926 2.19876 12.9874 2.27267 12.6821 2.34658C12.673 2.3204 12.6638 2.29345 12.6547 2.26651ZM28.6037 9.0202C28.728 9.21669 28.8425 9.39764 28.5997 9.6606C28.5749 9.59865 28.544 9.54064 28.5141 9.48464C28.4119 9.29286 28.3223 9.12469 28.5326 8.90302C28.5549 8.94315 28.5795 8.98197 28.6037 9.0202ZM5.34447 9.61748C5.28648 9.75914 5.2468 9.85461 5.19796 9.97164C4.95988 9.89465 4.77064 9.83305 4.58445 9.77146C4.58751 9.74375 4.58751 9.71911 4.58751 9.69448C4.68844 9.6839 4.78936 9.67388 4.8944 9.66346C5.03396 9.64962 5.18077 9.63505 5.34447 9.61748ZM3.53447 19.7493H3.53752C3.61841 19.6184 3.70006 19.4883 3.78171 19.3582C3.86335 19.2281 3.945 19.098 4.02589 18.9671L4.13577 19.041C3.97095 19.3059 3.80918 19.5676 3.64741 19.8325C3.60781 19.8048 3.57103 19.777 3.53447 19.7493ZM13.6619 2.61142C12.9904 2.67917 12.908 2.72229 12.9263 2.97789C13.1796 2.85163 13.4208 2.73152 13.6619 2.61142ZM29.2651 18.964C29.3597 19.4968 29.2956 19.6292 28.9263 19.6385C28.9642 19.5631 28.9994 19.4926 29.0343 19.4229C29.1063 19.279 29.1767 19.1383 29.2651 18.964ZM3.00643 19.7586L2.90265 19.6785L3.4429 18.9209C3.45664 18.9317 3.47114 18.9425 3.48564 18.9533C3.50013 18.964 3.51463 18.9748 3.52837 18.9856C3.44138 19.1149 3.35439 19.2435 3.2674 19.3721C3.18041 19.5007 3.09342 19.6292 3.00643 19.7586Z" fill="#3395FF"/>
<path fill-rule="evenodd" clip-rule="evenodd" d="M20.0381 0.505227C19.82 0.514011 19.6055 0.521546 19.3939 0.528986C18.8673 0.54749 18.3577 0.565399 17.8496 0.60045C17.1001 0.651923 16.3505 0.71485 15.601 0.777777C15.1846 0.812737 14.7681 0.847696 14.3517 0.880692C14.1228 0.89917 14.0312 1.01003 14.0404 1.23792C14.048 1.44734 14.0495 1.65675 14.0511 1.86616C14.0526 2.07557 14.0541 2.28498 14.0618 2.4944C14.0709 2.76232 13.9702 2.92554 13.7321 3.04872C13.4215 3.21325 13.1136 3.38386 12.8056 3.55453C12.3238 3.82153 11.8417 4.08868 11.3483 4.33291C11.0095 4.50229 10.6157 4.56696 10.2586 4.28364C10.0663 4.13198 9.8702 3.98461 9.67418 3.83728C9.40052 3.63159 9.12694 3.42598 8.86374 3.20886C8.62566 3.01177 8.43337 2.97173 8.20139 3.20886C7.50548 3.91655 6.80626 4.62091 6.10705 5.32528C5.64091 5.79485 5.17476 6.26443 4.7096 6.73499C4.5112 6.93516 4.52341 7.13533 4.68213 7.36014C4.80246 7.53147 4.91694 7.70753 5.03147 7.88365C5.17838 8.10958 5.32536 8.33563 5.48487 8.55195C5.86946 9.07548 6.00071 9.59593 5.56728 10.1564C5.51228 10.2294 5.47375 10.3163 5.43607 10.4013L5.42993 10.4151C5.35531 10.5884 5.25466 10.7503 5.15391 10.9123C4.95384 11.2341 4.75335 11.5566 4.75538 11.9703C4.75538 12.0196 4.64245 12.0935 4.57224 12.115L4.39021 12.1646C3.79458 12.327 3.19825 12.4896 2.59437 12.6293C2.30136 12.6971 2.18842 12.8695 2.17926 13.1436C2.16706 13.546 2.15506 13.9483 2.14305 14.3506L2.14302 14.3516C2.10696 15.5595 2.07091 16.7675 2.0297 17.9755C2.01749 18.345 2.18842 18.459 2.53638 18.4713C3.24145 18.4959 3.94958 18.5575 4.6516 18.6222C4.75233 18.6314 4.88358 18.7146 4.92936 18.8039C5.04607 19.0292 5.15539 19.2592 5.26479 19.4894C5.41861 19.8131 5.57256 20.137 5.74737 20.4484C6.01597 20.9288 5.9946 21.3538 5.67411 21.7849C5.53682 21.9684 5.40162 22.154 5.26667 22.3393C5.1706 22.4711 5.07466 22.6028 4.9782 22.7334C4.77369 23.0106 4.78896 23.2631 5.02703 23.5218C6.193 24.7968 7.35592 26.0779 8.51578 27.3559C8.68365 27.5407 8.86374 27.5622 9.06824 27.4206C9.20484 27.3265 9.34033 27.2308 9.4758 27.135C9.78831 26.9142 10.1007 26.6934 10.4265 26.4936C10.5791 26.3982 10.8386 26.3273 10.982 26.392C11.8397 26.7769 12.6791 27.2019 13.5154 27.6269C13.6405 27.6916 13.7779 27.8178 13.8206 27.9472C14.0556 28.6247 14.2876 29.3053 14.4677 29.9982C14.5379 30.2692 14.6478 30.3216 14.8889 30.3185C16.3632 30.2969 17.8405 30.2784 19.3147 30.2754C19.568 30.2754 19.6657 30.1922 19.6596 29.9335C19.6555 29.6981 19.6587 29.4627 19.6619 29.2272C19.6658 28.933 19.6698 28.6387 19.6596 28.3445C19.6505 28.0119 19.7756 27.8148 20.0778 27.6947C20.44 27.5521 20.8009 27.4053 21.1618 27.2584L21.1623 27.2583C21.7287 27.0278 22.2953 26.7973 22.8676 26.5829C23.0476 26.5152 23.3101 26.5337 23.4902 26.6137C23.8786 26.7908 24.2559 26.995 24.6494 27.2079C24.8033 27.2912 24.9597 27.3758 25.1201 27.4606C25.3026 27.3023 25.4861 27.1442 25.6703 26.9856L25.6707 26.9853C26.8947 25.9309 28.1456 24.8534 29.2651 23.5526C29.1072 23.3984 28.952 23.2448 28.7978 23.0923L28.7976 23.0921C28.484 22.7819 28.1751 22.4764 27.858 22.1791C27.5864 21.9235 27.5467 21.6618 27.7023 21.323C27.893 20.9114 28.0757 20.4966 28.2582 20.0823C28.432 19.6875 28.6057 19.2931 28.7859 18.9024C28.8347 18.7947 28.9599 18.6838 29.0698 18.6499C29.7809 18.4497 30.4921 18.2557 31.2125 18.0956C31.4688 18.0371 31.5452 17.9293 31.5482 17.6768C31.5531 17.2301 31.5649 16.7844 31.5767 16.3386C31.5871 15.9483 31.5975 15.5579 31.6031 15.1669C31.6081 14.7436 31.6077 14.3203 31.6072 13.897V13.8962C31.6069 13.5437 31.6065 13.1912 31.6093 12.8387C31.6093 12.577 31.5421 12.4599 31.246 12.423C30.8208 12.3696 30.3982 12.2861 29.9756 12.2026C29.7643 12.1609 29.553 12.1191 29.3414 12.0812C29.1247 12.0411 29.0331 11.9179 28.9538 11.7054C28.902 11.5659 28.8515 11.4253 28.8008 11.2843C28.5889 10.6944 28.3754 10.1002 28.0625 9.56821C27.8275 9.17094 27.9252 8.97693 28.1358 8.68437C28.3304 8.41824 28.5157 8.14526 28.701 7.87221C28.8674 7.62707 29.0338 7.38187 29.2071 7.14149C29.3597 6.929 29.3689 6.7935 29.1247 6.63952C28.8789 6.48645 28.6573 6.29078 28.4388 6.09787L28.4349 6.09443C27.4032 5.19212 26.3746 4.28672 25.349 3.37208C25.172 3.21502 25.0499 3.19962 24.8515 3.34744C24.4914 3.61845 24.1098 3.86173 23.7222 4.0927C23.6306 4.14813 23.4872 4.14506 23.3742 4.1235C22.9949 4.05391 22.6161 3.98001 22.2371 3.90608C21.7105 3.80334 21.1836 3.70054 20.6547 3.60921C20.3525 3.55685 20.2212 3.38132 20.3372 3.09492C20.3647 3.03024 20.3861 2.95325 20.3769 2.8855C20.3077 2.3872 20.2362 1.88889 20.1659 1.3991L20.1658 1.39845C20.1225 1.09682 20.0797 0.798416 20.0381 0.505227ZM10.3532 19.1581C11.7512 21.6802 13.9122 22.949 16.2289 23.0137V23.0106C18.4448 22.9767 20.0167 22.598 21.4208 21.6741C23.1972 20.5069 24.2655 18.8439 24.6653 16.7406C25.0408 14.7604 24.7996 12.8973 23.7222 11.1696C22.9774 9.97473 21.9488 9.08165 20.7829 8.33947C19.4887 7.51722 18.1152 6.96905 16.5494 7.0214C15.5574 7.05528 14.6325 7.354 13.7046 7.66196C12.209 8.15777 11.0888 9.04777 10.399 10.5229C9.04992 13.4085 8.75996 16.2817 10.3532 19.1581Z" fill="#3395FF"/>
</g>
<defs>
<clipPath id="clip0_73_19520">
<rect width="32" height="32" fill="white"/>
</clipPath>
</defs>
</svg>
