<svg width="46" height="32" viewBox="0 0 46 32" fill="none" xmlns="http://www.w3.org/2000/svg">
<path d="M32.4911 28.4475C31.8117 27.0814 30.8931 25.3632 30.3919 24.969C29.8512 24.5428 22.7604 19.5944 21.9545 18.5996C21.2506 17.7302 14.3518 7.11502 12.6189 4.44507C12.2841 3.92914 11.7827 4.10282 11.6208 4.19929L11.6022 4.21055C11.4257 4.31618 10.955 4.59778 10.708 4.74566C10.4525 4.89795 10.4581 5.26227 10.7286 5.75046C12.4039 8.7783 18.5263 19.8121 19.2217 20.6702C20.0271 21.6649 26.2725 26.9328 26.6361 27.5173C26.8284 27.8265 27.0204 28.7814 27.1593 29.6124C27.2557 30.2193 27.5951 30.9629 28.413 30.8575C29.2303 30.7522 30.995 30.5252 31.6795 30.4375C32.3645 30.349 33.0379 29.7057 32.4911 28.4475Z" fill="url(#paint0_linear_975_3020)"/>
<path opacity="0.3" d="M13.6686 11.0408C13.6367 10.9185 13.6032 10.7949 13.5718 10.6746C13.535 10.5348 13.4987 10.3945 13.4616 10.2536C13.4317 10.1418 13.4009 10.0319 13.3705 9.9231C13.2338 9.43096 13.1044 8.96656 13.0795 8.44831C13.052 7.88411 12.9277 7.36374 12.6631 6.70801C12.6047 6.56238 12.5536 6.41426 12.5025 6.26614C12.4228 6.03455 12.3408 5.79471 12.2289 5.57391C12.0455 5.20877 11.7933 4.92202 11.5261 4.61853C11.4697 4.55436 11.4127 4.48907 11.3557 4.42347C11.3433 4.40901 11.3326 4.39308 11.3207 4.37937C11.3686 4.35047 11.4125 4.32434 11.4539 4.29944C11.4605 4.30694 11.4664 4.31584 11.4724 4.32319C11.5291 4.3887 11.5857 4.45324 11.6415 4.51725C11.9154 4.82891 12.1743 5.12286 12.3662 5.50524C12.4825 5.73551 12.5664 5.98002 12.6477 6.21649C12.6979 6.36183 12.7481 6.50844 12.8054 6.65122C13.0768 7.32311 13.2047 7.85877 13.2326 8.44058C13.257 8.94248 13.3842 9.39893 13.5189 9.88164C13.5496 9.99179 13.5802 10.1023 13.6101 10.2141C13.6473 10.3547 13.6842 10.4952 13.7202 10.6354C13.8043 10.9577 13.8937 11.2872 13.9897 11.6149C13.8818 11.4222 13.775 11.2311 13.6686 11.0408ZM13.9783 10.1892C13.5149 8.64013 13.344 6.97868 13.2057 5.35016C13.1444 5.25539 13.0855 5.16506 13.029 5.0776C13.1719 6.80516 13.3359 8.57913 13.8307 10.2337L13.8416 10.2726C13.949 10.64 14.0748 10.9834 14.2721 11.0127C14.3028 11.0171 14.3321 11.0138 14.3613 11.0034C14.4139 10.9841 14.4641 10.9395 14.5097 10.869C14.6369 10.6727 14.66 10.3734 14.6783 10.1327C14.6822 10.0828 14.6856 10.0356 14.6899 9.99217C14.7415 9.47976 14.7544 8.95856 14.7601 8.4724C14.763 8.22853 14.7609 7.98429 14.7596 7.73931C14.7078 7.65947 14.6571 7.58122 14.6058 7.50281C14.6087 7.82596 14.6101 8.14901 14.6061 8.47033C14.6003 8.95328 14.588 9.47016 14.5368 9.97728C14.532 10.0215 14.5286 10.0697 14.5245 10.1208C14.5077 10.3441 14.4867 10.622 14.3807 10.7847C14.347 10.8355 14.3154 10.8631 14.2941 10.8606C14.2472 10.8537 14.1447 10.7619 13.9895 10.2295L13.9783 10.1892ZM29.218 30.7533C29.0137 29.5339 28.6482 28.3348 27.7694 27.4622C27.092 26.7898 26.3082 26.4291 25.5055 26.4039C25.5692 26.4621 25.6321 26.52 25.6918 26.5752C26.3887 26.6469 27.0669 26.9822 27.6608 27.5714C28.5068 28.4122 28.8647 29.58 29.0654 30.7735C29.1153 30.7668 29.1658 30.7603 29.218 30.7533ZM17.5904 17.197L17.5801 17.1382C17.4364 16.2323 17.1144 15.349 16.803 14.4947C16.6941 14.196 16.5858 13.8988 16.4855 13.6014C16.0011 12.1675 15.7238 10.6891 15.6401 9.08885C15.5839 9.00342 15.5282 8.91777 15.4728 8.83317C15.5395 10.5495 15.8236 12.125 16.3398 13.6509C16.4408 13.9491 16.5497 14.2478 16.6585 14.5477C16.9673 15.3949 17.2867 16.2715 17.4286 17.1626L17.4385 17.2232C17.4628 17.3679 17.5008 17.597 17.4648 17.7609C17.4971 17.8174 17.5313 17.8765 17.5634 17.9316C17.6778 17.7282 17.6258 17.4075 17.5904 17.197ZM31.9059 30.386C31.7104 29.5391 31.448 28.6792 31.0847 27.9014C30.4715 26.5875 29.414 25.5339 28.3916 24.5158C28.2127 24.3372 28.0349 24.1603 27.861 23.9828C27.3508 23.4628 26.9352 22.8431 26.5326 22.2437C26.5079 22.2065 26.4826 22.1701 26.4579 22.1329C26.3343 22.0424 26.2099 21.9527 26.0862 21.8616C26.1086 21.8943 26.1326 21.9262 26.155 21.959C26.2388 22.0815 26.3218 22.2054 26.4051 22.3296C26.8112 22.935 27.231 23.5607 27.7512 24.0906C27.9257 24.268 28.104 24.4457 28.283 24.624C29.296 25.6332 30.3431 26.6767 30.9452 27.9666C31.3039 28.7345 31.5636 29.5852 31.757 30.4232C31.8073 30.4137 31.8568 30.4015 31.9059 30.386ZM31.0159 30.5224C30.9413 29.9998 30.8296 29.4882 30.6559 28.9976C30.1973 27.6999 29.0343 26.454 28.1394 25.6367C27.8149 25.3401 27.479 25.059 27.1541 24.7866C26.4702 24.2124 25.8237 23.671 25.2486 22.9843C24.2721 21.8199 23.4243 20.7434 22.9204 19.4674C22.8363 19.3987 22.7557 19.3331 22.6797 19.2697C22.6887 19.2957 22.6956 19.3196 22.7049 19.3456C23.206 20.7235 24.1 21.8534 25.1309 23.0834C25.7146 23.7797 26.3964 24.3513 27.0556 24.9045C27.3786 25.1758 27.7132 25.4559 28.0357 25.75C28.917 26.5554 30.0624 27.7813 30.511 29.0486C30.6805 29.5276 30.7891 30.0291 30.8624 30.5415C30.9144 30.5351 30.9662 30.5285 31.0159 30.5224ZM21.7285 22.8018C22.0481 22.8645 22.3788 22.9295 22.7064 22.9399C22.8223 22.9435 22.9202 22.9312 23.0012 22.9013C23.0921 22.8677 23.1597 22.8138 23.2048 22.7393C23.4134 22.3925 23.03 21.7237 22.8246 21.3645L22.8062 21.3334C22.3583 20.5502 21.7825 19.8566 21.2249 19.1864C21.0195 18.9389 20.814 18.6918 20.6135 18.439C19.9935 17.6574 19.6449 16.7578 19.4834 15.5212C19.4538 15.2954 19.4323 15.0664 19.4086 14.8386C19.3469 14.7456 19.2854 14.6517 19.2222 14.5571C19.2546 14.8856 19.2886 15.2151 19.3314 15.5407C19.4965 16.8062 19.8546 17.7298 20.4932 18.5348C20.6943 18.7878 20.9004 19.0364 21.1062 19.2846C21.6597 19.9498 22.2318 20.6383 22.6729 21.4098L22.6905 21.4407C22.8538 21.7252 23.235 22.3903 23.0729 22.6599C23.0179 22.7497 22.8967 22.7921 22.7118 22.7865C22.3961 22.7758 22.0723 22.7123 21.7585 22.6505C21.6168 22.6231 21.4761 22.5952 21.3361 22.5721C21.2876 22.5642 21.2387 22.5577 21.1894 22.5503C21.2589 22.6132 21.3303 22.6769 21.4019 22.7416C21.5108 22.7606 21.6189 22.7804 21.7285 22.8018Z" fill="#E8D1C1"/>
<path d="M6.58267 7.49767C5.95514 7.12789 5.59512 6.45645 5.60457 5.97893C3.42022 8.43416 3.53203 13.2965 3.53203 13.2965C4.67657 16.2436 7.40117 22.0971 15.4055 24.1244C14.8285 23.2629 14.2176 22.2675 13.64 21.23C8.80668 18.5993 6.87647 14.3818 5.96011 12.024C5.96011 12.024 5.90741 9.73005 6.58267 7.49767Z" fill="url(#paint1_linear_975_3020)"/>
<path d="M6.58267 7.49767C5.95514 7.12789 5.59512 6.45645 5.60457 5.97893C3.42022 8.43416 3.53203 13.2965 3.53203 13.2965L5.96011 12.024C5.96011 12.024 5.90741 9.73005 6.58267 7.49767Z" fill="url(#paint2_linear_975_3020)"/>
<path d="M16.797 4.53437C15.807 4.89694 9.94474 7.04646 8.38942 7.61657C7.66464 7.88203 7.04966 7.77331 6.58267 7.49751C5.90772 9.72996 5.96049 12.0236 5.96049 12.0236C6.87655 14.3814 8.80715 18.5986 13.6404 21.2296C11.8045 17.9275 10.312 14.1902 11.3579 12.9083C12.292 11.763 15.2306 10.183 17.0196 9.28748L19.0393 6.0131L16.797 4.53437Z" fill="#59616E"/>
<path d="M16.9426 4.48046C16.9426 4.48046 16.8896 4.49972 16.7969 4.53413L19.0389 6.01279L17.0193 9.28717C17.1237 9.23489 17.2262 9.18399 17.3224 9.1365C17.7447 8.90051 18.1633 8.67566 18.5581 8.46959L21.7833 4.71422C21.7833 4.71422 18.0292 4.3779 16.9426 4.48046Z" fill="url(#paint3_linear_975_3020)"/>
<path d="M16.7969 4.53413L19.0389 6.01279L21.7833 4.71422C21.7833 4.71422 18.0292 4.3779 16.9426 4.48046C16.9426 4.48046 16.8895 4.50002 16.7969 4.53413Z" fill="url(#paint4_linear_975_3020)"/>
<path d="M13.5479 28.4475C14.2274 27.0814 15.146 25.3632 15.6472 24.969C16.1879 24.5428 23.2786 19.5944 24.0846 18.5996C24.7885 17.7303 31.6872 7.11502 33.4202 4.44507C33.755 3.92914 34.2564 4.10282 34.4183 4.19929L34.4369 4.21055C34.6133 4.31618 35.0841 4.59778 35.3311 4.74566C35.5866 4.89795 35.581 5.26227 35.3104 5.75046C33.6352 8.7783 27.5128 19.8121 26.8173 20.6702C26.0119 21.6649 19.7666 26.9328 19.403 27.5173C19.2106 27.8265 19.0186 28.7814 18.8797 29.6124C18.7834 30.2193 18.444 30.9629 17.626 30.8575C16.8088 30.7522 15.0441 30.5252 14.3596 30.4375C13.6746 30.349 13.0011 29.7057 13.5479 28.4475Z" fill="url(#paint5_linear_975_3020)"/>
<path opacity="0.3" d="M16.0022 30.6478C16.1366 30.1308 16.2944 29.6189 16.497 29.1254C16.8468 28.2745 17.3787 27.4882 18.1705 26.652C19.1011 25.6684 19.8477 24.9749 20.5911 24.4049C20.973 24.1114 21.529 23.7373 21.9409 23.8753C21.9457 23.8766 21.9504 23.8785 21.9552 23.8801C22.1488 23.9509 22.2861 24.1282 22.3633 24.4066C22.3906 24.505 22.4099 24.6056 22.4264 24.7076C22.3796 24.7494 22.3336 24.7904 22.2877 24.8308C22.2715 24.7 22.2492 24.5716 22.215 24.4476C22.1517 24.2199 22.0463 24.0771 21.9015 24.0245C21.8982 24.0228 21.8948 24.0218 21.8916 24.0207C21.5098 23.8927 20.8892 24.3703 20.6845 24.5264C19.9485 25.0919 19.207 25.7795 18.2821 26.7571C17.5039 27.5798 16.9816 28.3505 16.6394 29.1837C16.4421 29.6635 16.2881 30.1625 16.1562 30.6677C16.1052 30.6613 16.0537 30.6547 16.0022 30.6478ZM16.8211 30.7533C17.0254 29.5339 17.3908 28.3348 18.2697 27.4622C18.9471 26.7898 19.7309 26.4291 20.5335 26.4039C20.4698 26.4621 20.407 26.52 20.3472 26.5752C19.6504 26.6469 18.9722 26.9822 18.3783 27.5714C17.5323 28.4122 17.1744 29.58 16.9737 30.7736C16.9238 30.7669 16.8733 30.7603 16.8211 30.7533ZM28.4486 17.197L28.459 17.1382C28.6027 16.2323 28.9247 15.349 29.236 14.4947C29.3449 14.196 29.4532 13.8988 29.5535 13.6014C30.038 12.1675 30.3152 10.6891 30.399 9.08885C30.4551 9.00342 30.5108 8.91777 30.5662 8.83317C30.4996 10.5495 30.2155 12.125 29.6993 13.6509C29.5983 13.9491 29.4894 14.2478 29.3805 14.5477C29.0718 15.3949 28.7524 16.2715 28.6105 17.1626L28.6006 17.2232C28.5763 17.3679 28.5383 17.597 28.5743 17.7609C28.5419 17.8174 28.5078 17.8765 28.4757 17.9316C28.3613 17.7282 28.4133 17.4075 28.4486 17.197ZM14.1332 30.386C14.3287 29.5391 14.591 28.6792 14.9544 27.9014C15.5675 26.5875 16.625 25.5339 17.6474 24.5158C17.8264 24.3372 18.0042 24.1603 18.178 23.9828C18.6882 23.4628 19.1038 22.8431 19.5064 22.2437C19.5312 22.2065 19.5565 22.1701 19.5812 22.1329C19.7048 22.0424 19.8292 21.9527 19.9529 21.8616C19.9305 21.8943 19.9065 21.9262 19.8841 21.959C19.8003 22.0815 19.7172 22.2054 19.6339 22.3296C19.2279 22.935 18.8081 23.5607 18.2878 24.0906C18.1133 24.268 17.9351 24.4457 17.7561 24.624C16.7431 25.6332 15.6959 26.6767 15.0939 27.9666C14.7352 28.7345 14.4754 29.5852 14.282 30.4232C14.2317 30.4137 14.1822 30.4015 14.1332 30.386ZM24.3106 22.8018C23.991 22.8645 23.6602 22.9295 23.3327 22.9399C23.2168 22.9435 23.1188 22.9312 23.0379 22.9013C22.947 22.8677 22.8794 22.8138 22.8342 22.7393C22.6257 22.3925 23.009 21.7237 23.2144 21.3645L23.2329 21.3334C23.6808 20.5502 24.2566 19.8566 24.8141 19.1864C25.0196 18.9389 25.2251 18.6918 25.4255 18.439C26.0456 17.6574 26.3942 16.7578 26.5556 15.5212C26.5853 15.2954 26.6067 15.0664 26.6304 14.8386C26.6922 14.7456 26.7537 14.6517 26.8168 14.5571C26.7845 14.8856 26.7504 15.2151 26.7077 15.5407C26.5426 16.8062 26.1845 17.7298 25.5458 18.5348C25.3447 18.7878 25.1387 19.0364 24.9328 19.2846C24.3794 19.9498 23.8073 20.6383 23.3661 21.4098L23.3486 21.4407C23.1853 21.7252 22.8041 22.3903 22.9662 22.66C23.0212 22.7497 23.1424 22.7921 23.3273 22.7865C23.6429 22.7758 23.9668 22.7123 24.2805 22.6505C24.4223 22.6231 24.5629 22.5952 24.7029 22.5721C24.7515 22.5642 24.8004 22.5577 24.8497 22.5503C24.7802 22.6132 24.7087 22.6769 24.6372 22.7416C24.5283 22.7606 24.4201 22.7804 24.3106 22.8018Z" fill="#E8D1C1"/>
<path d="M39.4564 7.49767C40.0839 7.12789 40.4439 6.45645 40.4345 5.97893C42.6188 8.43416 42.507 13.2965 42.507 13.2965C41.3625 16.2436 38.6379 22.0971 30.6335 24.1244C31.2105 23.2629 31.8214 22.2675 32.399 21.23C37.2324 18.5993 39.1626 14.3818 40.079 12.024C40.079 12.024 40.1316 9.73005 39.4564 7.49767Z" fill="url(#paint6_linear_975_3020)"/>
<path d="M39.4564 7.49767C40.0839 7.12789 40.4439 6.45645 40.4345 5.97893C42.6188 8.43416 42.507 13.2965 42.507 13.2965L40.079 12.024C40.079 12.024 40.1316 9.73005 39.4564 7.49767Z" fill="url(#paint7_linear_975_3020)"/>
<path d="M29.242 4.53437C30.2321 4.89694 36.0943 7.04646 37.6496 7.61657C38.3744 7.88203 38.9894 7.77331 39.4564 7.49751C40.1313 9.72996 40.0786 12.0236 40.0786 12.0236C39.1625 14.3814 37.2319 18.5986 32.3987 21.2296C34.2346 17.9275 35.727 14.1902 34.6812 12.9083C33.7471 11.763 30.8085 10.183 29.0194 9.28748L26.9997 6.0131L29.242 4.53437Z" fill="#59616E"/>
<path d="M29.0965 4.48046C29.0965 4.48046 29.1494 4.49972 29.2421 4.53413L27.0001 6.01279L29.0198 9.28717C28.9153 9.23489 28.8128 9.184 28.7166 9.1365C28.2944 8.90051 27.8758 8.67566 27.481 8.46959L24.2558 4.71422C24.2558 4.71422 28.0099 4.3779 29.0965 4.48046Z" fill="url(#paint8_linear_975_3020)"/>
<path d="M29.2421 4.53413L27.0001 6.01279L24.2558 4.71422C24.2558 4.71422 28.0099 4.3779 29.0965 4.48046C29.0965 4.48046 29.1495 4.50002 29.2421 4.53413Z" fill="url(#paint9_linear_975_3020)"/>
<defs>
<linearGradient id="paint0_linear_975_3020" x1="12.7249" y1="2.96398" x2="30.1685" y2="31.4911" gradientUnits="userSpaceOnUse">
<stop stop-color="#A0592B"/>
<stop offset="0.3333" stop-color="#A35B2C"/>
<stop offset="0.5859" stop-color="#AD602E"/>
<stop offset="0.8112" stop-color="#BD6933"/>
<stop offset="1" stop-color="#D17538"/>
</linearGradient>
<linearGradient id="paint1_linear_975_3020" x1="5.47281" y1="15.5562" x2="18.8014" y2="14.2195" gradientUnits="userSpaceOnUse">
<stop stop-color="#F0EAFF"/>
<stop offset="1" stop-color="#AFABBA"/>
</linearGradient>
<linearGradient id="paint2_linear_975_3020" x1="2.25982" y1="6.76633" x2="6.076" y2="11.5127" gradientUnits="userSpaceOnUse">
<stop stop-color="#F0EAFF"/>
<stop offset="1" stop-color="#AFABBA"/>
</linearGradient>
<linearGradient id="paint3_linear_975_3020" x1="19.1855" y1="4.80423" x2="17.0244" y2="8.51888" gradientUnits="userSpaceOnUse">
<stop stop-color="#F0EAFF"/>
<stop offset="1" stop-color="#AFABBA"/>
</linearGradient>
<linearGradient id="paint4_linear_975_3020" x1="18.5011" y1="2.19782" x2="19.5724" y2="5.49241" gradientUnits="userSpaceOnUse">
<stop stop-color="#F0EAFF"/>
<stop offset="1" stop-color="#AFABBA"/>
</linearGradient>
<linearGradient id="paint5_linear_975_3020" x1="33.3142" y1="2.96398" x2="15.8706" y2="31.4911" gradientUnits="userSpaceOnUse">
<stop stop-color="#A0592B"/>
<stop offset="0.3333" stop-color="#A35B2C"/>
<stop offset="0.5859" stop-color="#AD602E"/>
<stop offset="0.8112" stop-color="#BD6933"/>
<stop offset="1" stop-color="#D17538"/>
</linearGradient>
<linearGradient id="paint6_linear_975_3020" x1="40.5662" y1="15.5562" x2="27.2376" y2="14.2195" gradientUnits="userSpaceOnUse">
<stop stop-color="#F0EAFF"/>
<stop offset="1" stop-color="#AFABBA"/>
</linearGradient>
<linearGradient id="paint7_linear_975_3020" x1="43.7792" y1="6.76633" x2="39.9631" y2="11.5127" gradientUnits="userSpaceOnUse">
<stop stop-color="#F0EAFF"/>
<stop offset="1" stop-color="#AFABBA"/>
</linearGradient>
<linearGradient id="paint8_linear_975_3020" x1="26.8536" y1="4.80423" x2="29.0147" y2="8.51889" gradientUnits="userSpaceOnUse">
<stop stop-color="#F0EAFF"/>
<stop offset="1" stop-color="#AFABBA"/>
</linearGradient>
<linearGradient id="paint9_linear_975_3020" x1="27.5379" y1="2.19783" x2="26.4667" y2="5.49241" gradientUnits="userSpaceOnUse">
<stop stop-color="#F0EAFF"/>
<stop offset="1" stop-color="#AFABBA"/>
</linearGradient>
</defs>
</svg>
