<svg width="428" height="145" viewBox="0 0 428 145" fill="none" xmlns="http://www.w3.org/2000/svg">
<path d="M523.277 146.453C521.907 146.336 520.54 146.215 519.175 146.094C511.297 145.397 503.496 144.707 495.725 144.91C454.64 145.99 413.57 145.145 372.537 144.301C371.663 144.283 370.789 144.265 369.916 144.247C327.998 143.386 286.118 142.569 244.226 143.839C191.291 145.446 138.273 144.849 85.3033 141.871C57.8595 140.329 30.4032 140.782 2.89435 141.511C-1.47156 141.626 -5.83923 141.749 -10.2084 141.872C-33.351 142.522 -56.5353 143.173 -79.723 142.795C-84.7009 142.714 -88.6012 141.91 -90.9263 139.149C-93.2325 136.41 -93.588 132.216 -92.8979 126.543C-92.5418 123.616 -89.527 122.039 -86.9246 122.96C-65.5127 130.535 -43.3461 131.159 -20.8846 131.164C-16.8811 131.165 -12.8762 131.161 -8.87036 131.157C4.15857 131.144 17.1983 131.132 30.2331 131.289L33.6367 131.329C64.175 131.69 94.7261 132.051 125.271 132.748C135.411 132.98 145.544 133.274 155.671 133.582C155.728 133.584 155.786 133.575 155.84 133.555L156.016 133.491C156.296 133.39 156.341 133.013 156.093 132.848C156.039 132.813 155.977 132.792 155.912 132.788C142.993 132.082 130.153 131.421 117.481 131.261C101.576 131.059 85.6092 130.1 69.6801 129.095C68.5953 129.026 67.5106 128.958 66.4262 128.889C51.5759 127.949 36.7644 127.012 22.0178 126.647L22.0549 125.147L22.0176 126.646C13.3544 126.431 4.66949 126.549 -4.05005 126.668L-4.12311 126.669C-12.8087 126.788 -21.5287 126.907 -30.2382 126.694C-47.7103 126.266 -65.2191 124.498 -82.5719 118.664L-82.0939 117.242L-82.5721 118.664C-100.072 112.778 -109.041 94.3694 -104.19 74.0685C-103.057 69.3258 -101.204 65.7724 -98.5667 63.3583C-95.9099 60.926 -92.6009 59.7811 -88.8242 59.5985C-84.4008 59.3834 -79.9638 59.1128 -75.516 58.8416C-59.6903 57.8766 -43.7269 56.9032 -27.7261 58.3898C-26.7591 58.4795 -25.7991 58.5824 -24.8419 58.6851C-19.6428 59.2425 -14.5264 59.7912 -8.76447 58.1624C-8.43823 58.0702 -8.27765 57.9243 -8.19739 57.8137C-8.11255 57.6968 -8.07025 57.5547 -8.07776 57.3995C-8.09167 57.1128 -8.29205 56.6961 -8.93469 56.5245C-19.9261 53.5898 -30.89 53.3739 -41.8816 53.1574C-43.0131 53.1351 -44.1448 53.1128 -45.277 53.0876C-57.3369 52.8185 -69.4131 52.209 -81.0812 47.4201C-82.7607 46.7308 -83.7957 45.0872 -83.7957 43.326V14.5077C-83.7957 12.0282 -81.7901 10.0168 -79.3123 10.0061C-14.3654 9.72707 50.5094 7.74694 115.358 5.7676C247.536 1.73322 379.607 -2.29789 511.963 8.0851C514.459 8.2809 516.262 10.4555 516.154 12.8848C515.904 18.5347 516.213 24.2169 516.53 30.0385C516.584 31.0327 516.638 32.0311 516.69 33.034C517.043 39.8736 517.275 46.8883 516.45 54.0329C516.198 56.2193 514.369 57.8301 512.219 57.9062C498.286 58.3992 484.416 57.988 470.658 57.5802C467.733 57.4935 464.813 57.407 461.899 57.3293C445.25 56.8855 428.754 56.7295 412.332 58.4538C411.67 58.5233 411.153 59.0817 411.14 59.7699C411.126 60.5175 411.718 61.1365 412.467 61.1557C444.421 61.9774 476.374 62.799 508.328 63.6171C510.134 63.6633 511.596 64.7289 512.188 66.1651C512.811 67.6777 512.405 69.491 510.746 70.5706C507.466 72.7062 503.947 73.2838 500.335 73.2807C497.081 73.2778 493.832 73.2509 490.589 73.2241C478.913 73.1276 467.312 73.0317 455.779 74.0554C453.803 74.2312 451.808 74.2847 449.842 74.3202C449.486 74.3266 449.131 74.3324 448.777 74.3382C447.163 74.3647 445.573 74.3907 443.983 74.4713C440.117 74.6674 436.414 75.1821 432.916 76.7306C432.59 76.8748 432.48 77.0342 432.442 77.1141C432.4 77.2001 432.386 77.3072 432.424 77.4374C432.496 77.6892 432.806 78.092 433.538 78.1241C445.593 78.653 457.642 78.5843 469.712 78.5155C471.61 78.5047 473.508 78.4938 475.406 78.4853C489.365 78.4228 503.345 78.4859 517.281 79.6111C519.161 79.763 520.767 81.087 521.221 82.9509C522.865 89.6916 523.656 96.5918 524.431 103.339C524.679 105.505 524.926 107.655 525.198 109.778C526.329 118.588 527.908 127.057 531.81 134.928L531.81 134.929C533.245 137.829 533.138 140.91 531.494 143.222C529.848 145.535 526.892 146.761 523.277 146.453ZM523.277 146.453L523.404 144.958L523.276 146.453C523.277 146.453 523.277 146.453 523.277 146.453Z" fill="#F29E5A" stroke="#8E460B" stroke-width="3"/>
<path d="M126.719 22.4604C64.4461 26.8902 1.79294 18.2761 -60.2623 30.2537C2.08798 28.4158 64.6285 33.1801 126.719 22.4604Z" fill="#8E460B"/>
<path d="M475.798 127.368C434.749 119.142 392.534 116.808 350.641 112.566C362.369 119.516 452.609 130.437 475.798 127.368Z" fill="#8E460B"/>
<path d="M-40.4687 103.399C5.22918 106.713 50.9271 110.026 96.625 113.34C51.0164 104.01 5.33791 99.4649 -40.4687 103.399Z" fill="#8E460B"/>
<path d="M321 47.6273C348.221 50.1656 375.408 47.9975 402.605 46.3827C375.4 43.4028 348.198 44.7589 321 47.6273Z" fill="#8E460B"/>
<path d="M106 64.7238C88.3207 66.4886 70.6641 64.9812 53 63.8584C70.6692 61.7865 88.3359 62.7294 106 64.7238Z" fill="#8E460B"/>
<path d="M384.187 22.5114C392.165 24.6303 400.042 26.6601 409.852 23.475C400.243 16.3865 392.091 20.9411 384.187 22.5114Z" fill="#8E460B"/>
</svg>
