<svg width="184" height="140" viewBox="0 0 184 140" fill="none" xmlns="http://www.w3.org/2000/svg">
<path d="M135.658 120.358C132.533 114.074 128.307 106.17 126.002 104.357C123.514 102.397 90.8969 79.6338 87.1893 75.0576C83.9514 71.0587 52.2172 22.2286 44.2457 9.94683C42.7056 7.57358 40.3991 8.3725 39.6545 8.81626L39.5688 8.86803C38.7573 9.35392 36.5917 10.6493 35.4555 11.3295C34.2802 12.0301 34.3059 13.7059 35.5505 15.9516C43.2567 29.8797 71.4197 80.6351 74.6187 84.5827C78.3236 89.158 107.052 113.39 108.725 116.079C109.61 117.502 110.493 121.894 111.132 125.717C111.575 128.508 113.136 131.929 116.899 131.444C120.658 130.96 128.776 129.915 131.924 129.512C135.076 129.105 138.173 126.146 135.658 120.358Z" fill="url(#paint0_linear_960_1602)"/>
<path opacity="0.3" d="M49.0795 40.2858C48.9327 39.7234 48.7788 39.1547 48.634 38.6015C48.4649 37.9584 48.2979 37.3129 48.1272 36.6649C47.9896 36.1503 47.8481 35.6449 47.7082 35.1444C47.0795 32.8806 46.4841 30.7443 46.3697 28.3604C46.243 25.7651 45.6711 23.3714 44.4543 20.355C44.1854 19.6851 43.9504 19.0038 43.7153 18.3224C43.3487 17.2571 42.9718 16.1538 42.457 15.1382C41.6132 13.4585 40.453 12.1394 39.224 10.7434C38.9646 10.4482 38.7022 10.1479 38.4402 9.84612C38.3833 9.77959 38.334 9.70633 38.2791 9.64326C38.4994 9.51032 38.7016 9.39011 38.892 9.27555C38.9223 9.31005 38.9494 9.35103 38.977 9.3848C39.2377 9.68616 39.4981 9.98305 39.7547 10.2775C41.0147 11.7111 42.2056 13.0633 43.0882 14.8223C43.6235 15.8815 44.0094 17.0062 44.3832 18.094C44.6143 18.7626 44.8454 19.437 45.109 20.0937C46.3572 23.1845 46.9454 25.6485 47.0737 28.3248C47.1863 30.6336 47.771 32.7332 48.3908 34.9537C48.532 35.4604 48.6728 35.9685 48.8104 36.4831C48.9815 37.1297 49.1512 37.7759 49.3168 38.4211C49.7035 39.9036 50.1151 41.4191 50.5567 42.9265C50.06 42.0403 49.5687 41.1613 49.0795 40.2858ZM50.5043 36.3684C48.3722 29.2428 47.5862 21.6001 46.95 14.1089C46.6682 13.6729 46.3971 13.2574 46.1371 12.8551C46.7948 20.8019 47.5492 28.9621 49.8251 36.5733L49.8753 36.7523C50.3691 38.4422 50.9482 40.0217 51.8557 40.1564C51.9969 40.1766 52.1314 40.1614 52.2657 40.1139C52.5079 40.0249 52.7386 39.82 52.9487 39.4954C53.5335 38.5926 53.6401 37.2159 53.7243 36.1088C53.7419 35.879 53.7575 35.6619 53.7774 35.4621C54.0148 33.105 54.074 30.7075 54.1003 28.4712C54.1137 27.3494 54.1041 26.2259 54.0983 25.099C53.8597 24.7317 53.6264 24.3718 53.3905 24.0111C53.4039 25.4976 53.4102 26.9836 53.3922 28.4617C53.3654 30.6833 53.3086 33.0609 53.0733 35.3936C53.051 35.5972 53.0356 35.8187 53.0165 36.0539C52.9392 37.0809 52.8428 38.3592 52.3551 39.1077C52.2001 39.3417 52.0548 39.4683 51.9568 39.4567C51.741 39.4253 51.2695 39.0029 50.5557 36.5536L50.5043 36.3684ZM120.607 130.963C119.667 125.354 117.986 119.838 113.943 115.824C110.827 112.731 107.222 111.072 103.529 110.956C103.822 111.224 104.112 111.49 104.386 111.744C107.592 112.074 110.712 113.616 113.444 116.326C117.335 120.194 118.982 125.566 119.905 131.056C120.134 131.026 120.367 130.996 120.607 130.963ZM67.1199 68.6043L67.0723 68.3337C66.4114 64.1666 64.93 60.1034 63.4978 56.1736C62.997 54.7997 62.4988 53.4325 62.0374 52.0648C59.8089 45.4686 58.5335 38.6678 58.1482 31.3069C57.8901 30.9139 57.6337 30.5199 57.379 30.1307C57.6856 38.0259 58.9923 45.2733 61.3668 52.2924C61.8316 53.664 62.3324 55.0378 62.8331 56.4175C64.2535 60.3148 65.7227 64.3469 66.3755 68.4459L66.4209 68.7248C66.5326 69.3906 66.7075 70.4442 66.542 71.1984C66.6908 71.4581 66.8479 71.7302 66.9954 71.9837C67.5217 71.0477 67.2825 69.5725 67.1199 68.6043ZM132.971 129.274C132.072 125.378 130.865 121.422 129.193 117.844C126.373 111.8 121.508 106.954 116.805 102.271C115.982 101.449 115.164 100.635 114.365 99.8188C112.018 97.4272 110.106 94.5763 108.254 91.8191C108.14 91.6479 108.024 91.4805 107.91 91.3093C107.342 90.8932 106.769 90.4805 106.2 90.0614C106.304 90.2121 106.414 90.3589 106.517 90.5096C106.902 91.073 107.284 91.6428 107.668 92.2143C109.535 94.9993 111.466 97.8773 113.86 100.315C114.662 101.131 115.482 101.948 116.306 102.768C120.966 107.411 125.782 112.211 128.552 118.144C130.202 121.677 131.397 125.59 132.286 129.445C132.518 129.401 132.745 129.345 132.971 129.274ZM128.877 129.901C128.534 127.497 128.02 125.144 127.221 122.887C125.112 116.918 119.762 111.187 115.645 107.427C114.152 106.063 112.607 104.77 111.113 103.516C107.967 100.875 104.993 98.3847 102.347 95.2258C97.8555 89.8695 93.9555 84.918 91.6378 79.0482C91.2507 78.732 90.8802 78.4305 90.5304 78.139C90.5717 78.2585 90.6038 78.3682 90.6465 78.488C92.9514 84.8262 97.0639 90.0237 101.806 95.6816C104.491 98.8847 107.627 101.514 110.66 104.059C112.145 105.307 113.685 106.595 115.168 107.948C119.222 111.653 124.491 117.292 126.554 123.122C127.334 125.325 127.834 127.632 128.171 129.989C128.41 129.959 128.648 129.929 128.877 129.901ZM86.155 94.3862C87.6251 94.6746 89.1465 94.9739 90.6533 95.0215C91.1865 95.0384 91.6369 94.9818 92.0093 94.8442C92.4274 94.6895 92.7385 94.4417 92.9461 94.0988C93.9054 92.5037 92.142 89.4273 91.1972 87.7747L91.1124 87.6319C89.0519 84.029 86.4032 80.8385 83.8385 77.7555C82.8936 76.6173 81.9483 75.4804 81.0261 74.3175C78.1738 70.7222 76.5704 66.5839 75.8277 60.8958C75.6913 59.857 75.5927 58.8034 75.4836 57.7557C75.1996 57.328 74.9168 56.8961 74.6261 56.4607C74.7751 57.9718 74.9316 59.4878 75.1282 60.9853C75.8879 66.8069 77.5351 71.0551 80.4728 74.7583C81.3978 75.9219 82.3457 77.0654 83.2926 78.2071C85.8384 81.2674 88.47 84.4343 90.4994 87.9834L90.5801 88.1252C91.3313 89.4343 93.0847 92.4933 92.3391 93.7339C92.0863 94.1468 91.5286 94.3417 90.6782 94.3161C89.2261 94.2669 87.7365 93.9747 86.2931 93.6906C85.6412 93.5642 84.9941 93.4363 84.3501 93.3297C84.1268 93.2933 83.9018 93.2637 83.675 93.2294C83.9946 93.5187 84.3234 93.8119 84.6525 94.1096C85.1536 94.197 85.651 94.2878 86.155 94.3862Z" fill="#E8D1C1"/>
<path d="M16.4851 23.9882C13.5985 22.2872 11.9424 19.1986 11.9859 17.002C1.93789 28.2961 2.45223 50.6627 2.45223 50.6627C7.71711 64.2194 20.2502 91.1458 57.0703 100.471C54.4161 96.5082 51.6061 91.9294 48.949 87.157C26.7156 75.0555 17.8366 55.6553 13.6214 44.8094C13.6214 44.8094 13.379 34.2572 16.4851 23.9882Z" fill="url(#paint1_linear_960_1602)"/>
<path d="M16.4851 23.9882C13.5985 22.2872 11.9424 19.1986 11.9859 17.002C1.93789 28.2961 2.45224 50.6627 2.45224 50.6627L13.6214 44.8094C13.6214 44.8094 13.379 34.2572 16.4851 23.9882Z" fill="url(#paint2_linear_960_1602)"/>
<path d="M63.47 10.3561C58.9158 12.024 31.9495 21.9118 24.7951 24.5343C21.461 25.7554 18.6322 25.2553 16.484 23.9866C13.3792 34.2559 13.622 44.8067 13.622 44.8067C17.8359 55.6523 26.7166 75.0515 48.9496 87.1544C40.5045 71.9645 33.639 54.7728 38.4501 48.876C42.7469 43.6078 56.2645 36.3397 64.4941 32.2205L73.7846 17.1583L63.47 10.3561Z" fill="#59616E"/>
<path d="M64.1393 10.109C64.1393 10.109 63.8958 10.1976 63.4694 10.3559L73.7826 17.1578L64.4921 32.2199C64.9727 31.9794 65.4443 31.7453 65.8867 31.5268C67.829 30.4413 69.7546 29.407 71.5706 28.459L86.4067 11.1844C86.4067 11.1844 69.1379 9.63727 64.1393 10.109Z" fill="url(#paint3_linear_960_1602)"/>
<path d="M63.4694 10.3559L73.7826 17.1578L86.4067 11.1844C86.4067 11.1844 69.1379 9.63727 64.1393 10.109C64.1393 10.109 63.8954 10.199 63.4694 10.3559Z" fill="url(#paint4_linear_960_1602)"/>
<path d="M48.5227 120.358C51.648 114.074 55.8736 106.17 58.1791 104.357C60.6665 102.397 93.2838 79.6338 96.9913 75.0576C100.229 71.0587 131.963 22.2286 139.935 9.94683C141.475 7.57358 143.782 8.3725 144.526 8.81626L144.612 8.86803C145.423 9.35392 147.589 10.6493 148.725 11.3295C149.9 12.0301 149.875 13.7059 148.63 15.9516C140.924 29.8797 112.761 80.6351 109.562 84.5827C105.857 89.1581 77.1284 113.39 75.456 116.079C74.5711 117.502 73.6878 121.894 73.049 125.717C72.6056 128.508 71.0444 131.929 67.2819 131.444C63.5225 130.96 55.4048 129.915 52.2562 129.512C49.1051 129.105 46.0073 126.146 48.5227 120.358Z" fill="url(#paint5_linear_960_1602)"/>
<path opacity="0.3" d="M59.807 130.478C60.4255 128.1 61.1515 125.745 62.0832 123.475C63.6925 119.561 66.139 115.944 69.7812 112.097C74.0623 107.573 77.4965 104.383 80.9159 101.761C82.673 100.411 85.2304 98.6895 87.1253 99.3247C87.1473 99.3305 87.1688 99.3394 87.1912 99.3466C88.0814 99.6722 88.7131 100.488 89.0681 101.768C89.1938 102.221 89.2826 102.684 89.3585 103.153C89.1434 103.346 88.9316 103.534 88.7205 103.72C88.6458 103.118 88.5432 102.527 88.386 101.957C88.095 100.91 87.6099 100.253 86.9442 100.011C86.929 100.003 86.9131 99.9985 86.8986 99.9936C85.1422 99.4048 82.2872 101.601 81.3455 102.32C77.9601 104.921 74.5495 108.084 70.2947 112.581C66.715 116.365 64.3122 119.91 62.7384 123.743C61.8306 125.95 61.1225 128.245 60.5158 130.569C60.2808 130.54 60.0441 130.51 59.807 130.478ZM63.5739 130.963C64.5137 125.354 66.1949 119.838 70.2377 115.824C73.3536 112.731 76.9591 111.072 80.6514 110.956C80.3582 111.224 80.0692 111.49 79.7943 111.744C76.5887 112.074 73.4691 113.616 70.7371 116.326C66.8456 120.194 65.1991 125.566 64.2759 131.056C64.0464 131.026 63.8141 130.996 63.5739 130.963ZM117.061 68.6043L117.108 68.3337C117.769 64.1666 119.251 60.1034 120.683 56.1736C121.184 54.7997 121.682 53.4325 122.143 52.0648C124.372 45.4686 125.647 38.6678 126.033 31.3069C126.291 30.9139 126.547 30.5199 126.802 30.1307C126.495 38.0259 125.188 45.2733 122.814 52.2924C122.349 53.664 121.848 55.0378 121.348 56.4175C119.927 60.3148 118.458 64.3469 117.805 68.4459L117.76 68.7248C117.648 69.3906 117.473 70.4442 117.639 71.1984C117.49 71.4581 117.333 71.7303 117.185 71.9837C116.659 71.0477 116.898 69.5725 117.061 68.6043ZM51.2097 129.274C52.1089 125.378 53.3158 121.422 54.9873 117.845C57.8077 111.8 62.6722 106.954 67.3753 102.271C68.1986 101.449 69.0164 100.635 69.816 99.8188C72.163 97.4272 74.0747 94.5763 75.9266 91.8191C76.0405 91.6479 76.1568 91.4805 76.2706 91.3093C76.8391 90.8932 77.4113 90.4805 77.9804 90.0614C77.8772 90.2121 77.767 90.3589 77.6638 90.5096C77.2784 91.073 76.8963 91.6428 76.5131 92.2144C74.6452 94.9993 72.7144 97.8773 70.3212 100.315C69.5184 101.131 68.6986 101.948 67.875 102.768C63.2152 107.411 58.3983 112.211 55.6289 118.144C53.9789 121.677 52.784 125.59 51.8944 129.445C51.663 129.401 51.4354 129.345 51.2097 129.274ZM98.0256 94.3862C96.5556 94.6746 95.0341 94.9739 93.5274 95.0215C92.9941 95.0384 92.5438 94.9818 92.1713 94.8442C91.7533 94.6895 91.4422 94.4417 91.2345 94.0988C90.2752 92.5037 92.0387 89.4273 92.9835 87.7748L93.0683 87.6319C95.1288 84.029 97.7775 80.8385 100.342 77.7555C101.287 76.6173 102.232 75.4804 103.155 74.3175C106.007 70.7222 107.61 66.5839 108.353 60.8958C108.489 59.857 108.588 58.8034 108.697 57.7557C108.981 57.328 109.264 56.8961 109.555 56.4607C109.406 57.9718 109.249 59.4878 109.053 60.9853C108.293 66.8069 106.646 71.0551 103.708 74.7583C102.783 75.9219 101.835 77.0654 100.888 78.2071C98.3423 81.2674 95.7107 84.4343 93.6812 87.9834L93.6005 88.1252C92.8494 89.4343 91.096 92.4933 91.8416 93.7339C92.0944 94.1468 92.6521 94.3417 93.5025 94.3161C94.9546 94.2669 96.4442 93.9748 97.8876 93.6906C98.5395 93.5642 99.1866 93.4363 99.8306 93.3297C100.054 93.2933 100.279 93.2638 100.506 93.2294C100.186 93.5187 99.8573 93.8119 99.5282 94.1096C99.027 94.197 98.5297 94.2878 98.0256 94.3862Z" fill="#E8D1C1"/>
<path d="M167.696 23.9882C170.582 22.2872 172.238 19.1986 172.195 17.002C182.243 28.2961 181.728 50.6627 181.728 50.6627C176.464 64.2194 163.93 91.1458 127.11 100.471C129.765 96.5082 132.575 91.9294 135.232 87.157C157.465 75.0555 166.344 55.6553 170.559 44.8094C170.559 44.8094 170.802 34.2572 167.696 23.9882Z" fill="url(#paint6_linear_960_1602)"/>
<path d="M167.696 23.9882C170.582 22.2872 172.238 19.1986 172.195 17.002C182.243 28.2961 181.728 50.6627 181.728 50.6627L170.559 44.8094C170.559 44.8094 170.802 34.2572 167.696 23.9882Z" fill="url(#paint7_linear_960_1602)"/>
<path d="M120.711 10.3561C125.265 12.024 152.231 21.9118 159.386 24.5343C162.72 25.7554 165.548 25.2553 167.697 23.9866C170.801 34.2559 170.559 44.8067 170.559 44.8067C166.345 55.6523 157.464 75.0515 135.231 87.1544C143.676 71.9645 150.542 54.7728 145.731 48.876C141.434 43.6078 127.916 36.3397 119.687 32.2205L110.396 17.1583L120.711 10.3561Z" fill="#59616E"/>
<path d="M120.041 10.109C120.041 10.109 120.285 10.1976 120.711 10.3559L110.398 17.1578L119.689 32.2199C119.208 31.9794 118.736 31.7453 118.294 31.5268C116.352 30.4413 114.426 29.407 112.61 28.459L97.7739 11.1844C97.7739 11.1844 115.043 9.63727 120.041 10.109Z" fill="url(#paint8_linear_960_1602)"/>
<path d="M120.711 10.3559L110.398 17.1578L97.7739 11.1844C97.7739 11.1844 115.043 9.63727 120.041 10.109C120.041 10.109 120.285 10.199 120.711 10.3559Z" fill="url(#paint9_linear_960_1602)"/>
<defs>
<linearGradient id="paint0_linear_960_1602" x1="44.7334" y1="3.13382" x2="124.974" y2="134.359" gradientUnits="userSpaceOnUse">
<stop stop-color="#A0592B"/>
<stop offset="0.3333" stop-color="#A35B2C"/>
<stop offset="0.5859" stop-color="#AD602E"/>
<stop offset="0.8112" stop-color="#BD6933"/>
<stop offset="1" stop-color="#D17538"/>
</linearGradient>
<linearGradient id="paint1_linear_960_1602" x1="11.3798" y1="61.0573" x2="72.6915" y2="54.9088" gradientUnits="userSpaceOnUse">
<stop stop-color="#F0EAFF"/>
<stop offset="1" stop-color="#AFABBA"/>
</linearGradient>
<linearGradient id="paint2_linear_960_1602" x1="-3.39996" y1="20.6241" x2="14.1545" y2="42.4572" gradientUnits="userSpaceOnUse">
<stop stop-color="#F0EAFF"/>
<stop offset="1" stop-color="#AFABBA"/>
</linearGradient>
<linearGradient id="paint3_linear_960_1602" x1="74.4568" y1="11.5984" x2="64.5158" y2="28.6858" gradientUnits="userSpaceOnUse">
<stop stop-color="#F0EAFF"/>
<stop offset="1" stop-color="#AFABBA"/>
</linearGradient>
<linearGradient id="paint4_linear_960_1602" x1="71.3087" y1="-0.391079" x2="76.2364" y2="14.764" gradientUnits="userSpaceOnUse">
<stop stop-color="#F0EAFF"/>
<stop offset="1" stop-color="#AFABBA"/>
</linearGradient>
<linearGradient id="paint5_linear_960_1602" x1="139.447" y1="3.13382" x2="59.207" y2="134.359" gradientUnits="userSpaceOnUse">
<stop stop-color="#A0592B"/>
<stop offset="0.3333" stop-color="#A35B2C"/>
<stop offset="0.5859" stop-color="#AD602E"/>
<stop offset="0.8112" stop-color="#BD6933"/>
<stop offset="1" stop-color="#D17538"/>
</linearGradient>
<linearGradient id="paint6_linear_960_1602" x1="172.801" y1="61.0573" x2="111.489" y2="54.9088" gradientUnits="userSpaceOnUse">
<stop stop-color="#F0EAFF"/>
<stop offset="1" stop-color="#AFABBA"/>
</linearGradient>
<linearGradient id="paint7_linear_960_1602" x1="187.581" y1="20.6241" x2="170.026" y2="42.4572" gradientUnits="userSpaceOnUse">
<stop stop-color="#F0EAFF"/>
<stop offset="1" stop-color="#AFABBA"/>
</linearGradient>
<linearGradient id="paint8_linear_960_1602" x1="109.724" y1="11.5984" x2="119.665" y2="28.6858" gradientUnits="userSpaceOnUse">
<stop stop-color="#F0EAFF"/>
<stop offset="1" stop-color="#AFABBA"/>
</linearGradient>
<linearGradient id="paint9_linear_960_1602" x1="112.872" y1="-0.391079" x2="107.944" y2="14.764" gradientUnits="userSpaceOnUse">
<stop stop-color="#F0EAFF"/>
<stop offset="1" stop-color="#AFABBA"/>
</linearGradient>
</defs>
</svg>
