<svg width="428" height="150" viewBox="0 0 428 150" fill="none" xmlns="http://www.w3.org/2000/svg">
<g clip-path="url(#clip0_960_1637)">
<path d="M503.277 148.453C501.907 148.336 500.54 148.215 499.175 148.094C491.297 147.397 483.496 146.707 475.725 146.91C434.64 147.99 393.57 147.145 352.537 146.301C351.663 146.283 350.789 146.265 349.916 146.247C307.998 145.386 266.118 144.569 224.226 145.839C171.291 147.446 118.273 146.849 65.3033 143.871C37.8595 142.329 10.4032 142.782 -17.1057 143.511C-21.4716 143.626 -25.8392 143.749 -30.2084 143.872C-53.351 144.522 -76.5353 145.173 -99.723 144.795C-104.701 144.714 -108.601 143.91 -110.926 141.149C-113.232 138.41 -113.588 134.216 -112.898 128.543C-112.542 125.616 -109.527 124.039 -106.925 124.96C-85.5127 132.535 -63.3461 133.159 -40.8846 133.164C-36.8811 133.165 -32.8762 133.161 -28.8704 133.157C-15.8414 133.144 -2.8017 133.132 10.2331 133.289L13.6367 133.329C44.175 133.69 74.7261 134.051 105.271 134.748C115.411 134.98 125.544 135.274 135.671 135.582C135.728 135.584 135.786 135.575 135.84 135.555L136.016 135.491C136.296 135.39 136.341 135.013 136.093 134.848C136.039 134.813 135.977 134.792 135.912 134.788C122.993 134.082 110.153 133.421 97.481 133.261C81.5763 133.059 65.6092 132.1 49.6801 131.095C48.5953 131.026 47.5106 130.958 46.4262 130.889C31.5759 129.949 16.7644 129.012 2.01782 128.647L2.05493 127.147L2.01764 128.646C-6.64557 128.431 -15.3305 128.549 -24.05 128.668L-24.1231 128.669C-32.8087 128.788 -41.5287 128.907 -50.2382 128.694C-67.7103 128.266 -85.2191 126.498 -102.572 120.664L-102.094 119.242L-102.572 120.664C-120.072 114.778 -129.041 96.3694 -124.19 76.0685C-123.057 71.3258 -121.204 67.7724 -118.567 65.3583C-115.91 62.926 -112.601 61.7811 -108.824 61.5985C-104.401 61.3834 -99.9638 61.1128 -95.516 60.8416C-79.6903 59.8766 -63.7269 58.9032 -47.7261 60.3898C-46.7591 60.4795 -45.7991 60.5824 -44.8419 60.6851C-39.6428 61.2425 -34.5264 61.7912 -28.7645 60.1624C-28.4382 60.0702 -28.2776 59.9243 -28.1974 59.8137C-28.1125 59.6968 -28.0703 59.5547 -28.0778 59.3995C-28.0917 59.1128 -28.2921 58.6961 -28.9347 58.5245C-39.9261 55.5898 -50.89 55.3739 -61.8816 55.1574C-63.0131 55.1351 -64.1448 55.1128 -65.277 55.0876C-77.3369 54.8185 -89.4131 54.209 -101.081 49.4201C-102.761 48.7308 -103.796 47.0872 -103.796 45.326V16.5077C-103.796 14.0282 -101.79 12.0168 -99.3123 12.0061C-34.3654 11.7271 30.5094 9.74694 95.3584 7.7676C227.536 3.73322 359.607 -0.297893 491.963 10.0851C494.459 10.2809 496.262 12.4555 496.154 14.8848C495.904 20.5347 496.213 26.2169 496.53 32.0385C496.584 33.0327 496.638 34.0311 496.69 35.034C497.043 41.8736 497.275 48.8883 496.45 56.0329C496.198 58.2193 494.369 59.8301 492.219 59.9062C478.286 60.3992 464.416 59.988 450.658 59.5802C447.733 59.4935 444.813 59.407 441.899 59.3293C425.25 58.8855 408.754 58.7295 392.332 60.4538C391.67 60.5233 391.153 61.0817 391.14 61.7699C391.126 62.5175 391.718 63.1365 392.467 63.1557C424.421 63.9774 456.374 64.799 488.328 65.6171C490.134 65.6633 491.596 66.7289 492.188 68.1651C492.811 69.6777 492.405 71.491 490.746 72.5706C487.466 74.7062 483.947 75.2838 480.335 75.2807C477.081 75.2778 473.832 75.2509 470.589 75.2241C458.913 75.1276 447.312 75.0317 435.779 76.0554C433.803 76.2312 431.808 76.2847 429.842 76.3202C429.486 76.3266 429.131 76.3324 428.777 76.3382C427.163 76.3647 425.573 76.3907 423.983 76.4713C420.117 76.6674 416.414 77.1821 412.916 78.7306C412.59 78.8748 412.48 79.0342 412.442 79.1141C412.4 79.2001 412.386 79.3072 412.424 79.4374C412.496 79.6892 412.806 80.092 413.538 80.1241C425.593 80.653 437.642 80.5843 449.712 80.5155C451.61 80.5047 453.508 80.4938 455.406 80.4853C469.365 80.4228 483.345 80.4859 497.281 81.6111C499.161 81.763 500.767 83.087 501.221 84.9509C502.865 91.6916 503.656 98.5918 504.431 105.339C504.679 107.505 504.926 109.655 505.198 111.778C506.329 120.588 507.908 129.057 511.81 136.928L511.81 136.929C513.245 139.829 513.138 142.91 511.494 145.222C509.848 147.535 506.892 148.761 503.277 148.453ZM503.277 148.453L503.404 146.958L503.276 148.453C503.277 148.453 503.277 148.453 503.277 148.453Z" fill="#B366FF" stroke="#5900B2" stroke-width="3"/>
<path d="M106.719 23.4604C44.4461 27.8902 -18.2071 19.2761 -80.2623 31.2537C-17.912 29.4158 44.6285 34.1801 106.719 23.4604Z" fill="#5900B2"/>
<path d="M455.798 128.367C414.749 120.142 372.534 117.808 330.641 113.566C342.369 120.516 432.609 131.437 455.798 128.367Z" fill="#5900B2"/>
<path d="M-60.4687 104.399C-14.7708 107.713 30.9271 111.026 76.625 114.34C31.0164 105.01 -14.6621 100.465 -60.4687 104.399Z" fill="#5900B2"/>
<path d="M301 48.6273C328.221 51.1656 355.408 48.9975 382.605 47.3827C355.4 44.4028 328.198 45.7589 301 48.6273Z" fill="#5900B2"/>
<path d="M86 65.7238C68.3207 67.4886 50.6641 65.9812 33 64.8584C50.6692 62.7865 68.3359 63.7294 86 65.7238Z" fill="#5900B2"/>
<path d="M364.187 23.5114C372.165 25.6303 380.042 27.6601 389.852 24.475C380.243 17.3865 372.091 21.9411 364.187 23.5114Z" fill="#5900B2"/>
</g>
<defs>
<clipPath id="clip0_960_1637">
<rect width="428" height="150" fill="white"/>
</clipPath>
</defs>
</svg>
