<svg width="28" height="28" viewBox="0 0 28 28" fill="none" xmlns="http://www.w3.org/2000/svg">
<path fill-rule="evenodd" clip-rule="evenodd" d="M0.971406 25.3295C0.903019 25.1346 0.834064 24.9381 0.658863 24.7931C0.875841 24.4156 1.14477 24.139 1.41154 23.8647L1.50178 23.7717C3.67 21.5312 5.91281 19.362 8.15552 17.1929C9.14147 16.2393 10.1274 15.2857 11.1069 14.3261C11.0471 14.2523 10.9856 14.1795 10.9217 14.108C9.90236 15.1058 8.87971 16.1009 7.85673 17.0962C5.34257 19.5425 2.82641 21.9908 0.352413 24.4868C0.234134 24.4398 0.140229 24.3138 0.0348588 24.1724L0 24.1257C0.491487 23.5489 1.06488 23.0586 1.63769 22.5689C1.84423 22.3924 2.05068 22.2158 2.25319 22.0353C3.41894 20.9961 4.52101 19.8952 5.62315 18.7941C6.04858 18.3691 6.47402 17.9441 6.90314 17.5226C7.71305 16.7271 8.5281 15.9364 9.34314 15.1458C9.78956 14.7127 10.236 14.2796 10.6815 13.8457C10.238 13.3726 9.76706 12.9277 9.29631 12.483C8.97841 12.1827 8.66059 11.8824 8.35135 11.5736C6.86953 10.0941 5.33917 8.65876 3.80976 7.22425L3.51339 6.94636C2.85635 6.33003 2.18324 5.7302 1.51008 5.13037C1.18985 4.84504 0.869603 4.5597 0.55108 4.27253C0.517325 4.24208 0.482218 4.21283 0.446885 4.18335C0.332061 4.0876 0.214906 3.98992 0.134517 3.84441C0.16254 3.79962 0.189955 3.75379 0.217525 3.70763C0.280829 3.60171 0.344959 3.49442 0.419223 3.39514C0.541502 3.23192 0.670524 3.07407 0.800473 2.91502C0.855922 2.84715 0.911535 2.77904 0.96687 2.71029C1.97434 3.53873 2.90734 4.44064 3.83892 5.34118C4.75004 6.22194 5.65979 7.10133 6.6365 7.90941C4.92743 6.02002 3.20822 4.1432 1.20092 2.54563C1.28456 2.32841 1.47831 2.34628 1.67325 2.36423C1.82817 2.37849 1.98385 2.39283 2.08562 2.28931C2.14705 2.35421 2.20536 2.42031 2.26285 2.48554C2.38568 2.62488 2.50477 2.75989 2.6425 2.87007C3.68292 3.70227 4.68433 4.57381 5.62755 5.51738C6.2525 6.14237 6.89989 6.74661 7.547 7.35053L7.90268 7.68281C7.92448 7.70324 7.94604 7.726 7.96812 7.74932C8.06511 7.8518 8.17205 7.96486 8.35199 7.93241C8.32256 7.73786 8.17741 7.60934 8.03745 7.48546C7.99989 7.45221 7.9627 7.41927 7.92822 7.38546C6.16015 5.65392 4.39179 3.92229 2.61126 2.20285C2.30996 1.91175 2.34762 1.72417 2.59695 1.6172C3.18289 1.366 3.68552 1.01954 4.09316 0.577475C5.41713 1.62401 6.62126 2.75837 7.82031 3.888C8.19724 4.24312 8.57366 4.59776 8.95316 4.94904C9.33443 5.302 9.71966 5.65095 10.1049 5.99983C10.7387 6.57385 11.3725 7.14788 11.9884 7.73986C12.5725 8.30123 13.1382 8.88047 13.704 9.45979C13.9335 9.6948 14.1631 9.92989 14.3938 10.1637C15.5983 8.95891 16.8262 7.77784 18.0539 6.59701L18.6149 6.05728C19.2894 5.40801 19.9285 4.72813 20.5677 4.04825C21.284 3.28625 22.0004 2.52416 22.7667 1.8051C23.4228 1.18932 24.0709 0.581401 24.7994 0L25.1679 0.451435C23.3342 2.10854 21.6255 3.85835 19.9166 5.60824L19.7151 5.81473C20.9202 4.93967 21.9826 3.91019 23.0414 2.88417C23.7783 2.17016 24.5134 1.45775 25.2938 0.800148C25.4196 0.802151 25.4487 0.874746 25.4766 0.944216C25.4889 0.974744 25.5009 1.00463 25.5207 1.02771C26.0396 1.6313 26.0263 1.64917 25.5575 2.27785C25.5146 2.33538 25.4679 2.39796 25.4175 2.46663C25.102 2.89587 24.7623 3.30908 24.4174 3.72871C23.9505 4.29657 23.474 4.87621 23.0349 5.52323C23.3968 5.43926 23.5723 5.24623 23.7351 5.06699L23.7375 5.06434C24.0579 4.71194 24.3631 4.34657 24.6634 3.97854C25.1059 3.4364 25.547 2.90132 26.4038 2.86638C25.6052 3.61324 24.8883 4.34352 24.3129 5.19175C24.8132 4.84696 25.2419 4.42245 25.6759 3.99265C26.0317 3.64025 26.391 3.2844 26.7963 2.96614C26.9414 3.1586 27.1251 3.31109 27.3089 3.46357C27.5192 3.63816 27.7296 3.81276 27.8819 4.04713C28.0316 4.27742 28.0751 4.43334 27.7947 4.70481C26.6006 5.86097 25.4293 7.04003 24.2584 8.21878L24.2203 8.25724C23.7541 8.72663 23.2918 9.19977 22.8296 9.67284C22.1146 10.4046 21.3996 11.1364 20.6701 11.8543C19.9027 12.6094 19.13 13.3597 18.3529 14.1056C19.2577 15.0022 20.1638 15.8977 21.0714 16.7916C21.6141 17.3262 22.1542 17.8635 22.6943 18.4008C23.8054 19.5059 24.9164 20.6111 26.0507 21.6938C26.1438 21.7827 26.2363 21.8723 26.3287 21.9619C26.694 22.3162 27.0595 22.6706 27.47 22.9836C28.0964 23.4616 28.1326 23.7337 27.7388 24.1974C27.6217 24.3353 27.5075 24.4762 27.3992 24.6215C27.376 24.6527 27.3545 24.6855 27.3329 24.7186C27.2628 24.826 27.1907 24.9364 27.0473 25.0053C26.6064 24.6492 26.2095 24.2428 25.8052 23.8288C25.2884 23.2995 24.7594 22.7578 24.1109 22.2932C24.1897 22.7183 24.4564 22.9534 24.7045 23.1722C24.7977 23.2544 24.8883 23.3343 24.9654 23.4211C25.4457 23.9624 25.9837 24.4632 26.5214 24.9553C26.6882 25.1079 26.795 25.283 26.9014 25.4575C26.9626 25.5579 27.0237 25.6582 27.0961 25.7538C27.2169 25.9133 27.1296 26.0078 27.0439 26.1005C27.0318 26.1137 27.0197 26.1268 27.0082 26.1401C26.8863 26.281 26.7375 26.3935 26.5885 26.5062C26.4257 26.6294 26.2627 26.7527 26.134 26.9136C25.9549 27.1372 25.6083 27.0615 25.396 26.8594C25.1937 26.6668 24.9626 26.5121 24.7339 26.3589C24.4634 26.1777 24.1962 25.9988 23.9839 25.7621C22.7161 24.349 21.3536 23.0237 19.9916 21.6989C19.5519 21.2711 19.1122 20.8435 18.6758 20.413L17.9872 19.7333C17.0793 18.837 16.1713 17.9407 15.2588 17.0488C15.1862 17.1186 15.1137 17.1885 15.0413 17.2585C15.6015 17.7964 16.1597 18.3363 16.7127 18.8813C17.2416 19.4024 17.7749 19.9197 18.3082 20.4369C19.4599 21.554 20.6116 22.671 21.7183 23.8269C21.9151 24.0324 22.1147 24.2364 22.3145 24.4406C23.0923 25.2353 23.8739 26.034 24.5075 26.944C24.6044 27.0832 24.7493 27.1981 24.8986 27.3164C24.9688 27.3721 25.0401 27.4286 25.1077 27.4887C25.1016 27.5027 25.0967 27.5188 25.0917 27.5352C25.0806 27.5716 25.0689 27.6099 25.0421 27.6321C24.7634 27.8624 24.6516 28.0028 24.5438 28C24.4323 27.9971 24.3251 27.8414 24.042 27.4742C23.5918 26.8901 23.0536 26.3809 22.5158 25.872C22.3308 25.697 22.1459 25.522 21.9645 25.3441C20.9299 24.3285 19.8919 23.3162 18.854 22.3039C17.808 21.2836 16.762 20.2634 15.7193 19.2399C15.2835 18.812 14.8535 18.3782 14.4235 17.9446C14.4091 17.93 14.3946 17.9155 14.3802 17.9009C12.943 19.3051 11.5304 20.7327 10.118 22.16C9.80309 22.4783 9.4882 22.7964 9.17304 23.1144C7.75309 24.5469 6.25381 25.8888 4.73151 27.24C4.3287 26.9015 4.02043 26.5133 3.78043 26.1832C3.99598 24.8996 4.89602 24.0754 5.80746 23.2408C6.15247 22.9249 6.49912 22.6074 6.81089 22.263C6.50135 22.1786 6.35773 22.3234 6.24949 22.4326C6.23298 22.4492 6.2173 22.465 6.20198 22.4791C6.05756 22.6116 5.91205 22.7429 5.76656 22.8742C5.15037 23.4306 4.53436 23.9867 4.00213 24.6309C3.59974 25.1179 3.12036 25.5594 2.63415 25.9732C2.09611 26.4312 1.33344 26.1981 1.04579 25.5271C1.01822 25.4628 0.994852 25.3962 0.971406 25.3295ZM11.5446 13.8966C11.6157 13.8266 11.6868 13.7567 11.7578 13.6866C11.6886 13.6217 11.6194 13.5568 11.5501 13.492C11.4793 13.5615 11.4084 13.631 11.3376 13.7005C11.406 13.7634 11.4734 13.8269 11.5392 13.8913C11.541 13.8931 11.5428 13.8948 11.5446 13.8966ZM11.0732 13.4638C11.146 13.3927 11.2187 13.3217 11.2915 13.2507C11.2517 13.2137 11.212 13.1766 11.1722 13.1397C10.8168 12.8093 10.4753 12.4645 10.177 12.0838L11.3964 13.1479C11.4642 13.0816 11.532 13.0153 11.5997 12.9488C10.6114 12.0545 9.61945 11.1642 8.62735 10.2736C6.40795 8.28144 4.18795 6.28876 2.00741 4.25097C2.05022 4.48991 2.20731 4.64913 2.36232 4.80625C2.39602 4.84039 2.42961 4.87444 2.46191 4.90922C3.58281 6.11545 4.80971 7.21367 6.0367 8.31205C6.25166 8.50443 6.46662 8.69682 6.68101 8.88984C7.24415 9.39689 7.80485 9.90665 8.36561 10.4164C8.59482 10.6248 8.82403 10.8332 9.05343 11.0414C9.10602 11.089 9.18728 11.1369 9.20352 11.1884C9.4873 12.0852 10.1855 12.6919 10.8758 13.2918C10.9418 13.3491 11.0078 13.4064 11.0732 13.4638ZM11.8616 13.186C11.7955 13.251 11.7294 13.316 11.6633 13.3809L11.8779 13.5681C11.9425 13.5043 12.0072 13.4404 12.0717 13.3766C12.0017 13.313 11.9317 13.2495 11.8616 13.186ZM14.8057 10.578C15.1723 10.1846 15.5362 9.78863 15.9001 9.39272C16.2859 8.97294 16.6717 8.55315 17.0606 8.13633C17.1141 8.07912 17.1529 8.00941 17.1388 7.89395C16.3148 8.74201 15.4843 9.58382 14.649 10.4211C14.6981 10.4704 14.7473 10.5197 14.7965 10.5688C14.7996 10.5719 14.8027 10.575 14.8057 10.578Z" fill="white"/>
</svg>
