<svg width="60" height="60" viewBox="0 0 60 60" fill="none" xmlns="http://www.w3.org/2000/svg">
<path d="M45.0506 2.3888C35.5786 -2.49083 21.2949 0.89343 14.9676 6.42892C7.0111 13.4073 7.35209 23.1141 10.2316 31.0369C13.9825 41.2947 22.9241 50.3981 33.6085 58.5832C34.7182 58.4423 34.9511 58.6642 34.442 59.2391C34.7451 59.4752 35.0482 59.7113 35.3513 59.9474C35.0727 59.5789 35.6229 59.2007 35.9575 59.6064C35.806 59.5015 35.6923 59.3703 35.5786 59.2653C35.9196 59.2391 36.2227 59.1866 36.5258 59.0817C35.9348 58.0669 34.6834 56.6539 36.5258 57.709C36.799 57.1448 38.3223 56.8741 38.6855 56.5369C43.9519 46.7777 47.286 36.52 49.7109 26.3934C51.3779 19.2839 55.7351 7.81936 45.0885 2.36257L45.0506 2.3888ZM46.0736 24.6095C43.4215 35.9166 38.7234 46.7777 33.76 57.77C24.0607 49.5586 15.5738 40.4027 12.126 30.486C8.94339 21.2515 8.9055 5.22213 27.8495 2.04775C37.3594 0.447442 45.619 3.80547 47.4755 9.49837C49.1047 14.4305 47.2103 19.7036 46.0736 24.6095Z" fill="#3CCDBE"/>
<path d="M46.0736 24.6095C43.4215 35.9166 38.7234 46.7777 33.76 57.77C24.0607 49.5586 15.5738 40.4027 12.126 30.486C8.94339 21.2515 8.9055 5.22213 27.8495 2.04775C37.3594 0.447442 45.619 3.80547 47.4755 9.49837C49.1047 14.4305 47.2103 19.7036 46.0736 24.6095Z" fill="#3CCDBE"/>
<path d="M36.5258 59.0817C36.2227 59.1866 35.9196 59.2391 35.5786 59.2653C35.6118 59.2959 35.6449 59.3288 35.679 59.3625C35.7618 59.4445 35.8501 59.532 35.9575 59.6064L36.7395 59.003C36.6683 59.0287 36.5971 59.0548 36.5258 59.0817Z" fill="#1A655E"/>
<path fill-rule="evenodd" clip-rule="evenodd" d="M14.9676 6.42892C21.2949 0.89343 35.5786 -2.49083 45.0506 2.3888L45.0885 2.36257C54.6236 7.24968 52.1242 16.9556 50.3008 24.0362C50.0883 24.8615 49.8849 25.6512 49.7109 26.3934C47.286 36.52 43.9519 46.7777 38.6855 56.5369L36.7395 59.003C36.6683 59.0287 36.5971 59.0548 36.5258 59.0817C36.2227 59.1866 35.9196 59.2391 35.5786 59.2653C35.6118 59.2959 35.6449 59.3288 35.679 59.3625C35.7618 59.4445 35.8501 59.532 35.9575 59.6064L35.3513 59.9474L34.442 59.2391L33.6085 58.5832C22.9241 50.3981 13.9825 41.2947 10.2316 31.0369C7.35209 23.1141 7.0111 13.4073 14.9676 6.42892ZM33.76 57.77C38.7233 46.7777 43.4215 35.9166 46.0736 24.6095C46.2578 23.8146 46.4619 23.01 46.6676 22.1989C47.7317 18.0037 48.8407 13.6313 47.4755 9.49837C45.619 3.80547 37.3594 0.447442 27.8495 2.04775C8.9055 5.22213 8.94339 21.2515 12.126 30.486C15.5738 40.4027 24.0607 49.5586 33.76 57.77Z" fill="#1A655E"/>
<path d="M38.0035 13.5385C34.1768 10.2329 27.5085 11.6496 23.947 14.3518C19.7036 17.5786 18.529 22.0385 19.211 26.0261C20.1203 31.4305 24.3259 36.3626 28.5315 41.111C28.8346 41.4521 29.8196 41.0323 29.5544 40.7175C29.5544 40.6913 29.5165 40.6388 29.4787 40.6126C30.2743 40.9274 31.9414 40.665 32.4339 39.9305C35.6923 35.3919 38.9128 30.7484 40.2767 25.8425C41.3376 21.986 41.868 16.8965 37.9656 13.5123L38.0035 13.5385ZM37.5109 24.8194C36.2227 30.0138 32.737 34.8934 29.2892 39.6944C29.1756 39.878 29.0998 40.0092 29.0998 40.1403C25.5004 35.7854 21.9768 31.2731 21.1054 26.3672C20.6886 23.9274 20.916 21.4089 22.0905 19.074C23.2271 16.8178 25.5762 13.932 29.6302 13.1712C33.7221 12.4366 36.1848 14.7715 37.132 16.7916C38.3066 19.3363 38.155 22.2221 37.473 24.8194H37.5109Z" fill="#1A655E"/>
<path d="M22.3558 34.6834C22.0906 34.4998 21.5981 34.6309 21.3329 34.7621C20.8782 35.0245 20.3857 35.2606 19.931 35.5229C19.4763 35.7853 19.0596 36.1001 18.6049 36.3887L15.9906 38.0939C15.9906 38.0939 15.6875 38.3563 15.877 38.4612C16.0664 38.5661 16.3695 38.4874 16.5211 38.4087C17.4683 37.884 18.4534 37.3856 19.4006 36.8609C19.8552 36.5985 20.3478 36.3624 20.8024 36.1001C21.2571 35.8377 21.7117 35.5229 22.1285 35.2343C22.3558 35.0769 22.621 34.8146 22.3179 34.6309L22.3558 34.6834Z" fill="#1A655E"/>
<path d="M25.1215 39.2227C24.6669 39.2227 24.4396 39.3801 24.1364 39.5637C23.8333 39.7211 23.5302 39.8785 23.2271 40.0359C22.6209 40.3507 22.0905 40.6918 21.5222 41.0328C20.4234 41.7149 19.3247 42.4233 18.2259 43.1054C18.0744 43.1841 18.2259 43.289 18.3775 43.2103C19.5899 42.6069 20.8402 42.0298 22.0526 41.4264C22.6588 41.1378 23.265 40.8492 23.8333 40.5344C24.0986 40.377 24.3638 40.2196 24.629 40.0622C24.8942 39.9048 25.3489 39.7211 25.3868 39.4588C25.3868 39.3538 25.3489 39.2227 25.1215 39.2227Z" fill="#1A655E"/>
<path d="M28.8724 44.207C27.66 44.7579 26.4097 45.335 25.1973 45.886C23.947 46.4631 22.8103 47.0928 21.6358 47.6962C21.3327 47.8536 21.56 48.1421 21.9389 48.011C23.1892 47.5125 24.4774 47.0665 25.6898 46.5156L29.3271 44.8891C29.6302 44.7579 29.9333 44.5218 29.7817 44.2857C29.6302 44.0758 29.1376 44.0758 28.8724 44.207Z" fill="#1A655E"/>
<path d="M34.2845 47.9381C34.0193 47.7545 33.4889 47.8594 33.2615 48.0168C31.064 49.381 28.8665 50.719 26.669 52.0832C26.4796 52.2144 26.2901 52.4242 26.5175 52.5816C26.7448 52.739 27.1616 52.6341 27.351 52.5292C29.5864 51.2174 31.8597 49.8795 34.0951 48.5678C34.3224 48.4366 34.5876 48.148 34.2845 47.9644V47.9381Z" fill="#1A655E"/>
<path d="M36.8289 52.2349C36.5637 52.1299 36.2227 52.2349 35.9953 52.3398C35.5786 52.5759 35.1618 52.7858 34.7829 53.0481C34.404 53.3105 33.9873 53.5728 33.6084 53.8352L31.2972 55.3568C31.2972 55.3568 31.0699 55.5667 31.1836 55.6454C31.3351 55.7241 31.5624 55.6716 31.6761 55.6191C32.5475 55.1469 33.3811 54.6747 34.2525 54.2287C34.6693 53.9926 35.086 53.7827 35.5028 53.5466C35.9574 53.2843 36.3742 53.0219 36.791 52.7333C36.9804 52.6022 37.0183 52.366 36.791 52.2611L36.8289 52.2349Z" fill="#1A655E"/>
</svg>
