<svg width="60" height="60" viewBox="0 0 60 60" fill="none" xmlns="http://www.w3.org/2000/svg">
<path d="M40.7559 5.1875C38.5083 5.37868 36.2408 5.82722 34.0597 6.45224C32.7232 6.8346 31.4132 7.31256 30.1365 7.88611C29.6511 7.39344 29.0593 7.11402 28.3477 7.1655C27.47 7.23167 26.6455 7.65816 25.8542 8.04787C24.2649 8.82731 22.536 10.07 22.6557 12.2465C22.6557 12.3127 22.6757 12.3642 22.7023 12.4083C22.7156 12.548 22.7422 12.6804 22.7887 12.8201C22.7887 12.8348 22.802 12.8495 22.8087 12.8568C22.5759 13.151 22.3764 13.4083 22.3432 13.4083C22.2368 13.4083 22.137 13.401 22.0307 13.3863C22.0307 13.3863 22.0307 13.3936 22.0373 13.401C21.8578 13.3863 21.6782 13.3716 21.5053 13.3642C19.5969 13.276 17.6752 13.5039 15.8 13.9157C14.0113 14.3128 12.2691 14.9084 10.5734 15.6657C8.65836 16.5261 6.80978 17.5702 5.16734 18.9747C4.30954 19.71 3.47834 20.5188 2.71364 21.3718C2.25482 21.8865 1.8226 22.438 1.45687 23.0409C1.33053 23.3571 1.21084 23.6733 1.09779 23.9969C1.19089 24.2836 1.27733 24.5778 1.36378 24.8645C1.35048 24.8792 1.34383 24.9013 1.33053 24.916C1.11109 25.291 0.85841 25.7028 0.725418 26.1366C0.672222 26.3057 0.672222 26.4675 0.692171 26.6293C0.372991 28.394 1.26403 30.0853 1.8359 31.6662C2.50086 33.5045 3.05277 35.3942 3.61798 37.2693C4.78831 41.137 6.05173 44.968 7.36169 48.7843C7.70082 49.7843 8.0333 50.7844 8.37908 51.7771C8.70491 52.7183 9.07063 53.6447 9.58265 54.4757C9.6558 54.6007 9.76884 54.6301 9.87523 54.608C10.0082 54.7404 10.1479 54.8654 10.241 55.0492C10.4271 55.4021 10.5003 55.8213 10.6333 56.2036C10.6998 56.3875 10.8793 56.5051 11.0522 56.3948C11.6906 55.961 12.156 55.2992 12.688 54.7257C13.2599 54.108 13.9115 53.5712 14.5765 53.0786C15.9529 52.0638 17.4292 51.2182 18.9453 50.4976C22.0706 49.0123 25.382 47.9019 28.7467 47.3063C29.6644 47.1446 30.5687 47.0122 31.4996 47.0343C31.6991 47.0343 31.9053 47.049 32.1114 47.0563C32.7564 47.6666 33.6209 48.0049 34.472 47.9902C35.5758 47.9755 36.5799 47.2255 37.2515 46.2916C37.4843 45.9681 37.6838 45.6078 37.7968 45.218C40.317 43.6003 42.9702 42.2474 45.7098 41.137C48.4893 40.0194 51.342 39.1443 54.2345 38.4678C55.8703 38.0855 57.5128 37.7767 59.1685 37.5193C59.2882 37.5046 59.3813 37.3428 59.3747 37.2178C59.3481 36.6222 59.0355 36.1884 58.7563 35.7104C58.4304 35.1516 58.2176 34.5339 58.1179 33.8795C58.1179 33.8648 58.1112 33.8501 58.1046 33.8354C58.1312 33.8354 58.1644 33.8354 58.191 33.828C58.1445 33.6662 57.9184 33.2471 57.9051 33.2471C56.4156 29.6588 55.0857 25.9896 53.5895 22.4086C52.6918 20.2615 51.7343 18.1437 50.83 15.9966C49.919 13.8422 49.0279 11.673 48.1435 9.5038C47.6781 8.35671 47.2059 7.20962 46.7405 6.06252C46.6208 5.81987 46.5144 5.56986 46.4146 5.31986" fill="#8E460B"/>
<path d="M53.0507 35.2131C51.4387 35.5253 49.8463 35.9459 48.2737 36.4345C46.7141 36.9162 45.1808 37.4794 43.6671 38.0765C43.3394 38.2054 43.0052 38.3411 42.6776 38.4701C43.7588 37.9544 44.8728 37.4998 46.0195 37.1537C46.3668 37.0519 46.2161 36.4888 45.8688 36.5973C43.6278 37.2691 41.5309 38.3411 39.4995 39.515C39.4602 39.5286 39.4209 39.5489 39.375 39.5625C40.2596 39.0332 41.1639 38.5583 42.0879 38.1104C43.8506 37.2555 45.646 36.4616 47.5005 35.8442C49.3877 35.2131 51.3142 34.7382 53.2735 34.4057C54.5381 34.1886 57.1134 33.9443 57.1265 33.9375C57.133 33.9375 57.1462 33.9375 57.1527 33.9375C57.1527 33.9375 57.1527 33.9443 57.1527 33.9511C57.2641 34.2021 57.3755 34.4464 57.5 34.6907C55.9994 34.7857 54.525 34.9349 53.0441 35.2267L53.0507 35.2131Z" fill="#F29E5A"/>
<path d="M55.625 35.1875C55.5096 35.2093 55.3942 35.2311 55.2787 35.2602C54.458 35.4346 53.6436 35.609 52.8293 35.8052C51.1685 36.2049 49.5142 36.6701 47.8855 37.2296C46.9365 37.5567 46.0003 37.9201 45.0705 38.3125C45.0577 38.2616 45.0321 38.2108 45 38.1672C47.3597 37.2006 49.7578 36.3576 52.2201 35.7834C53.0922 35.5799 53.9707 35.3983 54.8491 35.2747C55.1056 35.2384 55.3621 35.2093 55.6186 35.1875H55.625Z" fill="#F29E5A"/>
<path d="M26.2054 8.66104C26.9005 8.28312 27.6339 7.87556 28.3929 7.72736C28.7436 7.66067 29.1135 7.66808 29.4452 7.82369C29.8406 8.00895 30.1276 8.38686 30.3635 8.78701C30.8737 9.654 31.1926 10.647 31.5625 11.5955C31.9834 12.6847 32.3788 13.7963 32.6658 14.9448C32.9592 16.1156 33.1314 17.3309 33.3482 18.5239C33.565 19.7244 33.7883 20.9248 34.0753 22.1104C34.2347 22.7774 34.426 23.4369 34.5918 24.0964C34.7577 24.7559 34.9235 25.4154 35.1275 26.0601C35.4273 27.0011 35.9056 27.8681 36.25 28.787C35.8546 28.535 35.4592 28.2979 35.0957 28.0015C34.5472 27.5495 34.0944 26.9493 33.5395 26.4972C33.4056 26.3861 33.1696 26.4973 33.1378 26.6899C32.9592 27.8904 33.2653 29.0241 33.4375 30.1875C33.0676 29.6762 32.8061 29.0463 32.5128 28.4906C32.0026 27.5347 31.5179 26.5417 31.1671 25.4895C30.4464 23.3553 29.8916 21.1175 29.477 18.8796C29.1008 16.8344 28.8839 14.7151 28.176 12.7811C27.9273 12.1068 27.6531 11.4324 27.3023 10.8248C26.9579 10.232 26.5051 9.61695 25.8801 9.42428C25.5804 9.33536 25.2806 9.35759 25 9.46874C25.3763 9.15752 25.7908 8.89075 26.199 8.66845L26.2054 8.66104Z" fill="#8E460B"/>
<path d="M23.799 10.7292C24.2115 10.3554 24.8134 10.0314 25.3951 10.2681C25.4762 10.2993 25.5506 10.3429 25.625 10.3865C24.9081 10.7915 24.2115 11.2339 23.5488 11.7198C23.4744 11.7759 23.4 11.8382 23.3256 11.8943C23.3188 11.9067 23.312 11.9192 23.2985 11.9254C23.2444 11.9628 23.1903 12.0127 23.1294 12.0625C23.0821 11.5641 23.4203 11.0656 23.799 10.723V10.7292Z" fill="#F29E5A"/>
<path d="M23.1804 13.5496C23.1804 13.5496 23.2267 13.4986 23.2466 13.4767C23.2598 13.4621 23.2731 13.4475 23.2863 13.4329C23.432 13.2726 23.5777 13.1049 23.7367 12.9664C23.836 12.8643 23.942 12.7696 24.0413 12.6675C24.803 11.9531 25.6242 11.3334 26.4852 10.7648C26.7037 11.0418 26.8825 11.3626 27.0349 11.6615C27.366 12.2957 27.6574 12.981 27.876 13.6735C28.4786 15.547 28.684 17.5445 29.0813 19.4763C29.5118 21.5539 30.0615 23.6534 30.79 25.629C31.1874 26.7152 31.704 27.7285 32.2669 28.72C32.7371 29.551 33.1279 30.4623 33.8829 31.0236C34.0551 31.1475 34.3266 30.9871 34.3068 30.7539C34.2207 29.5656 33.7902 28.3773 33.8299 27.1745C34.2472 27.5609 34.6313 27.991 35.075 28.3409C35.6711 28.8074 36.3532 29.1136 36.9559 29.5656C37.1612 29.726 37.4327 29.4635 37.3731 29.2157C37.0751 28.0566 36.4261 27.0724 36.0287 25.9644C35.5982 24.7688 35.2936 23.5076 34.969 22.2756C34.6445 21.0655 34.3929 19.8408 34.1544 18.6088C33.916 17.3549 33.7239 16.0792 33.3994 14.8472C33.0882 13.6516 32.651 12.4925 32.1874 11.3626C31.7835 10.3785 31.4391 9.34328 30.8562 8.46849C30.8496 8.45391 30.843 8.44662 30.8298 8.43204C33.8763 7.11985 37.1016 6.34711 40.3534 5.95345C42.3204 5.72018 44.294 5.83682 46.2676 5.88056C47.5856 9.08813 48.8903 12.303 50.2347 15.496C51.1354 17.632 52.0759 19.7387 52.9898 21.8674C53.8839 23.9669 54.7184 26.0956 55.5463 28.2242C56.1821 29.8572 56.8245 31.4901 57.5 33.1085C54.2813 33.3272 51.0891 33.9323 48.0028 34.9674C46.0623 35.6163 44.1881 36.4692 42.3403 37.395C40.572 38.2844 38.8368 39.2685 37.2341 40.4932C36.3598 41.1639 35.5386 41.9075 34.724 42.6583C34.7108 42.6656 34.7041 42.6802 34.6909 42.6875C34.6247 42.6802 34.5584 42.6656 34.4922 42.6583C33.9359 41.2587 33.2935 39.8882 32.7106 38.5031C31.6974 36.1047 30.7039 33.6917 29.7502 31.2642C27.9157 26.5913 26.2997 21.8237 24.4983 17.1362C24.1142 16.1448 23.7234 15.1607 23.3194 14.1765C23.2532 14.0599 23.1936 13.9432 23.1472 13.812C23.1141 13.7318 23.1141 13.6371 23.1737 13.5714L23.1804 13.5496Z" fill="#F29E5A"/>
<path d="M36.25 42.6875C35.7857 43.0465 35.3214 43.4567 35 43.9375C35.1071 43.5913 35.5214 43.2516 35.7857 43.0208C35.8857 42.9311 35.9929 42.8478 36.0929 42.7644C36.1429 42.7388 36.2 42.7131 36.25 42.6875Z" fill="#F29E5A"/>
<path d="M3.21557 21.8811C3.86594 21.1364 4.56941 20.4501 5.28615 19.793C6.81918 18.3912 8.58448 17.318 10.4161 16.4637C13.7277 14.9086 17.3247 13.9302 20.9416 13.9375C21.1341 13.9375 22.4547 14.069 22.5211 14.1566C22.5344 14.142 22.5476 14.1201 22.5609 14.1055C22.6074 14.2223 22.6538 14.3391 22.7069 14.4559C22.7534 14.5435 22.7932 14.6384 22.8396 14.7261C22.8529 14.7553 22.8595 14.7845 22.8595 14.821C24.0342 17.683 25.096 20.6107 26.1512 23.5312C27.89 28.3426 29.7217 33.1029 31.6993 37.8048C32.2369 39.0752 32.7943 40.3383 33.3385 41.6087C33.4779 41.93 33.6173 42.2512 33.75 42.5798C32.6483 42.441 31.5401 42.3315 30.4251 42.3169C28.1953 42.295 25.9256 42.5578 23.7289 43.0105C21.5853 43.4559 19.5148 44.1641 17.5105 45.1059C15.659 45.9821 13.8937 47.0626 12.3075 48.4352C11.6837 48.9755 11.1196 49.5523 10.5953 50.1875C9.98478 48.4133 9.56004 46.9604 8.96939 45.398C8.15974 43.2588 7.43637 41.0757 6.68645 38.9073C5.9498 36.7754 5.21315 34.6362 4.55614 32.475C3.92567 30.4015 3.33503 28.3061 2.67801 26.2399C2.42583 25.4295 2.15373 24.6264 1.875 23.8305C2.22673 23.1077 2.72447 22.4652 3.23548 21.8811H3.21557Z" fill="#F29E5A"/>
<path d="M8.46082 49.2589C8.34888 48.9459 8.23694 48.6255 8.125 48.3125C8.40485 49.0204 8.6847 49.7208 8.95056 50.4287C9.26539 51.2708 9.46828 52.165 9.93703 52.925C9.95802 53.0517 9.97901 53.1858 10 53.3125C9.35634 52.0308 8.94356 50.6076 8.45383 49.2589H8.46082Z" fill="#F29E5A"/>
<path d="M9.88319 52.0407C9.88319 52.0407 9.84991 52.0335 9.82995 52.0335C9.56372 51.4671 9.4173 50.8208 9.21098 50.2399C8.8782 49.2886 8.48553 48.3592 8.13278 47.4152C7.40733 45.4691 6.76174 43.494 6.11615 41.5117C4.83163 37.5832 3.56042 33.6548 2.32248 29.7119C2.14944 29.1673 1.9764 28.6299 1.78338 28.0926C1.69021 27.8457 1.59703 27.5988 1.50385 27.3592C1.41733 27.1486 1.30418 26.9308 1.25759 26.7057C1.23763 26.5749 1.25759 26.4805 1.31084 26.3644C1.39071 26.1756 1.49054 25.9868 1.59037 25.8125C2.28255 27.911 2.90152 30.0532 3.54045 32.1735C4.85159 36.5013 6.40234 40.742 7.90649 44.9899C8.51215 46.7036 9.77005 50.2036 9.77005 50.2108C9.90316 50.5086 10.0363 50.8063 10.1694 51.1113C10.4556 50.8353 11.6336 49.8042 11.9198 49.5428C13.4306 48.1341 15.161 47.0231 16.9647 46.1227C20.9248 44.1476 25.2309 43.2399 29.5703 43.131C30.9547 43.0947 32.3257 43.2254 33.6968 43.4069C33.6968 43.4069 33.7101 43.4069 33.7167 43.4069C33.73 43.4287 33.7433 43.4505 33.75 43.4722C32.9513 43.494 32.146 43.494 31.3473 43.5231C30.3889 43.5594 29.4305 43.661 28.4788 43.77C26.6352 43.9733 24.7916 44.2492 22.968 44.6486C21.1178 45.0552 19.2875 45.6071 17.5238 46.3623C15.8865 47.0666 14.369 48.0034 12.9115 49.0781C12.2526 49.5646 11.587 50.0584 10.988 50.6393C10.5621 51.0459 10.1561 51.5179 9.88319 52.0625V52.0407Z" fill="#F29E5A"/>
<path d="M28.75 44.5625C27.4615 44.6746 26.1797 44.9062 24.9244 45.2201C21.3844 46.1093 17.9175 47.5439 14.8159 49.681C13.9325 50.2862 13.0957 50.9737 12.292 51.706C11.7342 52.2216 11.1298 52.7147 10.625 53.3125C10.9239 52.7894 11.3024 52.3187 11.7009 51.8853C12.2854 51.2502 12.9164 50.6673 13.5672 50.1293C14.8823 49.0533 16.3169 48.1791 17.8179 47.4916C19.3455 46.7892 20.9262 46.2438 22.5135 45.7356C23.8551 45.3097 25.2233 44.9884 26.5981 44.7568C27.3088 44.6671 28.0194 44.5999 28.7367 44.5625H28.75Z" fill="#F29E5A"/>
<path d="M10.6381 52.6875C10.6381 52.6875 10.6316 52.6297 10.625 52.6008C10.6316 52.5863 10.6381 52.5647 10.6447 52.5502C10.8349 51.8638 11.3073 51.3074 11.7863 50.8378C12.3046 50.3248 12.8753 49.8913 13.4461 49.4577C14.8108 48.4389 16.2213 47.4996 17.75 46.806C19.2852 46.1124 20.8795 45.5921 22.5 45.1875C19.5477 46.0907 16.5953 47.2323 14.0694 49.1687C13.3149 49.7468 12.5932 50.3754 11.924 51.0618C11.4517 51.5459 10.9858 52.0806 10.6316 52.6875H10.6381Z" fill="#F29E5A"/>
<path d="M15.1728 52.0449C14.3801 52.5269 13.6145 53.055 12.9099 53.6624C12.3543 54.1378 11.8936 54.7518 11.3042 55.1875C11.2839 55.1347 11.2703 55.0753 11.25 55.0224C11.2636 54.9894 11.2703 54.9564 11.2636 54.9168C11.2771 54.897 11.2907 54.8706 11.311 54.8442C11.3787 54.7518 11.4668 54.6725 11.5481 54.5999C11.7243 54.4349 11.914 54.2764 12.1037 54.1246C12.5847 53.735 13.0454 53.3323 13.5603 52.9824C14.414 52.4014 15.3218 51.8996 16.25 51.4375C15.8909 51.6356 15.5318 51.8402 15.1795 52.0581L15.1728 52.0449Z" fill="#F29E5A"/>
<path d="M31.6821 45.9879C30.9698 45.9879 30.2706 46.0642 29.5649 46.1787C27.85 46.4609 26.0758 47.0025 24.407 47.5594C23.2528 47.9408 17.1516 49.4664 11.875 55.1875C15.8325 50.2292 21.9203 48.3527 22.3623 48.1772C23.8727 47.5822 25.4161 47.1093 26.9661 46.6897C28.7404 46.2015 30.5015 45.8201 32.3285 45.8125C32.3747 45.9193 32.434 46.0185 32.5 46.11C32.2296 46.0795 31.9525 46.0413 31.6821 45.9956V45.9879Z" fill="#F29E5A"/>
<path d="M32.4529 45.3118C32.4529 45.3118 32.4058 45.3043 32.3789 45.3043C30.6631 45.3043 28.9876 45.603 27.3189 46.0285C25.6435 46.4541 23.9815 46.9245 22.3531 47.5218C20.7315 48.1116 19.1772 48.8732 17.6296 49.6721C16.0954 50.4635 14.5747 51.2997 13.1752 52.3599C12.5696 52.8154 12.0313 53.3455 11.4728 53.8681C11.2508 54.0697 11.0287 54.2788 10.8336 54.5102C10.8201 54.5252 10.8067 54.5476 10.7865 54.5625C10.7394 54.4804 10.6856 54.3982 10.625 54.331C10.6856 54.3161 10.7461 54.2713 10.7865 54.2041C11.2575 53.4799 11.9573 52.9647 12.5696 52.3973C13.2559 51.7626 13.9759 51.1653 14.7228 50.6278C16.2031 49.5601 17.7978 48.6641 19.4329 47.925C21.0814 47.1783 22.7972 46.581 24.5198 46.1032C26.2827 45.6179 28.086 45.2744 29.9027 45.1998C30.7707 45.1624 31.6387 45.2147 32.5 45.2968C32.4798 45.2968 32.4529 45.2968 32.4327 45.3118H32.4529Z" fill="#F29E5A"/>
<path d="M34.2205 43.9375C34.2767 44.1458 34.3258 44.3542 34.375 44.5625C33.9607 44.4419 33.5393 44.3432 33.125 44.2555C33.4902 44.1787 33.8553 44.08 34.2135 43.9375H34.2205Z" fill="#F29E5A"/>
<path d="M35.1004 46.2764C34.7172 46.4702 34.3076 46.5 33.9178 46.3062C33.561 46.1274 33.2571 45.807 33.125 45.3897C33.7593 45.4865 34.3935 45.6579 34.9353 46.0678C35.074 46.1721 35.1995 46.1125 35.2788 46.0007C35.2788 46.0007 35.2854 46.0007 35.292 45.9933C35.3515 45.9709 35.4043 45.9336 35.444 45.8591C35.695 45.4046 35.9593 44.9724 36.25 44.5625C36.1245 45.3002 35.7281 45.956 35.1004 46.269V46.2764Z" fill="#F29E5A"/>
<path d="M35.1436 45.1875C35.0914 45.0766 35.0457 44.9658 35 44.8475C35.0457 44.8253 35.0849 44.781 35.111 44.707C35.3591 44.0714 35.8096 43.5614 36.2601 43.1105C36.7693 42.6004 37.3178 42.1496 37.8989 41.743C39.159 40.8634 40.4909 40.139 41.875 39.5625C40.6933 40.1169 39.5115 40.6934 38.4277 41.4621C37.0762 42.423 36.012 43.687 35.1436 45.1801V45.1875Z" fill="#F29E5A"/>
<path d="M50.437 38.8264C47.5149 39.6353 44.6469 40.6566 41.8804 41.9178C40.5817 42.5142 39.3033 43.1722 38.0587 43.8783C37.7814 44.0702 37.5108 44.2621 37.22 44.4335C37.2132 44.4541 37.2064 44.4815 37.2064 44.5089C37.1388 44.7488 37.0238 44.975 36.875 45.1875C37.0441 44.8174 37.1253 44.4266 37.0915 44.0359C39.7835 42.5348 42.5974 41.2392 45.4857 40.1768C48.428 39.0937 51.4583 38.2369 54.5428 37.6474C55.3409 37.4966 56.1391 37.3732 56.9372 37.2361C57.5122 37.1333 58.1548 37.0031 58.75 37.0922C55.9497 37.5103 53.1764 38.0793 50.4437 38.8333L50.437 38.8264Z" fill="#F29E5A"/>
<path d="M57.2576 36.4033C56.5973 36.5076 55.9303 36.6258 55.27 36.7509C53.738 37.0289 52.2126 37.3764 50.707 37.7935C47.6562 38.6346 44.678 39.7397 41.7989 41.0813C40.3395 41.7625 38.9065 42.5062 37.5 43.3125C37.8962 42.9024 38.3254 42.5271 38.7943 42.1934C40.1084 41.262 41.5876 40.6225 43.0535 39.99C44.6185 39.3157 46.1836 38.6763 47.8014 38.141C49.4127 37.6058 51.0503 37.154 52.7012 36.7717C53.6257 36.5562 54.5634 36.3686 55.4945 36.1739C56.4322 35.9793 57.3765 35.7916 58.334 35.8264C58.367 35.8264 58.3934 35.8264 58.4198 35.8125C58.5189 35.9863 58.6377 36.1531 58.75 36.3269C58.2613 36.2574 57.7463 36.3269 57.2642 36.4033H57.2576Z" fill="#F29E5A"/>
</svg>
