<svg width="61" height="55" viewBox="0 0 61 55" fill="none" xmlns="http://www.w3.org/2000/svg">
<path d="M57.9479 43.3407C58.092 43.3407 58.2076 43.3437 58.3049 43.3462H58.3049C58.4724 43.3504 58.5855 43.3533 58.6959 43.3374C60.1489 43.1273 60.6768 43.4693 60.6726 44.8992C60.6676 46.6485 60.5533 48.4029 60.3791 50.1443C60.2665 51.2716 59.8638 51.6006 58.755 51.8057C58.2259 51.9037 57.6863 51.9585 57.1488 51.9983C56.3272 52.0589 55.5056 52.1202 54.684 52.1816L54.6805 52.1819C51.7844 52.3982 48.8881 52.6146 45.9901 52.7961C43.6995 52.9396 41.4055 53.0331 39.1119 53.1266C38.7082 53.1431 38.3046 53.1595 37.901 53.1762C36.3836 53.2392 34.8653 53.2897 33.347 53.3402H33.3466L33.3462 53.3402C30.2329 53.4437 27.1194 53.5472 24.0135 53.7585C19.3406 54.0762 14.677 54.391 9.99156 54.1712C9.05638 54.1274 8.12078 54.0949 7.18517 54.0624L7.18356 54.0624C6.50277 54.0387 5.82185 54.0151 5.14121 53.9871C3.95154 53.9381 3.61289 53.6455 3.42661 52.5161C3.31322 51.828 3.20631 51.1389 3.09939 50.4497L3.09931 50.4492L3.09925 50.4488C3.05504 50.1638 3.01083 49.8788 2.96614 49.5938C2.96031 49.5566 2.95414 49.5194 2.94798 49.4822C2.93206 49.3862 2.91613 49.2901 2.90587 49.1932C2.71834 47.4133 3.00676 46.8817 4.60247 46.1203C4.60247 45.3026 4.61053 44.4828 4.6186 43.6616C4.63686 41.8028 4.65519 39.9372 4.58028 38.0756C4.45838 35.0433 4.20607 32.0152 3.95398 28.99L3.926 28.6541C3.85457 27.7961 3.74557 26.9409 3.63659 26.0859C3.50673 25.067 3.37689 24.0482 3.31065 23.0251C3.14781 20.5168 3.03634 18.0052 2.92488 15.4936C2.88277 14.5447 2.84066 13.5958 2.79578 12.6471C2.78594 12.4394 2.78837 12.231 2.79103 12.0034V12.0034C2.79233 11.8922 2.79369 11.7764 2.79369 11.6538C2.66779 11.6305 2.54215 11.617 2.42059 11.6039L2.42057 11.6039C2.15975 11.5759 1.91769 11.5498 1.73211 11.4336C1.38341 11.2155 0.903279 10.8589 0.877744 10.5311C0.731652 8.65284 0.671371 6.76536 0.672627 4.88081C0.672627 4.61333 1.12472 4.20393 1.44286 4.10766C2.21225 3.87449 3.02057 3.71291 3.82261 3.65389L4.30445 3.61847L4.30449 3.61847C8.98503 3.27437 13.6661 2.93023 18.3515 2.66473C19.538 2.59755 20.7282 2.59516 21.9184 2.59276H21.9184C23.1163 2.59034 24.3142 2.58793 25.5083 2.51948C28.1885 2.36605 30.8663 2.17269 33.544 1.97933C35.5273 1.83611 37.5107 1.6929 39.4951 1.5659C41.3579 1.44666 43.2234 1.36573 45.0889 1.2848C45.8757 1.25067 46.6624 1.21654 47.4489 1.17953C48.5422 1.12826 49.6354 1.07787 50.7287 1.02748L50.7289 1.02747C52.6432 0.939232 54.5579 0.850982 56.4719 0.757999C57.2132 0.722 57.7738 0.994927 57.8604 1.73083C58.1187 3.92891 58.0735 6.1295 57.5536 8.2987C57.523 8.42596 57.4648 8.59423 57.3669 8.64991C56.5711 9.09904 56.6022 9.80172 56.6335 10.5087C56.6393 10.6392 56.645 10.7698 56.6456 10.8991C56.648 11.3998 56.6448 11.9006 56.6416 12.4014V12.4017C56.6361 13.252 56.6307 14.1022 56.6523 14.952C56.7775 19.8576 56.9152 24.7632 57.0659 29.6679L57.0853 30.2995C57.1586 32.6975 57.232 35.0964 57.3782 37.4899C57.4587 38.8155 57.6033 40.1371 57.7513 41.4901L57.7513 41.4903C57.818 42.0996 57.8854 42.7154 57.9479 43.3407Z" fill="#3CCDBE"/>
<path d="M17.0585 8.24947C16.9728 7.53637 16.892 6.86374 16.8193 6.19011C16.7448 5.50026 17.0215 5.03812 17.7491 4.97491C18.6846 4.8937 19.6236 4.82254 20.5621 4.80538C21.0937 4.79575 21.4001 5.15407 21.3809 5.67816C21.3478 6.5723 21.3109 7.47313 21.1648 8.35261C21.1205 8.62052 20.7504 8.95582 20.4645 9.04038C19.5682 9.30483 18.6482 9.42388 17.6396 9.31126C17.3639 9.28048 17.1551 9.05573 17.1221 8.78024C17.1007 8.60065 17.0795 8.42407 17.0585 8.24991L17.0585 8.24947Z" fill="#1A655E"/>
<path d="M47.1656 5.25243C47.2677 3.34277 47.2187 3.33984 45.2869 3.37123C45.1773 3.37123 45.0676 3.37086 44.958 3.37049C44.6656 3.36949 44.373 3.36849 44.0805 3.37458C43.9473 3.37709 43.8134 3.40388 43.6828 3.43318C42.8008 3.63202 42.5509 3.91793 42.6112 4.82964C42.6366 5.21478 42.7007 5.5971 42.7648 5.9797L42.7648 5.98014C42.8112 6.25734 42.8577 6.53472 42.8895 6.8134C43.0097 7.86954 43.1863 8.02442 44.2232 7.88125C44.3152 7.86846 44.4063 7.84511 44.4972 7.82182C44.6234 7.78947 44.7492 7.75723 44.8762 7.75358C47.1372 7.68912 47.1405 7.18507 47.1486 5.96334C47.1501 5.749 47.1516 5.51244 47.1656 5.25243Z" fill="#1A655E"/>
<path d="M38.6935 3.63715C40.7597 3.60659 40.7597 3.60659 40.6881 5.68914L40.6864 5.73991C40.6825 5.85702 40.6785 5.97433 40.6701 6.091C40.5521 7.69927 40.3449 7.90062 38.7567 8.01741C38.5396 8.03344 38.3238 8.06622 38.108 8.09901C37.8842 8.133 37.6604 8.16699 37.4352 8.18233C36.685 8.23382 36.5021 8.06136 36.4029 7.32001C36.3629 7.0207 36.317 6.72226 36.2711 6.42385C36.2222 6.10629 36.1733 5.78875 36.1316 5.47021C35.9663 4.20143 36.3104 3.77361 37.621 3.64259C37.8642 3.61847 38.1102 3.62488 38.356 3.63128C38.4686 3.63422 38.5812 3.63715 38.6935 3.63715Z" fill="#1A655E"/>
<path d="M53.6715 4.82507C53.707 2.89071 53.7029 2.88652 51.7723 2.89029C51.7364 2.89046 51.7006 2.89036 51.6647 2.89026C51.6111 2.89011 51.5574 2.88996 51.5039 2.89071C49.2196 2.91959 48.9103 3.2775 49.2661 5.47767C49.2788 5.5563 49.2878 5.63551 49.2968 5.7147C49.3029 5.76869 49.309 5.82283 49.3163 5.8766C49.5344 7.49659 49.5344 7.49659 51.2578 7.38775C53.4601 7.24878 53.63 7.06836 53.6715 4.82507Z" fill="#1A655E"/>
<path d="M8.77086 7.23264C8.74766 7.53235 8.74098 7.79787 8.73506 8.03317C8.70296 9.30898 8.6932 9.69667 6.19312 9.83132C6.05765 9.83854 5.92251 9.85287 5.78737 9.86721C5.65618 9.88112 5.52465 9.89506 5.39316 9.90248C4.81089 9.93555 4.48522 9.75011 4.47769 9.07197C4.47307 8.67247 4.39878 8.2742 4.32439 7.87546C4.28405 7.65918 4.24368 7.44277 4.21439 7.22594C4.05532 6.04757 4.2801 5.6633 5.45679 5.47032C6.20033 5.34815 6.9675 5.34784 7.72769 5.34753C7.81403 5.3475 7.90029 5.34746 7.98641 5.34725C8.52431 5.34599 8.78133 5.68381 8.77254 6.22213C8.76847 6.43894 8.76924 6.65596 8.77009 6.8969V6.89897C8.77047 7.00483 8.77086 7.11553 8.77086 7.23264Z" fill="#1A655E"/>
<path d="M31.7192 8.47407C34.0148 8.32212 34.1659 8.16221 34.1989 5.83939C34.2253 3.97158 34.2253 3.95819 32.3667 3.98037C31.7924 3.98749 31.2076 4.0373 30.6484 4.16205C29.7387 4.36465 29.552 4.63339 29.6291 5.57483C29.6571 5.91826 29.7184 6.25886 29.7797 6.59963C29.829 6.87358 29.8783 7.14766 29.9104 7.42338C30.0439 8.57161 30.0619 8.60091 31.1871 8.5356C31.278 8.53026 31.3685 8.51737 31.459 8.50447C31.5456 8.49214 31.6322 8.4798 31.7192 8.47407Z" fill="#1A655E"/>
<path d="M13.2788 5.02147C13.2814 5.04166 13.2987 5.05675 13.319 5.05663C13.3773 5.05629 13.4356 5.05519 13.494 5.0541C13.6476 5.05122 13.8012 5.04833 13.954 5.05925C14.8277 5.1212 14.9666 5.23422 14.9859 6.10199C14.9948 6.50228 14.9725 6.90311 14.9501 7.30402C14.9327 7.61708 14.9152 7.93019 14.9126 8.24314C14.9076 8.88779 14.5845 9.25783 13.9817 9.35997C13.8145 9.38827 13.6473 9.42041 13.48 9.45259C12.724 9.59795 11.9656 9.74375 11.2025 9.53635C10.9845 9.47708 10.8407 9.27881 10.8119 9.0547C10.7891 8.87707 10.7655 8.69946 10.7419 8.52185C10.6305 7.68301 10.5191 6.84384 10.4876 6.00194C10.4788 5.76334 10.9757 5.37822 11.3043 5.28236C11.7502 5.15234 12.2193 5.10138 12.6886 5.0504C12.8704 5.03065 13.0524 5.01088 13.2329 4.98651C13.2552 4.9835 13.2758 4.99914 13.2788 5.02147Z" fill="#1A655E"/>
<path d="M27.7068 6.49826C27.7775 4.41781 27.7775 4.41781 25.7096 4.44878C25.5972 4.44878 25.4845 4.44581 25.3718 4.44283C25.1261 4.43633 24.8804 4.42983 24.6376 4.45423C23.3282 4.58567 22.9849 5.01348 23.1507 6.28352C23.1924 6.60219 23.2412 6.91986 23.29 7.23756L23.29 7.238C23.3358 7.53608 23.3816 7.83433 23.4215 8.13332C23.5203 8.87216 23.7057 9.04546 24.4559 8.99355C24.6805 8.97804 24.9037 8.94419 25.1268 8.91035C25.3433 8.87752 25.5598 8.8447 25.7774 8.82862C27.3635 8.71183 27.5711 8.50965 27.6888 6.90012C27.6972 6.78784 27.7009 6.67496 27.7046 6.56225L27.7068 6.49826Z" fill="#1A655E"/>
<path d="M19.766 50.7065L19.766 50.7059C19.6807 49.9796 19.5982 49.2771 19.5248 48.5733C19.4578 47.9324 19.7471 47.5113 20.3976 47.4472C21.3323 47.3547 22.2712 47.2932 23.2097 47.261C23.7351 47.243 24.0934 47.5519 24.0792 48.0823C24.0536 49.0208 23.9812 49.9614 23.8615 50.8923C23.8347 51.1004 23.5655 51.375 23.3512 51.4449C22.3817 51.76 21.3912 51.8775 20.3474 51.7626C20.07 51.7321 19.8596 51.5061 19.8272 51.2289C19.8068 51.0537 19.7864 50.8802 19.7662 50.708L19.766 50.7065Z" fill="#1A655E"/>
<path d="M30.4123 48.7493C30.4122 48.7315 30.4121 48.7135 30.4123 48.6956C30.4247 47.7818 30.4309 47.3299 30.208 47.1059C29.9899 46.8867 29.5525 46.8858 28.6872 46.8839L28.6451 46.8838C28.5797 46.8838 28.5142 46.8839 28.4487 46.884C28.3493 46.8842 28.2499 46.8844 28.1505 46.8839C25.7042 46.8705 25.5443 47.593 26.0035 49.3905C26.0164 49.4413 26.0193 49.4944 26.0222 49.5476C26.0243 49.5843 26.0263 49.6211 26.0316 49.6571C26.2966 51.4676 26.297 51.4676 28.0744 51.2922C30.347 51.0683 30.3608 51.0536 30.4118 48.8296C30.4126 48.803 30.4124 48.7761 30.4123 48.7493Z" fill="#1A655E"/>
<path d="M41.4198 46.0731C42.4397 46.0708 42.9452 46.0696 43.1896 46.3217C43.4298 46.5694 43.4178 47.0618 43.3939 48.038C43.3933 48.0589 43.3934 48.0798 43.3934 48.1007C43.3935 48.1245 43.3936 48.1483 43.3927 48.172C43.3186 50.2269 43.2411 50.3073 41.1711 50.4776C40.2116 50.5565 39.7384 50.5955 39.4702 50.3796C39.2092 50.1695 39.1425 49.7182 39.0107 48.8275C38.6357 46.2945 38.8241 46.079 41.4198 46.0731Z" fill="#1A655E"/>
<path d="M17.664 50.146C17.671 49.9146 17.6788 49.6543 17.6993 49.3612C17.6993 49.2663 17.6983 49.1743 17.6973 49.0843C17.6952 48.892 17.6931 48.7091 17.7014 48.5265C17.7311 47.863 17.4293 47.4989 16.757 47.5252C16.5957 47.5315 16.4338 47.5365 16.2719 47.5414C15.5879 47.5625 14.9015 47.5836 14.2337 47.701C13.2307 47.8777 13.0415 48.1795 13.1294 49.1682C13.1562 49.4702 13.2063 49.7706 13.2563 50.0708C13.3236 50.4744 13.3908 50.8774 13.4011 51.2826C13.4187 51.9716 13.7695 52.1248 14.3379 52.093C14.4725 52.0854 14.6068 52.071 14.7411 52.0566C14.8732 52.0425 15.0054 52.0283 15.1379 52.0206C17.6119 51.8762 17.6225 51.5234 17.664 50.146Z" fill="#1A655E"/>
<path d="M54.5789 45.3513C56.3794 45.3521 56.3919 45.3626 56.3743 47.1199C56.371 47.4322 56.3559 47.7449 56.3291 48.0563C56.2107 49.4381 55.9444 49.7211 54.53 49.8316C54.3776 49.8435 54.2183 49.8623 54.0571 49.8813C53.4703 49.9504 52.8563 50.0228 52.4449 49.7801C52.1593 49.6116 52.0994 49.035 52.0426 48.4892C52.0237 48.3071 52.0051 48.1282 51.9786 47.9692C51.6064 45.7398 51.912 45.3852 54.1767 45.3521C54.2724 45.3503 54.3683 45.3507 54.4641 45.351L54.522 45.3512L54.5789 45.3513Z" fill="#1A655E"/>
<path d="M49.871 47.7002C49.9685 45.8031 49.9212 45.8006 47.9768 45.7763C47.8232 45.7865 47.6691 45.793 47.5149 45.7994L47.5141 45.7995C47.1768 45.8136 46.8394 45.8277 46.5084 45.8814C45.4891 46.0467 45.2207 46.395 45.3158 47.4369C45.3465 47.7737 45.4049 48.1079 45.4633 48.4421C45.5123 48.7229 45.5615 49.004 45.5941 49.2867C45.7151 50.3332 45.8934 50.4868 46.9408 50.3399C47.0323 50.3272 47.1231 50.3042 47.2137 50.2813C47.3403 50.2493 47.4665 50.2174 47.5938 50.2135C49.8334 50.1431 49.8388 49.6632 49.853 48.3961C49.8554 48.1863 49.858 47.9549 49.871 47.7002Z" fill="#1A655E"/>
<path d="M11.4805 49.5898C11.4617 49.8771 11.4535 50.133 11.4462 50.3611C11.3999 51.8086 11.3892 52.1402 8.92996 52.2907C8.8302 52.2968 8.73078 52.3102 8.63142 52.3235C8.50899 52.3399 8.38667 52.3563 8.26396 52.3593C7.35853 52.3819 7.31206 52.3237 7.20448 51.4317C7.1688 51.136 7.11871 50.842 7.06862 50.548C7.00647 50.1832 6.94433 49.8185 6.90979 49.4509C6.81644 48.4609 7.01109 48.1536 8.00108 47.9719C8.78261 47.8288 9.59303 47.7944 10.39 47.7995C11.3131 47.8053 11.4353 47.9719 11.4784 48.9184C11.4852 49.0697 11.4836 49.2212 11.4819 49.3728C11.4812 49.4451 11.4804 49.5175 11.4805 49.5898Z" fill="#1A655E"/>
<path d="M35.3821 46.4389C35.2975 46.4395 35.2129 46.44 35.1283 46.4401C35.1054 46.4402 35.086 46.4235 35.0827 46.4008C35.0791 46.3752 35.0552 46.3572 35.0296 46.361C34.8526 46.3872 34.6741 46.4087 34.4955 46.4301C34.0255 46.4866 33.5555 46.5431 33.1139 46.6867C32.8008 46.7884 32.3575 47.2225 32.3747 47.4796C32.4297 48.3121 32.5636 49.1397 32.6975 49.9673C32.7159 50.0808 32.7343 50.1942 32.7524 50.3077C32.8031 50.6242 33.0811 50.855 33.4016 50.8462C33.5117 50.8432 33.6218 50.8403 33.7319 50.8374C34.4413 50.8189 35.1506 50.8005 35.8562 50.738C36.4531 50.6852 36.8081 50.308 36.8169 49.6542C36.8236 49.1462 36.8459 48.6385 36.8682 48.1309C36.8792 47.8802 36.8902 47.6294 36.8993 47.3787C36.9211 46.7771 36.6335 46.4565 36.0274 46.4414C35.8124 46.4362 35.5973 46.4376 35.3821 46.4389Z" fill="#1A655E"/>
<path fill-rule="evenodd" clip-rule="evenodd" d="M57.9118 42.9855C57.9326 43.1871 58.1023 43.341 58.3049 43.3462C58.4724 43.3504 58.5855 43.3533 58.6959 43.3374C60.1489 43.1273 60.6768 43.4693 60.6726 44.8992C60.6676 46.6485 60.5533 48.4029 60.3791 50.1443C60.2665 51.2716 59.8638 51.6006 58.755 51.8057C58.2259 51.9037 57.6863 51.9585 57.1488 51.9983C56.326 52.0589 55.5033 52.1204 54.6805 52.1819C51.7844 52.3982 48.8881 52.6146 45.9901 52.7961C43.6995 52.9396 41.4055 53.0331 39.1119 53.1266C38.7082 53.1431 38.3046 53.1595 37.901 53.1762C36.3836 53.2392 34.8653 53.2897 33.347 53.3402H33.3466C30.2332 53.4437 27.1196 53.5472 24.0135 53.7585C19.3406 54.0762 14.677 54.391 9.99156 54.1712C9.05638 54.1274 8.12078 54.0949 7.18517 54.0624L7.18356 54.0624C6.50277 54.0387 5.82185 54.0151 5.14121 53.9871C3.95154 53.9381 3.61289 53.6455 3.42661 52.5161C3.31322 51.828 3.20631 51.1389 3.09939 50.4497L3.09931 50.4492C3.05508 50.1641 3.01085 49.8789 2.96614 49.5938C2.96031 49.5566 2.95414 49.5194 2.94798 49.4822C2.93206 49.3862 2.91613 49.2901 2.90587 49.1932C2.73323 47.5547 2.96395 46.974 4.24662 46.2981C4.46119 46.185 4.60236 45.9658 4.60307 45.7233C4.60508 45.0373 4.61183 44.3499 4.6186 43.6616C4.63686 41.8028 4.65519 39.9372 4.58028 38.0756C4.45838 35.0433 4.20607 32.0152 3.95398 28.99L3.926 28.6541C3.85457 27.7961 3.74557 26.9409 3.63659 26.0859C3.50673 25.067 3.37689 24.0482 3.31065 23.0251C3.14781 20.5168 3.03634 18.0052 2.92488 15.4936C2.88277 14.5447 2.84066 13.5958 2.79578 12.6471C2.78594 12.4394 2.78837 12.231 2.79103 12.0034C2.7934 11.8008 2.64875 11.6286 2.44731 11.6068C2.43837 11.6058 2.42946 11.6049 2.42057 11.6039C2.15975 11.5759 1.91769 11.5498 1.73211 11.4336C1.38341 11.2155 0.903279 10.8589 0.877744 10.5311C0.731652 8.65284 0.671371 6.76536 0.672627 4.88081C0.672627 4.61333 1.12472 4.20393 1.44286 4.10766C2.21225 3.87449 3.02057 3.71291 3.82261 3.65389L4.30445 3.61847C8.98501 3.27437 13.6661 2.93023 18.3515 2.66473C19.538 2.59755 20.7282 2.59516 21.9184 2.59276C23.1163 2.59034 24.3142 2.58793 25.5083 2.51948C28.1885 2.36605 30.8663 2.17269 33.544 1.97933C35.5273 1.83611 37.5107 1.6929 39.4951 1.5659C41.3579 1.44666 43.2234 1.36573 45.0889 1.2848C45.8757 1.25067 46.6624 1.21654 47.4489 1.17953C48.5422 1.12826 49.6356 1.07786 50.7289 1.02747C52.6432 0.939232 54.5579 0.850982 56.4719 0.757999C57.2132 0.722 57.7738 0.994927 57.8604 1.73083C58.1187 3.92891 58.0735 6.1295 57.5536 8.2987C57.523 8.42596 57.4648 8.59423 57.3669 8.64991C56.5711 9.09904 56.6022 9.80172 56.6335 10.5087C56.6393 10.6392 56.645 10.7698 56.6456 10.8991C56.648 11.3998 56.6448 11.9006 56.6416 12.4014C56.6361 13.2517 56.6307 14.1021 56.6523 14.952C56.7775 19.8576 56.9152 24.7632 57.0659 29.6679L57.0853 30.2995C57.1586 32.6975 57.232 35.0964 57.3782 37.4899C57.4587 38.8155 57.6033 40.1371 57.7513 41.4901C57.8053 41.9838 57.8598 42.4817 57.9118 42.9855ZM7.50133 12.5169C7.48088 12.491 7.47366 12.4574 7.48054 12.4252C7.512 12.2778 7.54147 12.1259 7.57112 11.9694C7.58719 11.8846 7.65276 11.8175 7.73625 11.7957C7.83007 11.7713 7.91733 11.7485 8.00362 11.7513C8.2192 11.758 8.43439 11.7769 8.71307 11.8013C8.95579 11.8225 9.15143 12.0103 9.18119 12.2521C9.66457 16.1794 10.1479 20.1077 10.6356 24.0712L11.1858 28.5433C11.2312 28.912 10.9436 29.2372 10.5721 29.2372C10.2657 29.2372 10.0055 29.0128 9.96036 28.7098C9.90029 28.3064 9.84049 27.9053 9.78093 27.5059L9.78068 27.5042C9.612 26.373 9.44534 25.2554 9.28035 24.1374C9.12875 23.1095 8.97734 22.0817 8.82593 21.0538C8.41417 18.2586 8.00242 15.4635 7.5871 12.6689C7.57913 12.6152 7.54027 12.5661 7.50133 12.5169ZM7.63031 14.243C7.57662 13.6973 7.52292 13.1516 7.46611 12.6062C7.45572 12.5066 7.42205 12.4099 7.36417 12.3281C6.79323 11.5211 6.25927 11.4164 5.46355 11.9329C5.46308 11.9332 5.46243 11.9331 5.46208 11.9326C5.46132 11.9317 5.45979 11.9325 5.46018 11.9337C5.48844 12.018 5.5197 12.1019 5.55095 12.1857C5.62592 12.3869 5.70088 12.588 5.73436 12.7957C6.17757 15.5548 6.61569 18.3148 7.05382 21.0749L7.05466 21.0802L7.05477 21.0809L7.05488 21.0816C7.34926 22.936 7.64363 24.7905 7.93956 26.6448C8.03886 27.2677 8.15061 27.8887 8.26446 28.5213C8.28455 28.633 8.30471 28.745 8.32487 28.8574C8.38184 29.1751 8.66909 29.3992 8.991 29.3761C9.03921 29.3727 9.08664 29.3693 9.13389 29.3659L9.18516 29.3623C9.38904 29.3477 9.54434 29.1724 9.53776 28.9681C9.53046 28.7412 9.52396 28.5392 9.49592 28.3401C9.33036 27.164 9.16105 25.9884 8.99174 24.8128C8.67393 22.6059 8.3561 20.399 8.06306 18.189C7.88954 16.8777 7.75993 15.5604 7.63031 14.243ZM6.2725 18.5278C5.90953 16.4058 5.54667 14.2845 5.45905 12.129C5.45351 11.9929 5.4088 11.8576 5.30887 11.7649C5.01563 11.4929 4.69501 11.4619 4.34371 11.5603C4.07607 11.6352 3.93969 11.9203 3.98511 12.1945C4.05235 12.6004 4.11973 13.0039 4.18682 13.4056C4.40213 14.6949 4.6144 15.9659 4.80884 17.2396C4.93381 18.057 5.12145 18.8617 5.30855 19.6641C5.44294 20.2404 5.57707 20.8156 5.68748 21.3934C5.95477 22.7919 6.09286 24.214 6.23103 25.6369C6.33089 26.6653 6.43079 27.6941 6.57953 28.7148C7.10259 32.3024 7.67087 35.8832 8.23916 39.4641L8.24078 39.4743C8.41964 40.6013 8.5985 41.7283 8.77594 42.8556C8.88406 43.5414 9.00774 44.2247 9.13544 44.9303C9.15926 45.0619 9.18324 45.1944 9.20728 45.3278C9.26816 45.6656 9.58766 45.8935 9.9267 45.84C9.99108 45.8298 10.0543 45.8198 10.1173 45.8099C10.3421 45.7744 10.4955 45.5633 10.4598 45.3386C10.4024 44.9781 10.3457 44.6225 10.2895 44.2704L10.2893 44.2692L10.2889 44.267L10.2888 44.2662C10.1253 43.2417 9.96664 42.2474 9.81239 41.2523L9.30915 38.0071C8.4217 32.2849 7.53422 26.5625 6.65445 20.8392C6.53588 20.0675 6.40418 19.2976 6.2725 18.5278ZM56.8243 2.56309C56.8206 2.28633 56.5954 2.06198 56.3186 2.06123C56.0099 2.06039 55.713 2.05893 55.4253 2.05752C54.5269 2.05311 53.7167 2.04914 52.9071 2.06571C51.7885 2.08881 50.6696 2.10695 49.5507 2.12508C46.5327 2.174 43.5146 2.22292 40.5014 2.3692C37.9047 2.49534 35.3111 2.68361 32.7173 2.87188L32.7169 2.8719C30.5165 3.03162 28.3161 3.19135 26.1136 3.31315C24.0702 3.4262 22.0236 3.47966 19.9769 3.53312C18.6057 3.56894 17.2345 3.60476 15.8641 3.6585C12.0095 3.80948 8.15601 3.98979 4.30257 4.1701L3.20308 4.22152C2.97247 4.23221 2.74384 4.2776 2.51489 4.32306C2.34944 4.35591 2.18382 4.38879 2.01717 4.40863C1.34783 4.48858 1.06109 4.89086 1.12891 5.51793C1.2335 6.48515 1.35475 7.45075 1.47598 8.41626C1.53912 8.91908 1.60227 9.42199 1.66305 9.92497C1.73211 10.4947 2.08875 10.6374 2.60698 10.6466C3.6984 10.6657 4.78982 10.694 5.8812 10.7224C7.98366 10.777 10.086 10.8317 12.188 10.8195C13.6063 10.8113 15.0239 10.7155 16.4417 10.6197C17.2676 10.5639 18.0936 10.5081 18.9199 10.4696C22.758 10.2906 26.5968 10.1276 30.436 9.96458L31.4474 9.92162C31.8867 9.90305 32.3264 9.89364 32.7661 9.88424L32.7671 9.88421C33.4072 9.87051 34.0476 9.8568 34.6862 9.81488C37.3806 9.63802 40.0746 9.45337 42.7686 9.26872L42.7701 9.26861L42.7724 9.26846C44.872 9.12454 46.972 8.9806 49.0718 8.84037C50.0812 8.77295 51.0913 8.71444 52.1013 8.65592C53.1107 8.59744 54.1201 8.53896 55.129 8.47159C56.2132 8.39917 56.474 8.17229 56.587 7.10108C56.6978 6.05277 56.7511 4.99782 56.8043 3.94419L56.8147 3.73761C56.8347 3.34528 56.8295 2.95113 56.8243 2.56713V2.56309ZM59.3786 44.5229C59.2798 44.3623 59.0739 44.2996 58.8979 44.3672C58.1538 44.653 57.4072 44.621 56.6543 44.5887C56.419 44.5787 56.1832 44.5685 55.9466 44.5681C51.673 44.5597 47.3958 44.6334 43.1273 44.8372C40.5472 44.9605 37.9702 45.1496 35.3932 45.3386H35.3928L35.3922 45.3387C33.2621 45.4949 31.1319 45.6512 28.9999 45.7703C27.7153 45.8421 26.4269 45.8443 25.1384 45.8466C23.9933 45.8485 22.8481 45.8505 21.7053 45.9013C16.6733 46.1245 11.6429 46.394 6.61595 46.7122C6.0478 46.7481 5.48945 46.9777 4.93586 47.2054C4.74836 47.2825 4.56136 47.3593 4.37475 47.4284C4.24959 47.4744 4.13405 47.7072 4.11814 47.8642C3.95656 49.4862 3.89711 51.1003 4.53463 52.7791C4.62312 53.0122 4.8512 53.159 5.10045 53.1564C5.42292 53.1532 5.74607 53.1467 6.06955 53.1402H6.07192C7.08676 53.12 8.10503 53.0996 9.11584 53.1771C12.7243 53.453 16.3246 53.2794 19.9238 53.1058L20.591 53.0737C22.6704 52.9743 24.7478 52.8349 26.8253 52.6955L26.8327 52.6951C28.4301 52.5879 30.0274 52.4807 31.6258 52.3918C32.7627 52.3286 33.9012 52.2935 35.0397 52.2584H35.0402C36.1952 52.2228 37.3504 52.1871 38.5038 52.1222C41.5768 51.9491 44.6483 51.7539 47.72 51.5588C49.0899 51.4718 50.4599 51.3847 51.83 51.2996C52.7239 51.2441 53.618 51.1903 54.512 51.1364C55.5935 51.0712 56.6751 51.006 57.7566 50.938C58.7818 50.8735 59.1778 50.6709 59.2426 49.9061C59.3574 48.5591 59.407 47.2065 59.4565 45.8542C59.4695 45.4995 59.4826 45.1449 59.4967 44.7904C59.4993 44.719 59.4544 44.646 59.3786 44.5229ZM30.9293 35.9271C30.915 35.5902 30.6377 35.3245 30.3005 35.3249C30.0241 35.3251 29.7506 35.3256 29.4796 35.326H29.458C28.2023 35.328 26.999 35.3299 25.7959 35.3174L25.7796 35.3172C25.5381 35.3149 25.2765 35.3124 25.0851 35.1509C24.7864 34.8988 25.1689 34.5073 25.5572 34.551C25.6957 34.5666 25.8341 34.5826 25.9723 34.5987C27.4696 34.7721 28.9581 34.9446 30.5025 34.5606C30.7809 34.4914 30.9593 34.227 30.9424 33.9406C30.8984 33.1944 30.8545 32.4496 30.8101 31.6978L30.6713 29.345C30.6511 29.0024 30.3601 28.7391 30.0171 28.7533C28.6129 28.8114 27.2339 28.8684 25.871 28.9247L25.8088 28.9273C23.9208 29.0053 22.0634 29.082 20.212 29.1587C19.8793 29.1724 19.6133 29.4439 19.6215 29.7767C19.7847 36.4393 24.8199 40.5538 30.4817 40.8628C30.8398 40.8823 31.127 40.5822 31.1118 40.2239C31.0662 39.1519 31.0208 38.0821 30.9755 37.0155L30.9293 35.9271ZM31.0047 24.7205C31.0275 25.0503 31.3019 25.304 31.6321 25.3209C33.6053 25.4215 35.1955 26.0445 36.4853 27.4125C36.6532 27.5908 36.9399 27.752 37.1748 27.7566C38.3539 27.7793 39.5336 27.7766 40.7065 27.7739C40.8881 27.7734 41.0695 27.773 41.2507 27.7727C41.5872 27.7721 41.8655 27.5076 41.8658 27.1711C41.8678 24.4022 41.0596 20.9132 39.061 18.3786C37.3077 16.1547 34.0421 14.7922 31.0628 15.2734C30.7647 15.3215 30.562 15.5929 30.5751 15.8946L30.6368 17.3077C30.6887 18.4973 30.7406 19.6861 30.7915 20.8565C30.8031 21.1214 30.9789 21.3559 31.2403 21.4002C31.6536 21.4703 32.0596 21.4651 32.4621 21.4599C32.7969 21.4556 33.1292 21.4513 33.461 21.4905C33.9127 21.5437 33.9795 22.0785 33.5373 22.1847C33.1669 22.2736 32.7869 22.2649 32.406 22.2562C32.0182 22.2473 31.6296 22.2384 31.2495 22.3325C30.9996 22.3943 30.8606 22.6443 30.8785 22.9011C30.9187 23.4773 30.9602 24.0773 31.0047 24.7205ZM30.0823 19.7426C30.0865 18.4494 30.0905 17.2235 30.0702 15.9985C30.0556 15.1148 29.7613 14.9026 28.863 15.1491C22.9913 16.7603 20.6822 19.5495 19.6014 25.101C19.4479 25.8887 19.4032 26.6977 19.3555 27.5622C19.3449 27.7542 19.3341 27.949 19.322 28.1468C19.2989 28.5226 19.6024 28.841 19.9786 28.8271C23.4143 28.6997 26.6872 28.4937 29.9171 28.2536C30.2453 28.2292 30.4989 27.9556 30.4989 27.6265V26.9744C30.4989 26.5772 30.1354 26.2793 29.7459 26.357C29.5698 26.3921 29.3955 26.4268 29.223 26.4611L29.2218 26.4614C28.2505 26.6548 27.3311 26.8379 26.4133 27.0274C25.3936 27.238 25.2492 27.1103 25.3024 26.0391C25.3149 25.7872 25.3303 25.535 25.3457 25.2828V25.2824C25.3906 24.5482 25.4356 23.8134 25.4091 23.0816C25.3677 21.9355 25.4476 21.8087 26.6406 21.7308C27.4447 21.6778 28.2476 21.6072 29.0432 21.5373L29.0438 21.5373C29.1967 21.5239 29.3494 21.5104 29.5018 21.4972C29.8278 21.4688 30.0786 21.1962 30.0792 20.869C30.0798 20.4921 30.0811 20.1221 30.0823 19.7575V19.7426ZM38.0797 28.3778C37.674 28.3778 37.3777 28.7571 37.4153 29.1611C37.5742 30.8697 36.8354 32.1828 35.4476 33.1712C34.7858 33.6425 34.0555 34.0186 33.3262 34.3943C33.0618 34.5304 32.7975 34.6666 32.5366 34.8071C32.3292 34.9189 32.1076 35.0045 31.8851 35.0904C31.7031 35.1607 31.5882 35.3391 31.5954 35.534L31.7748 40.4243C31.7859 40.7283 32.0132 40.9838 32.3165 41.0068C34.4482 41.1687 36.2201 40.4003 37.8328 39.2502C39.2627 38.2304 40.6772 37.0504 41.0506 35.2349C41.3683 33.6905 41.5725 32.1228 41.7818 30.5165C41.843 30.0468 41.9046 29.5738 41.9697 29.0972C42.0214 28.7175 41.7272 28.3778 41.344 28.3778H38.0797ZM54.4004 43.3994C54.7581 43.3994 55.0415 43.0972 55.0187 42.7402C54.322 31.8451 53.6351 21.1005 52.9434 10.28C52.9208 9.92592 52.6101 9.66049 52.2569 9.6935L52.2346 9.69558C51.8954 9.72728 51.643 10.0232 51.6651 10.3631C52.1862 18.3531 52.7043 26.2958 53.2226 34.2402L53.7823 42.8202C53.8035 43.146 54.074 43.3994 54.4004 43.3994ZM52.9136 43.467C53.1975 43.4173 53.3984 43.162 53.38 42.8744L51.2949 10.2891C51.2718 9.92849 50.9201 9.68236 50.5733 9.78406L50.5696 9.78513C50.5288 9.7971 50.4891 9.80875 50.4503 9.82014C50.1801 9.89939 49.9953 10.1417 50.0023 10.4231C50.1464 16.2023 51.8281 39.4324 52.3634 43.0952C52.4027 43.3644 52.6456 43.5139 52.9136 43.467ZM51.1965 43.5881C51.5299 43.5881 51.7938 43.3062 51.7718 42.9735L51.1225 33.1528C50.6226 25.5935 50.1244 18.058 49.6229 10.4766C49.6009 10.1448 49.3061 9.89876 48.9758 9.93657C48.9555 9.9389 48.9353 9.94122 48.9153 9.94351C48.6093 9.97853 48.378 10.2115 48.3847 10.5193C48.4781 14.8456 50.2708 39.7808 50.733 43.2147C50.7649 43.4514 50.9576 43.5881 51.1965 43.5881ZM53.6589 9.62484C53.4689 9.62484 53.3145 9.77888 53.3118 9.96889C53.3093 10.1526 53.3073 10.2958 53.3165 10.4382C53.4815 12.9908 53.6477 15.5433 53.8139 18.0959C53.9634 20.3932 54.113 22.6906 54.2617 24.988C54.385 26.8964 54.5067 28.8048 54.6284 30.7133C54.7501 32.6217 54.8718 34.53 54.9951 36.4384C55.0619 37.4713 55.1314 38.5039 55.201 39.5365C55.2706 40.5691 55.3402 41.6017 55.407 42.6346C55.4448 43.2206 55.6787 43.4004 56.0394 43.3595C56.3083 43.329 56.4648 43.056 56.4499 42.7858C56.1753 37.8004 55.9014 32.8278 55.6277 27.8573C55.3041 21.9813 54.9806 16.1081 54.6561 10.2195C54.6378 9.88591 54.3619 9.62484 54.0278 9.62484H53.6589ZM12.2282 29.0576C12.598 29.0576 12.8868 28.738 12.8494 28.3701C12.5976 25.8927 12.3491 23.4463 12.1023 21.0178C11.8104 18.1449 11.5211 15.2971 11.232 12.4526C11.1994 12.1314 10.9289 11.887 10.6059 11.887H10.1754C9.79581 11.887 9.50263 12.2205 9.55129 12.597C10.245 17.9638 10.927 23.2395 11.609 28.5133C11.6492 28.8246 11.9143 29.0576 12.2282 29.0576ZM13.8 11.8038C13.4493 11.8319 13.1908 12.1438 13.2281 12.4937L14.9579 28.7064C14.9762 28.8775 15.1168 29.01 15.2884 29.0231C15.4519 29.0355 15.5693 29.0444 15.6825 29.0271C15.7923 29.0103 15.8979 28.9641 16.0196 28.9109C16.1292 28.8629 16.1989 28.7509 16.189 28.6316C15.949 25.7472 15.7099 22.8739 15.4703 19.9956L15.418 19.3666C15.2239 17.0347 15.0295 14.6988 14.8341 12.3504C14.8053 12.0047 14.5023 11.7475 14.1565 11.7752C14.0361 11.7849 13.9187 11.7943 13.8 11.8038ZM15.1204 11.7555C15.1185 11.7555 15.1171 11.7571 15.1172 11.759C15.6123 17.3555 16.0946 22.8072 16.5883 28.3866C16.6198 28.7424 16.9642 28.9842 17.3095 28.8929L17.355 28.8809C17.6463 28.8039 17.8422 28.5312 17.822 28.2305L17.3793 21.6109C17.1719 18.51 16.9657 15.4283 16.7594 12.3428C16.7373 12.0125 16.463 11.7557 16.1319 11.7556C15.8117 11.7555 15.5106 11.7555 15.1204 11.7555ZM31.5242 33.5928C31.5493 34.0002 31.9503 34.2776 32.3334 34.1366C34.1584 33.4644 35.6103 32.4865 36.4548 30.7345C36.6802 30.2662 36.6272 29.6324 36.5806 29.0765L36.5762 29.0229C36.5573 28.796 36.2103 28.4096 36.0186 28.413C34.8318 28.4347 33.6461 28.5001 32.4024 28.5687C32.2204 28.5787 32.0371 28.5889 31.8525 28.5989C31.5029 28.6179 31.2353 28.9179 31.257 29.2673C31.346 30.7025 31.4312 32.0813 31.5242 33.5928ZM4.37866 16.8887C4.35047 16.717 4.11087 16.7363 4.11279 16.9103C4.19522 24.3989 5.40182 31.7507 6.748 39.0973C6.74907 39.1031 6.75752 39.1029 6.75826 39.097C6.95656 37.5065 7.15562 35.91 7.0492 34.3337C6.95582 32.9505 6.69777 31.5887 6.43933 30.2249C6.21582 29.0454 5.99202 27.8643 5.87418 26.6666C5.72101 25.1111 5.46501 23.5656 5.20903 22.0202C5.11244 21.437 5.01585 20.8539 4.92479 20.2703C4.74864 19.1424 4.5637 18.0159 4.37874 16.8892L4.37866 16.8887ZM45.5657 27.5905C45.6972 27.5391 45.7835 27.4095 45.7747 27.2687L44.7506 10.858C44.7254 10.4533 44.3296 10.1778 43.9414 10.2945L43.894 10.3088C43.6129 10.3933 43.4276 10.661 43.4474 10.9538C43.82 16.4772 44.185 21.8847 44.5505 27.3008C44.563 27.4859 44.7098 27.6339 44.8945 27.6517C45.0643 27.668 45.1799 27.6791 45.2936 27.6712C45.3733 27.6658 45.4515 27.6352 45.5657 27.5905ZM46.7799 27.4556C47.1352 27.4556 47.4168 27.1558 47.3947 26.8012L47.0897 21.9177C46.8569 18.1902 46.6261 14.4958 46.3932 10.7658C46.3695 10.3858 46.0165 10.1137 45.643 10.1877L45.6009 10.196C45.2906 10.2574 45.0741 10.5396 45.0951 10.8552L45.4134 15.6215C45.6643 19.3782 45.9142 23.1201 46.1652 26.8806C46.1868 27.2042 46.4556 27.4556 46.7799 27.4556ZM12.2009 11.8605C11.8269 11.8606 11.5354 12.185 11.5752 12.5569L12.194 18.3334C12.5582 21.7334 12.9201 25.1117 13.2846 28.5141C13.3193 28.8384 13.6005 29.0784 13.926 29.0595C14.2734 29.0394 14.536 28.7336 14.5009 28.3874C13.9584 23.026 13.4244 17.7476 12.8861 12.4266C12.8536 12.1051 12.5827 11.8604 12.2595 11.8605C12.24 11.8605 12.2205 11.8605 12.2009 11.8605ZM43.6107 27.7144C43.9007 27.7295 44.1392 27.4887 44.1212 27.1988L43.1204 11.0603C43.0998 10.7285 42.8247 10.47 42.4923 10.47H42.4665C42.1029 10.47 41.8149 10.7774 41.8386 11.1402L42.1824 16.4115C42.4157 19.9884 42.6477 23.545 42.8807 27.1196C42.9015 27.4381 43.1575 27.6907 43.4763 27.7074C43.5203 27.7097 43.5649 27.712 43.6107 27.7144ZM47.0143 10.1228C46.8615 10.1482 46.7457 10.2747 46.73 10.4288C46.7175 10.5504 46.709 10.6335 46.7143 10.7157C46.947 14.26 47.1802 17.8043 47.4209 21.3478C47.5456 23.1863 47.6817 25.0244 47.8253 26.862C47.8336 26.9703 47.8843 27.0753 47.9425 27.1956C47.9961 27.3064 48.1208 27.3682 48.24 27.3371L48.3994 27.2953C48.4519 27.2816 48.5046 27.2678 48.558 27.2538C48.8494 27.1776 49.0457 26.9054 49.0264 26.6048C48.6844 21.2986 48.3438 16.0114 47.9993 10.6612C47.9754 10.2894 47.6354 10.0196 47.2679 10.0807C47.2292 10.0871 47.1907 10.0935 47.1521 10.0999L47.0143 10.1228ZM16.0484 45.455C16.196 45.4214 16.2976 45.2831 16.2816 45.1325C15.9577 42.0964 15.6356 39.0765 15.312 36.0434L14.6678 30.0042C14.6312 29.6606 14.3135 29.4183 13.9724 29.4738C13.6478 29.5266 13.4208 29.8233 13.4547 30.1504L14.1111 36.4863C14.4114 39.3847 14.7101 42.2685 15.009 45.1539C15.0252 45.311 15.1451 45.4378 15.3003 45.4672C15.4499 45.4955 15.5636 45.517 15.677 45.5154C15.7884 45.5143 15.8992 45.489 16.0484 45.455ZM49.1473 28.5043C49.127 28.2085 48.9021 27.9506 48.6058 27.9635C48.1118 27.985 47.8866 28.2225 47.9429 28.8102C47.9569 28.9572 47.9564 29.1055 47.956 29.2539C47.9556 29.3765 47.9552 29.4991 47.963 29.6211L47.9912 30.0701L47.9916 30.0763L47.9917 30.0783C48.2563 34.2877 48.5209 38.4971 48.7964 42.7057C48.8093 42.9039 48.8623 43.0997 48.921 43.3167C48.9734 43.5102 49.1602 43.6396 49.3591 43.6143C49.5856 43.5854 49.8062 43.5573 50.06 43.5249C50.128 43.5162 50.1775 43.456 50.1728 43.3876C49.8286 38.3953 49.4901 33.4853 49.1473 28.5043ZM43.6139 28.3598C43.2646 28.3598 42.9877 28.6545 43.0093 29.0031C43.3053 33.7842 43.5958 38.4742 43.8922 43.2558C43.9136 43.6021 44.2113 43.8658 44.5576 43.8451C44.5695 43.8444 44.5814 43.8437 44.5933 43.8429C44.942 43.8221 45.2069 43.521 45.1833 43.1724C45.0462 41.148 44.9104 39.1428 44.7753 37.1472L44.7726 37.1072C44.5873 34.3705 44.4032 31.6514 44.2184 28.9246C44.1968 28.6067 43.9326 28.3598 43.6139 28.3598ZM46.3277 43.7569C46.6375 43.6949 46.8474 43.4138 46.8261 43.0986C46.5595 39.1516 46.2973 35.2665 46.0326 31.3457L45.8624 28.8232C45.8426 28.5302 45.5814 28.3136 45.2899 28.3484C45.2622 28.3517 45.2348 28.355 45.2077 28.3582C44.8761 28.3978 44.6333 28.6896 44.6546 29.0229L45.5583 43.1836C45.5826 43.5637 45.9542 43.8317 46.3277 43.7569ZM46.9246 38.8283L47.208 43.31C47.2194 43.4904 47.3615 43.6354 47.5413 43.6537L47.5418 43.6537C47.7572 43.6755 47.9359 43.6936 48.1133 43.6861C48.1873 43.6828 48.2593 43.6309 48.3479 43.5672C48.4384 43.502 48.4937 43.3955 48.4862 43.2842L48.2117 39.2095C47.9801 35.7708 47.7479 32.3243 47.5145 28.8562C47.4922 28.5255 47.2174 28.2688 46.886 28.2689C46.6997 28.269 46.5066 28.269 46.2678 28.269C46.2618 28.269 46.2571 28.274 46.2575 28.28C46.4832 31.8472 46.7042 35.342 46.9246 38.8283ZM18.2708 28.6902C18.2708 28.691 18.2719 28.6911 18.2721 28.6903C19.2958 24.2795 18.9593 19.9011 18.62 15.4863C18.5355 14.3866 18.4508 13.2846 18.3869 12.1793C18.3665 11.8271 18.063 11.558 17.7111 11.5829C17.6185 11.5894 17.5272 11.5958 17.4337 11.6024C17.2187 11.6176 17.0567 11.8045 17.0722 12.0195C17.4764 17.6379 17.8736 23.1641 18.2708 28.6902ZM10.8122 45.1586C10.8606 45.4729 11.137 45.7108 11.4539 45.6842C11.9917 45.639 11.9871 45.5061 11.8995 44.8862C11.7712 43.9796 11.6326 43.0745 11.4941 42.1693L11.494 42.1689L11.4939 42.1684C11.3813 41.4328 11.2687 40.6971 11.1615 39.9605C10.935 38.4041 10.7117 36.8472 10.4884 35.2902L10.4878 35.2863C10.2653 33.735 10.0427 32.1834 9.817 30.6324C9.68923 29.755 9.64173 29.5799 9.00339 29.7122C8.68889 29.7773 8.49271 30.0892 8.54156 30.4067C9.2929 35.2889 10.0468 40.1861 10.8122 45.1586ZM11.3665 29.9677C11.337 29.7378 11.1241 29.5772 10.8949 29.6119C10.8347 29.621 10.7763 29.6298 10.719 29.6385C10.3774 29.6902 10.1415 30.0077 10.1904 30.3496C10.2656 30.8751 10.3403 31.3969 10.4145 31.9157L10.4147 31.9168L10.4157 31.9238C10.6679 33.6857 10.9154 35.4144 11.1607 37.1433C11.2897 38.0521 11.4171 38.9612 11.5445 39.8702C11.7786 41.5395 12.0125 43.2087 12.2562 44.8766C12.3428 45.4695 12.3787 45.6005 12.8322 45.4947C13.131 45.4249 13.3147 45.1257 13.2756 44.8213L12.7318 40.5904C12.2829 37.0981 11.8302 33.5761 11.3665 29.9677ZM16.3001 29.9665C16.2725 29.6557 16.0023 29.4235 15.6909 29.4431C15.6384 29.4464 15.5871 29.4496 15.5364 29.4528C15.3201 29.4664 15.151 29.6459 15.1461 29.8626C15.1408 30.099 15.1361 30.3047 15.1559 30.5077C15.3551 32.5676 15.5644 34.6267 15.7741 36.6858C15.8649 37.5774 15.9568 38.4688 16.0488 39.3602L16.0495 39.3674L16.0496 39.368C16.2298 41.1142 16.41 42.8607 16.5808 44.6079C16.6293 45.1056 16.7977 45.3499 17.2014 45.3075C17.4778 45.2784 17.6347 44.9935 17.6101 44.7168C17.3438 41.7186 17.0777 38.7228 16.8102 35.7102L16.3001 29.9665ZM17.1119 29.3712C16.9105 29.3865 16.7546 29.5544 16.7512 29.7564C16.748 29.9457 16.7455 30.0895 16.7574 30.2322C17.0764 34.1261 17.3991 38.0195 17.7227 41.9129C17.7569 42.3233 17.7926 42.7336 17.8282 43.1439C17.8703 43.6284 17.9125 44.113 17.9521 44.5978C17.9974 45.1523 18.2229 45.3098 18.6182 45.2169C18.8725 45.1571 19.0125 44.8948 18.9937 44.6343C18.849 42.6342 18.7047 40.6379 18.5602 38.64C18.3456 35.6715 18.1307 32.6996 17.9141 29.7073C17.8984 29.4895 17.7086 29.326 17.4909 29.3424C17.3615 29.3522 17.2388 29.3615 17.1119 29.3712ZM12.0534 29.6018C11.9303 29.6018 11.8258 29.6923 11.8031 29.8134C11.7867 29.9014 11.7767 29.9548 11.7832 30.0062C12.3202 34.3366 12.8598 38.6666 13.4015 42.9962C13.4161 43.1128 13.4304 43.2293 13.4447 43.3459C13.5182 43.9439 13.5916 44.5421 13.7058 45.1324C13.7359 45.2877 14.057 45.538 14.1315 45.5032C14.3299 45.4112 14.4932 45.2035 14.6163 45.0076C14.6578 44.9418 14.6369 44.8354 14.6163 44.731C14.6083 44.69 14.6003 44.6494 14.5962 44.6116L14.3444 42.2761C13.9605 38.7153 13.5767 35.1543 13.1888 31.5939C13.1402 31.1477 13.0797 30.7027 13.0181 30.2492L13.0179 30.2476C13.0133 30.2141 13.0088 30.1806 13.0042 30.1469C12.9619 29.8352 12.696 29.6018 12.3814 29.6018H12.0534ZM19.1443 41.427L19.3577 44.5756C19.3835 44.9555 19.738 45.2257 20.1111 45.1499C20.1536 45.1412 20.1956 45.1327 20.2374 45.1242C20.4888 45.0731 20.6632 44.8431 20.643 44.5873C20.6168 44.2542 20.5895 43.9273 20.5627 43.6052C20.4804 42.6198 20.4018 41.6783 20.3683 40.7354C20.282 38.3167 20.048 35.9226 19.533 33.5558C19.3791 32.8484 18.5731 33.0003 18.6221 33.7225C18.795 36.2737 18.9687 38.8355 19.1443 41.427ZM19.4289 21.7095C19.4332 21.7677 19.5058 21.7908 19.5422 21.7452C20.41 20.6563 20.7449 19.5112 20.6102 18.1873C20.4984 17.088 20.4488 15.9824 20.3991 14.8767C20.372 14.2726 20.3449 13.6685 20.3076 13.0653C20.2855 12.708 20.2369 12.3522 20.189 12.0011C20.1518 11.7283 19.9192 11.5228 19.6439 11.5228H19.3581C18.9924 11.5228 18.7037 11.8334 18.7305 12.1982C18.9666 15.4154 19.1978 18.563 19.4289 21.7095ZM26.9688 22.5325C26.6383 22.5546 26.3815 22.8292 26.3815 23.1604V25.2827C26.3815 25.6718 26.731 25.9676 27.1147 25.9034L29.8994 25.4374C30.213 25.3849 30.4382 25.1068 30.4242 24.7891C30.3971 24.1703 30.3693 23.5406 30.3394 22.8593C30.3261 22.5571 30.0668 22.3251 29.765 22.3453C29.3124 22.3756 28.8697 22.4052 28.428 22.4348L28.4203 22.4353C27.9394 22.4675 27.4595 22.4997 26.9688 22.5325ZM42.7485 31.5338C42.7453 31.4843 42.7082 31.4435 42.6592 31.4356C42.6011 31.4261 42.5465 31.4659 42.5373 31.524C42.4632 31.9891 42.3743 32.4541 42.2853 32.9191L42.2852 32.9195C42.0716 34.0362 41.8579 35.1533 41.8501 36.2714C41.8382 37.9991 41.9798 39.728 42.1214 41.4568L42.1215 41.4574C42.1785 42.1536 42.2356 42.8498 42.2825 43.5459C42.2883 43.6289 42.3224 43.7101 42.3644 43.8101C42.4078 43.9138 42.5126 43.9809 42.6246 43.9715C42.7416 43.9617 42.861 43.9517 42.987 43.9412C43.3022 43.9148 43.5382 43.6408 43.5176 43.3252C43.2581 39.3434 43.0033 35.4381 42.7485 31.5338ZM40.1805 10.9167C40.1767 11.145 40.1732 11.3493 40.1874 11.5525C40.2323 12.1858 40.289 12.819 40.3457 13.4521C40.47 14.8405 40.5943 16.2288 40.5935 17.6168C40.5931 18.2739 40.7355 18.8551 40.9634 19.4002C41.21 19.9897 42.0166 19.7246 41.9774 19.0867C41.9155 18.0773 41.8535 17.0667 41.7912 16.0532C41.6902 14.407 41.5887 12.7533 41.4864 11.085C41.4646 10.7301 41.1533 10.4637 40.7993 10.4971C40.7114 10.5054 40.6267 10.5135 40.5425 10.5214C40.3396 10.5407 40.184 10.7111 40.1805 10.915V10.9167ZM22.0026 42.8827L22.0025 42.8807C21.9037 41.1792 21.8058 39.4933 21.6919 37.8085C21.6446 37.1119 21.1775 36.6794 20.6272 36.1699C20.5625 36.1101 20.4573 36.1595 20.4624 36.2474C20.479 36.5346 20.4949 36.8122 20.5104 37.0828L20.5104 37.0833C20.5538 37.84 20.5939 38.5417 20.6379 39.243C20.6768 39.8627 20.7175 40.4822 20.7581 41.1017L20.7582 41.1029C20.826 42.1357 20.8938 43.1685 20.9535 44.2018C20.9841 44.7248 21.1082 45.1016 21.6632 45.0452C21.9424 45.0169 22.1111 44.7397 22.0946 44.4595C22.0635 43.9321 22.033 43.4067 22.0026 42.8827ZM20.9174 17.9183C20.9466 18.4027 21.518 18.6997 21.8462 18.3422C22.0661 18.1027 22.1924 17.8332 22.1762 17.4753C22.1023 15.8167 21.9935 14.1594 21.8848 12.5022L21.884 12.4906C21.8668 12.2286 21.8496 11.9665 21.8326 11.7045C21.8277 11.6283 21.7819 11.5549 21.7222 11.4593C21.7091 11.4384 21.6954 11.4164 21.6813 11.3931C21.6402 11.3252 21.5629 11.286 21.4845 11.2985C21.3584 11.3188 21.2291 11.3396 21.0905 11.3618C20.7709 11.4131 20.5422 11.6983 20.5617 12.0213C20.6803 13.9849 20.7962 15.9071 20.9174 17.9183ZM40.484 43.753C40.4927 43.9327 40.6279 44.0813 40.8053 44.1111C40.9885 44.1419 41.1324 44.1661 41.2754 44.1633C41.3841 44.1611 41.4921 44.127 41.6393 44.0806L41.64 44.0803C41.7983 44.0304 41.9057 43.8794 41.8944 43.7137C41.8003 42.3281 41.7066 40.9477 41.6084 39.5007L41.4684 37.4388C41.4526 37.2047 41.1527 37.1021 40.9914 37.2725C40.5519 37.7365 40.2173 38.0898 40.2431 38.6746C40.2966 39.901 40.3564 41.1272 40.4187 42.4062C40.4402 42.8481 40.462 43.2963 40.484 43.753ZM6.64012 46.0545C7.00127 46.0181 7.25713 45.6847 7.19856 45.3265L7.09694 44.705C6.85965 43.2537 6.62494 41.8181 6.39157 40.3906C6.27454 39.6747 5.57238 39.7171 5.5936 40.4421C5.6614 42.758 5.86451 45.1131 6.08918 45.8659C6.13729 46.0272 6.29408 46.0894 6.46149 46.0725L6.4742 46.0713C6.52704 46.0659 6.58221 46.0604 6.64012 46.0545ZM22.5322 17.1959C22.539 17.3031 22.6518 17.3702 22.7495 17.3256C23.364 17.0453 23.8795 16.8102 23.8674 16.1207C23.8479 14.9948 23.797 13.8693 23.7443 12.7052L23.7443 12.7045L23.7442 12.7038C23.7317 12.4274 23.7191 12.1487 23.7068 11.8674C23.6911 11.5097 23.3815 11.2361 23.0247 11.2659C22.9419 11.2728 22.8597 11.2797 22.7769 11.2866C22.4357 11.3152 22.18 11.6115 22.2016 11.9532C22.2965 13.4603 22.3884 14.9167 22.4835 16.4239L22.5322 17.1959ZM39.8365 10.9331C39.8208 10.6726 39.5605 10.4994 39.3142 10.5854C39.2396 10.6115 39.1689 10.6361 39.1006 10.66C38.8343 10.753 38.6626 11.012 38.6813 11.2935C38.7066 11.6748 38.7328 12.0522 38.7588 12.4265C38.8461 13.6849 38.9311 14.9092 38.9735 16.1349C38.9869 16.5235 39.0825 16.8475 39.2456 17.1474C39.5194 17.6509 40.2215 17.3352 40.1871 16.7631C40.1089 15.4608 40.0328 14.1961 39.9555 12.9106L39.8365 10.9331ZM23.1164 45.0198C23.4804 45.0198 23.7703 44.7119 23.7452 44.3488C23.7222 44.0166 23.699 43.6889 23.676 43.3648C23.5855 42.0864 23.4989 40.8635 23.4442 39.6395C23.4244 39.1995 23.279 38.8924 23.0148 38.6415C22.6702 38.3142 22.1578 38.6664 22.1849 39.1409C22.2293 39.9188 22.2728 40.6818 22.3159 41.4357C22.3734 42.4442 22.4301 43.4364 22.4865 44.4263C22.5055 44.7594 22.7828 45.0198 23.1164 45.0198ZM8.32867 46.019C8.62162 46.019 8.84618 45.7587 8.80331 45.4689C8.52927 43.616 8.26533 41.8315 7.91071 40.0789C7.85225 39.79 7.42324 39.8268 7.40299 40.1209C7.27631 41.9599 7.14957 43.7999 7.67421 45.6236C7.74273 45.8618 7.96505 46.019 8.2129 46.019H8.32867ZM37.0945 12.0154L37.0946 12.0165L37.0949 12.0226C37.1509 13.045 37.2054 14.0394 37.2551 15.034C37.2776 15.4855 37.462 15.7714 37.7768 15.978C38.137 16.2143 38.5644 15.8683 38.5458 15.438L38.3654 11.277C38.3503 10.9287 38.0548 10.659 37.7065 10.6756C37.5726 10.682 37.4444 10.6881 37.3118 10.6944C37.1527 10.702 37.0302 10.8376 37.0388 10.9966C37.0568 11.3272 37.0747 11.6541 37.0925 11.9781L37.0945 12.0154ZM39.836 39.0685C39.8303 38.9784 39.7728 38.8998 39.6887 38.867C39.5938 38.83 39.4863 38.8598 39.4174 38.9348C39.3541 39.0038 39.2854 39.0726 39.2168 39.1414C38.974 39.385 38.7311 39.6286 38.7227 39.8797C38.6886 40.9155 38.7388 41.9541 38.7893 42.9989C38.7984 43.1878 38.8076 43.3769 38.8162 43.5663C38.8317 43.9044 39.1095 44.1721 39.448 44.1721H39.4918C39.8552 44.1721 40.1431 43.8652 40.1198 43.5025C40.0224 41.9834 39.929 40.525 39.836 39.0685ZM24.6298 11.2032L24.6263 11.2038C24.6095 11.2066 24.5928 11.2093 24.5762 11.2121C24.2609 11.2643 24.035 11.5447 24.0509 11.8638C24.0857 12.5645 24.1196 13.2477 24.1533 13.9249L24.1552 13.9618C24.1893 14.6492 24.2232 15.3306 24.2573 16.0181C24.2583 16.0372 24.2767 16.0506 24.2952 16.0455C25.4671 15.7221 25.4981 15.7135 25.4836 14.9009C25.4683 14.0721 25.4287 13.2437 25.3859 12.3466C25.3772 12.1655 25.3684 11.9816 25.3597 11.7944C25.3421 11.4187 25.0008 11.1418 24.6298 11.2032ZM34.2795 27.9366C34.8009 27.9032 35.0385 27.2957 34.6062 27.0022C33.7284 26.4061 32.7511 26.2197 31.6542 26.3599C31.3475 26.3991 31.1367 26.6778 31.1527 26.9866C31.1592 27.1145 31.1658 27.2412 31.1723 27.3682C31.1746 27.411 31.1768 27.4539 31.179 27.4968C31.1971 27.847 31.4979 28.115 31.8478 28.0926L32.6431 28.0416C33.1988 28.0059 33.7419 27.9711 34.2795 27.9366ZM24.0465 39.488L23.9067 39.5592C23.8643 39.5807 23.8388 39.6254 23.8418 39.6729C23.9447 41.2809 24.0476 42.8893 24.1504 44.5017C24.1683 44.7817 24.4006 44.9997 24.6812 44.9997C24.9868 44.9997 25.2295 44.7427 25.2136 44.4375C25.2014 44.2034 25.1897 43.9705 25.1782 43.7387L25.1781 43.7382C25.1199 42.571 25.0629 41.431 24.9398 40.2983C24.9169 40.0866 24.6771 39.8984 24.4372 39.7101C24.3522 39.6434 24.2672 39.5767 24.1918 39.5089C24.152 39.4731 24.0942 39.4637 24.0465 39.488ZM26.3799 11.066C26.0701 11.0661 25.8047 11.2915 25.7762 11.6C25.6584 12.8782 25.778 14.3951 26.0795 15.2289C26.0985 15.2813 26.1529 15.3115 26.208 15.3024C26.6563 15.2283 27.1143 15.1525 27.1111 14.5288C27.107 13.723 27.078 12.9175 27.0486 12.1019C27.0435 11.9603 27.0384 11.8184 27.0334 11.6761C27.0215 11.3361 26.7426 11.0659 26.4023 11.066C26.3948 11.066 26.3874 11.066 26.3799 11.066ZM26.2325 40.6111C25.9169 40.4514 25.6063 40.7703 25.6063 41.124V44.3885C25.6063 44.7546 25.9175 45.0434 26.2825 45.0162C26.3099 45.0142 26.3371 45.0122 26.3642 45.0102C26.6521 44.9887 26.8703 44.7413 26.8545 44.453C26.8441 44.263 26.8336 44.0753 26.8232 43.8894C26.7777 43.075 26.7341 42.296 26.7093 41.5161C26.6942 41.0419 26.525 40.759 26.2325 40.6111ZM36.1687 15.0884C36.5278 15.219 36.8638 14.8788 36.8567 14.4968C36.8537 14.339 36.8515 14.1819 36.8494 14.0252C36.8359 13.0559 36.8227 12.106 36.6304 11.1503C36.5806 10.9029 36.3494 10.7396 36.0978 10.7591C36.088 10.7599 36.0782 10.7606 36.0683 10.7614C35.7271 10.7879 35.4695 11.0823 35.4884 11.424C35.4944 11.5319 35.5003 11.6392 35.5062 11.7459L35.5124 11.8572C35.5601 12.7209 35.6059 13.549 35.6544 14.3768C35.6776 14.7751 35.8608 14.9764 36.1687 15.0884ZM38.261 40.1972C38.2562 40.1232 38.1777 40.0778 38.1112 40.1105C37.0375 40.6384 36.994 40.6597 37.0069 41.1644C37.0262 41.9054 37.0735 42.6456 37.1237 43.4303L37.1238 43.4317L37.124 43.4352L37.1241 43.4365L37.1242 43.4383L37.1243 43.4391L37.1243 43.4402L37.1244 43.4414C37.1413 43.706 37.1586 43.9757 37.1752 44.2523C37.1822 44.3704 37.2897 44.4568 37.4065 44.438C37.6011 44.4067 37.7789 44.3782 37.9571 44.3495C38.2773 44.2981 38.506 44.0116 38.4852 43.6879L38.261 40.1972ZM35.2229 13.728C35.2291 13.0042 35.2349 12.3383 35.2086 11.6739C35.1777 10.888 35.1157 10.7261 34.4709 10.8149C34.1726 10.856 33.9599 11.1223 33.9599 11.4234V13.9177C33.9599 14.1916 34.1104 14.4256 34.3715 14.5084C34.7769 14.637 35.2177 14.3427 35.2213 13.9174C35.2218 13.8551 35.2223 13.7932 35.2229 13.7317V13.728ZM27.8662 41.1492C27.5495 41.0223 27.2635 41.3338 27.2635 41.6749V44.391C27.2635 44.7361 27.6373 44.9888 27.978 44.934C28.2498 44.8903 28.385 44.6662 28.3847 44.3909C28.3846 44.2539 28.3844 44.1186 28.3842 43.9846V43.9764C28.3835 43.3301 28.3827 42.7158 28.3862 42.1021C28.3885 41.6055 28.2202 41.2911 27.8662 41.1492ZM28.6633 11.5864C28.6633 11.26 28.3909 10.9997 28.0649 11.0145C27.7592 11.0284 27.5184 11.2803 27.5184 11.5864V14.0084C27.5184 14.4145 27.9296 14.6915 28.306 14.5389C28.522 14.4513 28.6633 14.2415 28.6633 14.0084V11.5864ZM32.92 14.3768C33.2386 14.4048 33.4538 14.1485 33.4538 13.8287V11.4126C33.4538 11.1319 33.2117 10.9125 32.9324 10.9401C32.6101 10.972 32.3638 11.2431 32.3638 11.5668V13.8286C32.3638 14.1111 32.6385 14.352 32.92 14.3768ZM30.6716 11.7523L30.6716 11.7547V11.7574C30.6697 12.4237 30.668 13.0351 30.6797 13.6463C30.6825 13.79 30.722 13.933 30.7659 14.0918C30.8058 14.2361 30.9362 14.3396 31.0859 14.3396H31.3256C31.6648 14.3396 31.942 14.0672 31.9561 13.7283C31.958 13.6822 31.96 13.6361 31.962 13.5902C31.9943 12.8319 32.0255 12.0987 31.8485 11.3676C31.7873 11.1146 31.5506 10.9522 31.2903 10.9522C30.9494 10.9522 30.673 11.2286 30.6721 11.5695C30.6719 11.6309 30.6717 11.6919 30.6716 11.7523ZM28.8701 44.2597C28.8701 44.6444 29.2875 44.9148 29.6619 44.8264C29.9311 44.7629 30.0626 44.5364 30.0656 44.2598C30.0665 44.1715 30.0676 44.0846 30.0687 43.9989C30.0749 43.5018 30.0806 43.0449 30.0556 42.5898C30.0136 41.8298 29.9768 41.6455 29.4631 41.6306C29.1302 41.6209 28.8701 41.9112 28.8701 42.2443V44.2597ZM55.6041 10.8605C55.5032 10.3324 55.052 10.4306 55.0526 10.9683C55.0536 11.9514 55.1358 12.9291 55.2178 13.9058C55.2547 14.3443 55.7235 14.3741 55.75 13.9348C55.8158 12.8437 55.7672 11.7137 55.6041 10.8605ZM36.1537 44.4081C36.4945 44.3855 36.7615 44.0907 36.7397 43.7499C36.693 43.0225 36.6483 42.326 36.604 41.6345C36.582 41.2925 36.2829 41.0078 35.9558 41.1102C35.5221 41.2461 35.3301 41.5425 35.3882 42.1034C35.442 42.6219 35.4699 43.1432 35.4991 43.6888L35.4991 43.6898C35.5016 43.7357 35.5041 43.7819 35.5066 43.8282C35.525 44.1707 35.8115 44.4308 36.1537 44.4081ZM32.4531 41.8175C32.2309 41.8175 32.0559 42.0071 32.0738 42.2286C32.1306 42.9333 32.181 43.5572 32.2285 44.1475C32.2499 44.4126 32.434 44.6483 32.6984 44.677C33.1596 44.7272 33.4285 44.5695 33.4203 44.003C33.4134 43.5118 33.3864 43.0211 33.3585 42.5142C33.3567 42.4817 33.3549 42.4491 33.3531 42.4164C33.3347 42.0812 33.0579 41.8175 32.7222 41.8175H32.4531ZM34.4694 44.4613C34.8291 44.4613 35.1146 44.1586 35.0935 43.7995C35.0636 43.2887 35.0349 42.7986 35.005 42.2884C34.98 41.8624 34.4884 41.6071 34.0904 41.761C33.8326 41.8607 33.7203 42.0973 33.7397 42.373C33.7763 42.8912 33.8107 43.3809 33.8458 43.88C33.8688 44.2074 34.1412 44.4613 34.4694 44.4613ZM29.6059 10.9811C29.3239 10.9811 29.085 11.1922 29.0562 11.4728C28.9465 12.5422 28.9679 13.2001 29.1639 13.6331C29.3409 14.0241 29.8322 13.7997 29.8957 13.3752C29.9293 13.1509 29.9629 12.9266 29.9966 12.7014C30.0499 12.3453 30.1035 11.9869 30.1581 11.6221C30.2086 11.2845 29.9472 10.9811 29.6059 10.9811ZM31.1403 44.7327C31.4618 44.6989 31.6256 44.3993 31.5569 44.0835C31.4042 43.3814 31.271 42.7689 31.1406 42.1691C31.0941 41.9548 30.9372 41.7461 30.7194 41.7712C30.4955 41.7971 30.379 41.9775 30.3884 42.3026C30.404 42.8482 30.4353 43.3932 30.4691 43.9799L30.4692 43.9817L30.4694 43.9842L30.4696 43.9883C30.4741 44.0672 30.4787 44.1469 30.4833 44.2274C30.501 44.5378 30.8312 44.7652 31.1403 44.7327Z" fill="#1A655E"/>
</svg>
