<svg width="53" height="60" viewBox="0 0 53 60" fill="none" xmlns="http://www.w3.org/2000/svg">
<path d="M51.0826 11.3005C49.2705 9.99356 46.2665 9.55461 44.1605 8.84725C41.5809 7.98085 39.0007 7.11391 36.4211 6.24751C31.2613 4.51418 26.1021 2.78136 20.9423 1.04803C19.7269 0.639943 15.2566 2.92681 15.255 4.3274C15.2482 10.4085 15.2419 16.489 15.2351 22.57C15.2309 26.4777 15.3498 30.4216 15.3456 34.3528C14.0134 33.7124 12.5444 33.3687 10.9895 33.4498C7.53917 33.6303 3.38108 35.8989 1.6622 38.9511C0.00724316 41.8899 0.73282 45.8212 3.00021 48.2315C5.20525 50.5749 8.19612 50.9458 11.1519 49.9706C14.335 48.9206 17.6057 46.822 19.4482 43.967C21.7601 40.3842 21.1493 35.7592 21.154 31.7018C21.1582 28.029 21.1618 24.3562 21.166 20.6829C24.0725 21.8449 27.1011 22.7715 30.0003 23.8184C31.2828 24.2814 45.1239 29.0105 45.0118 29.3909C44.8856 29.8188 45.2565 29.8806 45.7552 29.799C45.6138 33.3248 45.4728 36.8505 45.3314 40.3763C40.914 40.731 36.5123 42.2326 33.1835 45.0762C29.115 48.5517 29.6975 54.6249 34.1967 57.4931C38.5167 60.2471 43.8687 57.7709 47.2436 54.5961C51.3681 50.7156 51.7867 45.2802 51.1633 40.0038C51.3681 34.8933 51.5725 29.7827 51.7773 24.6722C51.8857 21.9595 51.9947 19.2462 52.1031 16.5335C52.1734 14.8048 52.6983 12.4656 51.0826 11.3005ZM6.55164 37.21C6.5574 37.2095 6.56264 37.2105 6.56841 37.21C6.55217 37.2142 6.53906 37.2163 6.5223 37.221C5.76947 37.2011 5.77943 37.1969 6.55164 37.21ZM12.2688 46.7279C9.98364 46.4024 8.14846 44.3976 7.30762 42.3582C6.79892 41.125 6.59827 39.8275 6.79001 38.4981C6.81464 38.2098 6.87331 37.9283 6.96604 37.6542C7.09858 37.4308 7.12844 37.2832 7.05771 37.2105C7.21069 37.2231 7.36314 37.2455 7.51402 37.2817C10.2393 37.7044 12.3977 39.4702 13.9447 41.666C14.1344 41.9349 14.5697 41.9605 15.1224 41.8298C14.9731 43.8346 14.52 47.0481 12.2688 46.7279ZM44.7912 51.9629C44.5125 52.8189 44.0107 53.5388 43.6963 54.3607C43.1001 54.886 43.0802 55.0817 43.6376 54.9472C44.2087 54.9012 44.1212 54.9169 43.3752 54.9948C42.0754 54.8546 41.0104 54.6375 39.8788 53.9202C37.6596 52.5128 36.1958 49.9204 36.3257 47.2741C36.354 46.6996 36.3923 45.9185 36.6914 45.3995C37.132 44.6356 37.7743 44.5624 38.8247 44.3437C40.9894 43.8932 43.1876 43.9241 45.3675 44.2213C45.6342 46.821 45.6085 49.4537 44.7912 51.9629Z" fill="#F29E5A" stroke="#8E460B" stroke-width="1.24047"/>
</svg>
