<svg width="37" height="60" viewBox="0 0 37 60" fill="none" xmlns="http://www.w3.org/2000/svg">
<path d="M27.9537 31.628C27.9537 31.628 27.9537 31.621 27.9537 31.614C27.8906 31.4809 27.7994 31.3688 27.7082 31.2567C27.6381 31.1657 27.5609 31.0746 27.5048 30.9695C27.5048 30.9695 27.5048 30.9625 27.5048 30.9555C27.5048 30.9275 27.4978 30.8925 27.4837 30.8644C27.5329 30.7874 27.5329 30.7033 27.4978 30.6263C27.5329 30.5422 27.5399 30.4511 27.4837 30.3671C27.4627 30.332 27.4417 30.297 27.4206 30.262C27.4206 30.262 27.4206 30.262 27.4206 30.255C27.4136 30.234 27.3996 30.2059 27.3926 30.1849C27.3505 30.0728 27.3224 29.9608 27.2873 29.8487C27.2102 29.6035 27.14 29.3513 27.0138 29.1201C26.9787 29.0501 26.9015 29.008 26.8244 28.994C26.7542 28.966 26.6771 28.973 26.5929 29.0221L24.0816 30.5632L17.1019 8.09035C17.1019 8.09035 17.151 8.05532 17.1721 8.03431C17.3755 7.84517 17.5088 7.59998 17.5228 7.32678C17.5368 7.01855 17.3264 6.74534 17.0668 6.59823C16.8283 6.46513 16.5267 6.50716 16.2672 6.5632C16.0146 6.62625 15.7761 6.72433 15.5306 6.80138C15.5306 6.80138 8.80345 8.79788 8.72629 8.8189C8.28436 8.93799 7.9266 9.27424 7.79332 9.70856C7.67407 10.1009 7.80735 10.5632 8.20018 10.7453C8.41764 10.8434 8.64912 10.8574 8.88061 10.8224L11.0201 17.7226C9.89074 18.1779 8.79643 18.7173 7.76526 19.3688C6.17993 20.3706 4.79802 21.6245 3.63357 23.0956C1.62735 25.6315 0.434844 28.6438 0.112165 31.8592C-0.182455 34.7523 0.154254 37.7016 0.996025 40.4826C1.84481 43.2847 3.24075 46.0098 5.35219 48.0693C6.36231 49.0641 7.55482 49.8907 8.86658 50.4371C10.3397 51.0536 11.9601 51.4319 13.5665 51.3968C13.6366 52.3005 13.7208 53.2112 13.819 54.1149L13.5524 54.1989L14.4293 57.0291L33.5094 51.1306L32.6396 48.3215L31.6575 48.6228C31.6575 48.6228 31.6435 48.6228 31.6295 48.6228L30.472 48.98C30.2897 48.4406 29.7215 46.7944 29.7215 46.7944L21.3037 49.3933C21.3037 49.3933 21.3037 49.4634 21.3248 49.4984C21.3248 49.5194 21.3248 49.5474 21.3388 49.5685L21.921 51.4599C21.9351 51.5159 21.9772 51.565 22.0193 51.593L19.8727 52.2585L17.4737 44.5107L19.7114 43.8171L20.2515 45.5685C20.2235 45.7506 20.3708 45.9678 20.6093 45.8977L28.6692 43.4038C28.8236 43.3548 28.8797 43.2147 28.8586 43.0886C28.8797 43.0326 28.8797 42.9765 28.8586 42.9135L28.3115 41.1481L29.9109 40.6508C29.981 40.6298 30.0301 40.5877 30.0582 40.5387C30.1564 40.4686 30.2055 40.3495 30.1634 40.2234L29.9319 39.4809C29.981 39.3058 29.8547 39.0746 29.6513 39.0956C29.6162 39.0956 29.5741 39.0956 29.5391 39.1026C29.511 39.1166 29.483 39.1306 29.4549 39.1516L29.3076 39.1937C29.3076 39.1937 29.2865 39.1657 29.2795 39.1446C29.2725 39.1306 29.2655 39.1096 29.2585 39.0956C29.2585 39.0956 29.2585 39.0956 29.2585 39.0886C29.2585 39.0606 29.2234 39.0115 29.2094 38.9835C29.1954 38.9485 29.1813 38.9135 29.1673 38.8784C29.1042 38.7173 29.034 38.5562 28.9428 38.4021C28.8937 38.325 28.7885 38.255 28.6973 38.269C28.5079 38.297 28.3325 38.3531 28.1642 38.4301C28.1291 38.4441 28.094 38.4651 28.059 38.4791C28.0099 38.5002 27.9397 38.5282 27.8906 38.5562C27.8976 38.5562 27.9046 38.5492 27.9116 38.5422C27.9046 38.5422 27.8906 38.5562 27.8836 38.5562C27.8625 38.5632 27.8415 38.5702 27.8275 38.5842C27.7854 38.5982 27.7503 38.6193 27.7082 38.6333C27.5609 38.6893 27.4837 38.8294 27.5188 38.9835C27.5258 39.0256 27.5399 39.0606 27.5469 39.1026C27.5469 39.1236 27.5539 39.2077 27.5469 39.1166C27.5469 39.1376 27.5469 39.1516 27.5539 39.1727C27.5679 39.2707 27.582 39.3758 27.61 39.4669C27.6311 39.5439 27.6661 39.621 27.7012 39.684L18.6101 42.4932C18.6101 42.4932 18.589 42.4651 18.582 42.4441C18.575 42.4301 18.568 42.4091 18.561 42.3951C18.561 42.3951 18.561 42.3951 18.561 42.3881C18.561 42.3601 18.5259 42.311 18.5119 42.283C18.4978 42.248 18.4838 42.2129 18.4698 42.1779C18.4067 42.0168 18.3365 41.8557 18.2453 41.7016C18.1962 41.6245 18.091 41.5545 17.9998 41.5685C17.8104 41.5965 17.635 41.6525 17.4667 41.7296C17.4316 41.7436 17.3965 41.7646 17.3615 41.7786C17.3123 41.7996 17.2422 41.8277 17.1931 41.8557C17.2001 41.8557 17.2071 41.8487 17.2141 41.8417C17.2071 41.8417 17.1931 41.8557 17.1861 41.8557C17.165 41.8627 17.144 41.8697 17.13 41.8837C17.0879 41.8977 17.0528 41.9187 17.0107 41.9327C16.8634 41.9888 16.7862 42.1289 16.8213 42.29C16.8283 42.332 16.8424 42.3671 16.8494 42.4091C16.8494 42.4301 16.8564 42.5142 16.8494 42.4231C16.8494 42.4441 16.8494 42.4581 16.8564 42.4791C16.8704 42.5772 16.8845 42.6823 16.9125 42.7734C16.9336 42.8504 16.9686 42.9275 17.0037 42.9905L16.7161 43.0816C16.3092 42.8854 15.7831 42.9905 15.3622 43.1516C14.7029 43.4108 14.0785 43.8101 13.6998 44.4126C13.2648 45.1131 13.2648 45.9748 13.3069 46.7734C13.3139 46.9555 13.328 47.1446 13.335 47.3268C12.1284 46.6333 11.1253 45.6175 10.3467 44.4476C9.3015 42.8644 8.52987 41.0991 8.08794 39.2567C7.65303 37.4284 7.55482 35.4949 7.98974 33.6595C8.41764 31.8522 9.3997 30.241 10.8868 29.1131C11.8479 28.3846 12.9492 27.8732 14.0996 27.5439L15.8884 33.3233C15.9094 33.4003 15.9585 33.4564 16.0146 33.4844C16.0146 33.4844 16.0216 33.4844 16.0287 33.4844C16.0567 33.4984 16.0918 33.5124 16.1339 33.5124C16.3163 33.6665 16.5197 33.8066 16.7231 33.9327C16.9897 34.1009 17.2843 34.269 17.5929 34.346C17.6631 34.3601 17.7332 34.3671 17.8104 34.3671L14.787 36.2164C14.7169 36.2585 14.6818 36.3145 14.6678 36.3706C14.6047 36.4616 14.5836 36.5947 14.6608 36.6858C14.8502 36.91 15.0326 37.1341 15.222 37.3583C15.3131 37.4634 15.4114 37.5685 15.5025 37.6735C15.5657 37.7366 15.6218 37.8066 15.706 37.8557C15.7691 37.8907 15.8322 37.9047 15.8954 37.9047C15.9234 37.9327 15.9515 37.9608 15.9795 37.9958C15.9795 38.0028 15.9936 38.0098 16.0006 38.0168C16.0146 38.0378 16.0357 38.0588 16.0497 38.0798C16.1269 38.1779 16.197 38.276 16.2742 38.3741C16.3794 38.5142 16.4986 38.6823 16.653 38.7944C16.7021 38.8574 16.7722 38.8995 16.8564 38.8995C16.9055 38.9135 16.9616 38.9135 17.0107 38.8995C17.0738 38.8784 17.144 38.8224 17.1791 38.7594C17.1791 38.7594 17.1791 38.7523 17.1791 38.7453L17.3053 38.6683C17.3615 38.6613 17.4176 38.6333 17.4597 38.5842C17.4597 38.5842 17.4597 38.5772 17.4737 38.5702L17.4947 38.5562L18.8556 40.7699C18.9748 40.966 19.2204 40.917 19.3256 40.7699C19.3677 40.7699 19.4098 40.7559 19.4589 40.7278L21.9701 39.1867C22.1315 39.0886 22.1315 38.9135 22.0473 38.7944C22.0894 38.7173 22.0964 38.6193 22.0403 38.5212L20.8127 36.5247L21.0512 36.3776L22.1034 38.0868C22.1946 38.241 22.377 38.1989 22.4612 38.0868C22.4963 38.0868 22.5243 38.0728 22.5594 38.0518L24.4604 36.8819C24.5796 36.8049 24.5796 36.6718 24.5165 36.5807C24.5516 36.5247 24.5586 36.4476 24.5165 36.3706L23.5625 34.8224L23.8852 34.6263L25.246 36.8399C25.3653 37.0361 25.6108 36.987 25.716 36.8399C25.7581 36.8399 25.8002 36.8259 25.8493 36.7979L28.3606 35.2567C28.5219 35.1587 28.5219 34.9835 28.4378 34.8644C28.4798 34.7874 28.4869 34.6893 28.4307 34.5912L27.2032 32.5947L28.0449 32.0763C28.2694 31.9362 28.1782 31.649 27.9888 31.572L27.9537 31.628Z" fill="#5900B2"/>
<path d="M7.73726 21.6934C7.73726 21.6934 7.68114 21.7144 7.6601 21.7284C5.84328 22.2398 4.91031 24.9088 6.2361 26.3659C7.04981 27.2626 8.4668 27.1785 9.46289 26.6601C10.4941 26.1207 11.3078 24.9719 11.1815 23.774C11.1043 23.0314 10.6975 22.3239 10.0662 21.9176C9.38573 21.4692 8.49485 21.4412 7.73025 21.6934H7.73726Z" fill="#5900B2"/>
<path d="M8.67704 10.2688H8.62793C8.36137 10.2688 8.27018 10.0376 8.35436 9.81343C8.51049 9.42362 9.08775 9.29056 9.54345 9.18552C9.66101 9.15842 9.77047 9.13319 9.86253 9.1059C10.6692 8.86772 11.4689 8.62255 12.2685 8.37737C13.0823 8.13218 13.896 7.88698 14.7027 7.6348C14.9026 7.57527 15.1007 7.51399 15.2988 7.45271C15.4969 7.39143 15.6954 7.33005 15.8952 7.27052C15.9125 7.26514 15.9347 7.25781 15.9609 7.24917C16.2756 7.14539 17.1644 6.85231 16.9053 7.46667C16.7944 7.72526 16.4992 7.81069 16.2436 7.88466C16.2083 7.89485 16.1739 7.90482 16.1407 7.91501C15.9338 7.97805 15.7269 8.04284 15.52 8.10763C15.3131 8.17242 15.106 8.23725 14.8991 8.30029C14.4959 8.42635 14.0909 8.55241 13.6859 8.67846L13.6852 8.67869C13.2802 8.80475 12.8752 8.93081 12.472 9.05686C12.1657 9.1538 11.8593 9.24942 11.5535 9.34487C11.1523 9.47009 10.7515 9.59519 10.3536 9.72236C10.2133 9.76789 10.073 9.81168 9.93268 9.85546C9.79239 9.89924 9.65209 9.94303 9.51179 9.98856C9.43152 10.0138 9.34225 10.0487 9.24937 10.085C9.05818 10.1598 8.85172 10.2406 8.67704 10.2548V10.2688Z" fill="#B366FF"/>
<path d="M29.2838 47.321L21.926 49.5956L22.401 51.128L29.7588 48.8535L29.2838 47.321Z" fill="#B366FF"/>
<path d="M14.2065 54.5936L32.2525 49.0151L32.825 50.862L14.779 56.4406L14.2065 54.5936Z" fill="#B366FF"/>
<path d="M27.7659 41.3271L20.2473 43.6513L20.7473 45.2641L28.2658 42.9399L27.7659 41.3271Z" fill="#B366FF"/>
<path d="M17.1983 43.5474L29.4478 39.7606L29.5764 40.1755L17.3269 43.9623L17.1983 43.5474Z" fill="#B366FF"/>
<path d="M28.2201 39.4881C28.2201 39.4881 28.199 39.4601 28.192 39.4601C28.1907 39.4574 28.1893 39.4549 28.1879 39.4526C28.1858 39.449 28.1837 39.4458 28.1815 39.4426C28.178 39.4374 28.1745 39.4321 28.171 39.4251C28.171 39.4188 28.1682 39.4125 28.165 39.4056C28.1612 39.3971 28.157 39.3876 28.157 39.3761C28.1535 39.3585 28.1482 39.3428 28.1429 39.327C28.1377 39.3113 28.1324 39.2955 28.1289 39.278L28.1079 39.1729C28.1289 39.264 28.1079 39.1519 28.1008 39.1239V39.0888C28.1499 39.0678 28.199 39.0468 28.2482 39.0188C28.2692 39.0118 28.2832 39.0048 28.3043 38.9908C28.3589 38.9635 28.4178 38.9404 28.4743 38.9184L28.4962 38.9098L28.5217 38.8997C28.5287 38.8997 28.5428 38.8997 28.5498 38.8927C28.5638 38.9276 28.5777 38.9607 28.5917 38.9939C28.6057 39.0271 28.6199 39.0608 28.634 39.0959L28.6479 39.1287L28.6611 39.1601L28.6616 39.1611C28.6925 39.2349 28.7222 39.3055 28.7602 39.3761L28.2692 39.5302C28.2692 39.5302 28.2411 39.5022 28.2201 39.4881Z" fill="#B366FF"/>
<path d="M17.4806 42.7733C17.4876 42.7733 17.5086 42.8013 17.5086 42.8013C17.5297 42.8153 17.5577 42.8433 17.5577 42.8433L18.0488 42.6892C18.0107 42.6186 17.9811 42.548 17.9501 42.4742C17.9411 42.4528 17.932 42.431 17.9225 42.409C17.9085 42.374 17.8945 42.3408 17.8805 42.3076C17.8665 42.2744 17.8523 42.2408 17.8383 42.2058C17.8313 42.2128 17.8173 42.2128 17.8103 42.2128C17.7949 42.219 17.7791 42.2251 17.7632 42.2314C17.7066 42.2535 17.6475 42.2766 17.5928 42.3039C17.5718 42.3179 17.5577 42.3249 17.5367 42.3319C17.4876 42.3599 17.4385 42.381 17.3894 42.402V42.437C17.3964 42.465 17.4174 42.5771 17.3964 42.486L17.4174 42.5911C17.4209 42.6086 17.4262 42.6244 17.4315 42.6402C17.4367 42.6559 17.442 42.6717 17.4455 42.6892C17.4455 42.7008 17.4497 42.7102 17.4536 42.7187C17.4567 42.7256 17.4595 42.7319 17.4595 42.7382C17.463 42.7452 17.4665 42.7505 17.47 42.7557L17.4744 42.7624C17.4765 42.7656 17.4785 42.7691 17.4806 42.7733Z" fill="#B366FF"/>
<path d="M13.9245 48.3006C13.9734 49.1318 14.0224 49.963 14.0854 50.7943H14.1275C14.1345 50.9834 14.1415 51.1725 14.1555 51.3617H14.1345C14.2047 52.2233 14.2818 53.092 14.373 53.9536L19.3395 52.4195L16.8843 44.5035C16.8422 44.4475 16.8212 44.3774 16.8212 44.3074L16.6738 43.838C16.6388 43.817 16.6107 43.789 16.5897 43.754C16.281 43.2706 15.3691 43.754 15.0184 43.9571C14.4361 44.2934 14.0293 44.7627 13.889 45.4282C13.765 46.0354 13.8149 46.6872 13.8631 47.3168C13.8722 47.4354 13.8812 47.5534 13.889 47.6699C13.896 47.6769 13.91 47.6839 13.9241 47.6839C13.9241 47.8941 13.9451 48.1042 13.9661 48.3144C13.9531 48.3144 13.928 48.3023 13.9245 48.3006Z" fill="#B366FF"/>
<path d="M7.61777 32.833C8.22104 30.9626 9.42758 29.3794 11.076 28.3076C11.9529 27.7402 12.9139 27.3269 13.91 27.0397L11.1883 18.2621C9.69414 18.8715 8.27015 19.6351 6.97943 20.5948C5.57648 21.6386 4.36994 22.9416 3.38086 24.3847C1.61314 26.9556 0.722266 29.9609 0.581971 33.0712C0.46272 35.8313 0.918679 38.6264 1.8306 41.2253C2.75655 43.8593 4.2086 46.3952 6.35512 48.2236C7.43539 49.1412 8.68402 49.8348 10.0379 50.2691C11.1532 50.6264 12.3387 50.8435 13.5172 50.8225L13.4751 50.2761C13.426 49.5265 13.3769 48.77 13.3348 48.0204C12.7315 47.7122 12.1633 47.3269 11.6442 46.8856C10.7814 46.143 10.094 45.2323 9.50474 44.2586C7.48449 40.9381 6.3972 36.6299 7.61777 32.833Z" fill="#B366FF"/>
<path d="M16.3231 32.9238L9.39956 10.5981L16.4704 8.41246C16.5125 8.40545 16.5546 8.39144 16.5967 8.37743L23.5694 30.8643L23.1765 31.1025C23.1345 30.9624 23.0082 30.8503 22.8328 30.9063L16.3231 32.9168V32.9238Z" fill="#B366FF"/>
<path d="M17.4244 33.7368C17.4454 33.7368 17.4875 33.7438 17.4875 33.7438V33.7368C17.5647 33.7648 17.6348 33.7788 17.712 33.7928C17.7471 33.7999 17.7821 33.8069 17.8172 33.8069H17.8733C17.9154 33.7928 17.9645 33.7928 18.0136 33.8069C18.1539 33.8069 18.2942 33.7999 18.4345 33.7858C18.4556 33.7788 18.4836 33.7788 18.5047 33.7788H18.5397C18.5532 33.7766 18.566 33.7743 18.5786 33.7721L18.5994 33.7683C18.6186 33.7648 18.6379 33.7613 18.659 33.7578C18.7432 33.7438 18.8203 33.7228 18.9045 33.6948C18.9326 33.6878 18.9887 33.6668 18.9887 33.6668L22.2225 31.6843L16.7931 33.3655L16.8071 33.3795C16.8254 33.3917 16.8431 33.4039 16.8605 33.4159C16.9033 33.4453 16.9446 33.4738 16.9895 33.4986C17.1157 33.5757 17.249 33.6527 17.3893 33.7228C17.3963 33.7298 17.4104 33.7368 17.4244 33.7368Z" fill="#B366FF"/>
<path d="M21.507 38.8364L19.3044 40.1884C19.1781 40.0973 19.0519 39.9572 18.9536 39.8241C18.8274 39.642 18.7222 39.4528 18.6169 39.2497C18.5717 39.1612 18.5279 39.0717 18.484 38.9821C18.3578 38.7245 18.2312 38.4661 18.0698 38.2269L20.2935 36.8609L21.507 38.8294V38.8364Z" fill="#B366FF"/>
<path d="M21.3852 36.1959L23.1664 35.1033L24.1063 36.6314L22.3251 37.724L21.3852 36.1959Z" fill="#B366FF"/>
<path d="M26.6783 32.949L24.3293 34.3899L25.5409 36.3597L27.8899 34.9188L26.6783 32.949Z" fill="#B366FF"/>
<path d="M17.2491 38.0659V38.0729L27.1469 32.0063C27.0276 31.7822 26.9084 31.558 26.7681 31.3408L16.8913 37.4004C16.8843 37.4074 16.8755 37.4144 16.8668 37.4214C16.858 37.4284 16.8492 37.4354 16.8422 37.4424C16.9053 37.5755 16.9825 37.7016 17.0667 37.8277C17.0947 37.8767 17.1228 37.9188 17.1579 37.9608C17.1789 37.9748 17.1929 37.9958 17.207 38.0168C17.2105 38.0204 17.214 38.0256 17.2175 38.0309C17.221 38.0361 17.2245 38.0414 17.228 38.0449L17.2491 38.0659Z" fill="#B366FF"/>
<path d="M15.6655 36.8896C15.5684 36.7754 15.4711 36.6609 15.3691 36.5525L19.2413 34.1777C19.3675 34.1287 19.4798 34.0656 19.592 33.9956C19.6201 33.9745 19.6481 33.9465 19.6692 33.9185L26.6138 29.6593C26.6138 29.6593 26.6138 29.6733 26.6208 29.6803C26.6629 29.7994 26.6979 29.9185 26.733 30.0375C26.7821 30.2126 26.8383 30.4019 26.9294 30.563L16.0005 37.267C15.885 37.148 15.7754 37.019 15.6655 36.8896Z" fill="#B366FF"/>
<path d="M7.92641 22.9343C7.84924 22.9483 7.76507 22.9763 7.6879 23.0113C7.50552 23.1094 7.36522 23.2985 7.28105 23.4877C7.10568 23.908 7.08463 24.4334 7.32314 24.8327C7.56865 25.253 8.14386 25.4422 8.59281 25.253C9.02772 25.0709 9.35742 24.6576 9.44159 24.1952C9.52577 23.7539 9.37846 23.2495 9.00668 22.9763C8.684 22.7381 8.27714 22.7381 7.93342 22.9273L7.92641 22.9343Z" fill="#5900B2"/>
<path d="M4.95216 30.0304C4.75575 30.0304 4.56635 30.1005 4.41203 30.2196C4.25069 30.2546 4.09636 30.3457 3.97711 30.4858C3.72458 30.787 3.62637 31.2073 3.6404 31.5926C3.64742 31.7958 3.69652 31.9919 3.7807 32.1741C3.87189 32.3772 4.0192 32.5313 4.2086 32.6504C4.56635 32.8746 5.0153 32.8956 5.38006 32.6714C6.03945 32.2721 6.30601 31.2494 5.89916 30.5909C5.70274 30.2686 5.32395 30.0304 4.94515 30.0234L4.95216 30.0304Z" fill="#5900B2"/>
<path d="M14.8784 48.4618C15.6009 48.721 16.4777 48.4759 16.8004 47.7473C17.06 47.1729 17.0179 46.4233 16.6671 45.8979C16.4918 45.6387 16.2322 45.4286 15.9236 45.3795C15.8254 45.3585 15.7201 45.3585 15.6219 45.3655C15.2993 45.3445 14.9766 45.4146 14.71 45.5967C14.3803 45.8209 14.1558 46.1641 14.0366 46.5354C13.9244 46.8857 13.9173 47.285 14.0366 47.6282C14.1769 48.0275 14.4785 48.3217 14.8784 48.4618ZM14.5346 47.313C14.5346 47.313 14.5346 47.2709 14.5276 47.2569C14.5276 47.2009 14.5136 47.1378 14.5136 47.0818C14.5136 47.0398 14.5136 47.0047 14.5136 46.9627C14.5136 46.9627 14.5136 46.9207 14.5206 46.8997C14.5346 46.8156 14.5557 46.7315 14.5837 46.6475C14.5837 46.6405 14.5837 46.6265 14.5908 46.6195C14.5908 46.6125 14.5978 46.5914 14.6048 46.5844C14.6258 46.5424 14.6399 46.5004 14.6609 46.4583C14.682 46.4233 14.696 46.3883 14.717 46.3533C14.717 46.3533 14.717 46.3463 14.724 46.3392C14.8082 46.3392 14.8924 46.3112 14.9625 46.2482C14.9205 46.2832 14.9836 46.2272 14.9906 46.2272C15.0116 46.2132 15.0327 46.1921 15.0537 46.1781C15.0888 46.1501 15.1239 46.1221 15.166 46.1011C15.201 46.0801 15.2361 46.059 15.2712 46.038C15.2922 46.024 15.3063 46.017 15.3273 46.01C15.3273 46.01 15.3554 45.996 15.3694 45.989C15.3904 45.982 15.4325 45.961 15.4395 45.961C15.4746 45.947 15.5097 45.9399 15.5448 45.9259C15.5588 45.9259 15.5939 45.9189 15.6079 45.9189C15.657 45.9259 15.6991 45.9329 15.7482 45.947C15.7973 45.961 15.8464 45.961 15.8885 45.947C15.8885 45.947 15.8745 45.947 15.8674 45.9399C15.8674 45.9399 15.8745 45.9399 15.8815 45.9399C15.8815 45.9399 15.8885 45.9399 15.8955 45.9399C15.9166 45.947 15.9376 45.961 15.9586 45.975C15.9586 45.975 15.9727 45.982 15.9797 45.989C15.9797 45.989 15.9867 45.989 15.9937 45.996C15.9937 45.996 15.9937 45.996 15.9867 45.996C16.0288 46.031 16.0709 46.073 16.113 46.1151C16.113 46.1151 16.12 46.1221 16.127 46.1291C16.148 46.1571 16.1621 46.1781 16.1761 46.2061C16.1901 46.2272 16.2042 46.2482 16.2182 46.2692C16.2252 46.2832 16.2462 46.3322 16.2533 46.3463C16.2953 46.4513 16.3304 46.5564 16.3515 46.6685C16.3515 46.6685 16.3515 46.6615 16.3515 46.6545C16.3515 46.6545 16.3515 46.6685 16.3515 46.6755C16.3515 46.7105 16.3515 46.7105 16.3515 46.7035C16.3515 46.7035 16.3515 46.7035 16.3515 46.7105C16.3515 46.7385 16.3515 46.7666 16.3585 46.7946C16.3585 46.8646 16.3655 46.9277 16.3585 46.9977C16.3585 47.0258 16.3585 47.0608 16.3585 47.0888C16.3585 47.1028 16.3585 47.1098 16.3585 47.1238C16.3515 47.1869 16.3374 47.2569 16.3164 47.32C16.3094 47.355 16.2953 47.383 16.2883 47.4181C16.2883 47.4251 16.2883 47.4321 16.2813 47.4391C16.2533 47.5021 16.2252 47.5582 16.1901 47.6142C16.1901 47.6142 16.1901 47.6212 16.1831 47.6282C16.1831 47.6212 16.1831 47.6142 16.1691 47.6492C16.1691 47.6492 16.1691 47.6562 16.1621 47.6632C16.1621 47.6632 16.1621 47.6632 16.1621 47.6562C16.148 47.6772 16.127 47.6983 16.113 47.7193C16.0919 47.7403 16.0709 47.7683 16.0428 47.7893C16.0428 47.7893 16.0428 47.7893 16.0358 47.7893C16.0428 47.7893 16.0428 47.7823 16.0218 47.8033C16.0218 47.8033 16.0218 47.8033 16.0288 47.7963C16.0218 47.8033 16.0148 47.8104 16.0007 47.8174C16.0007 47.8174 16.0148 47.8103 16.0148 47.8033C16.0148 47.8033 16.0148 47.8033 16.0077 47.8104C15.9586 47.8454 15.9025 47.8734 15.8534 47.9084C15.8394 47.9084 15.8254 47.9224 15.8113 47.9224C15.7763 47.9364 15.7412 47.9434 15.6991 47.9575C15.6851 47.9575 15.671 47.9575 15.657 47.9645C15.6149 47.9645 15.5728 47.9715 15.5307 47.9785C15.4816 47.9785 15.4395 47.9785 15.3904 47.9785C15.3624 47.9785 15.3343 47.9785 15.3133 47.9785C15.2993 47.9785 15.2922 47.9785 15.2782 47.9785C15.2782 47.9785 15.2712 47.9785 15.2572 47.9785C15.173 47.9645 15.0888 47.9435 15.0046 47.9224C15.0046 47.9224 14.9696 47.9084 14.9555 47.9014C14.9134 47.8804 14.8714 47.8594 14.8293 47.8314C14.8222 47.8314 14.8152 47.8244 14.8082 47.8174C14.8082 47.8174 14.8012 47.8103 14.7872 47.8033C14.7591 47.7753 14.7311 47.7543 14.703 47.7263C14.696 47.7193 14.682 47.7053 14.6749 47.6913C14.6539 47.6562 14.6258 47.6212 14.6048 47.5862C14.5908 47.5582 14.5767 47.5301 14.5627 47.5021C14.6048 47.5792 14.5487 47.4741 14.5417 47.4531C14.5346 47.4251 14.5206 47.39 14.5136 47.362C14.5136 47.341 14.5066 47.327 14.4996 47.306L14.5346 47.313Z" fill="#5900B2"/>
<path d="M16.0147 46.0171C16.0077 46.0171 16.0006 46.01 15.9936 46.0029C15.9865 46.0029 15.9936 46.0029 16.0217 46.0171H16.0147Z" fill="#5900B2"/>
</svg>
