<svg width="60" height="46" viewBox="0 0 60 46" fill="none" xmlns="http://www.w3.org/2000/svg">
<path fill-rule="evenodd" clip-rule="evenodd" d="M41.6285 39.1711L41.6201 39.0082C41.779 39.0082 41.9156 39.0078 42.0376 39.0075C42.262 39.0069 42.4375 39.0064 42.6135 39.0086C43.1793 39.016 43.7455 39.0323 44.3116 39.0487L44.3121 39.0487C45.5498 39.0844 46.7873 39.12 48.0206 39.0628C50.5423 38.9462 53.0615 38.7761 55.5807 38.606C56.6561 38.5334 57.7315 38.4608 58.8072 38.3923C58.7524 36.398 58.5998 31.7064 58.4278 28.8942C58.2799 26.4757 58.4222 24.4265 58.5554 22.5091C58.6159 21.6397 58.6744 20.7972 58.7031 19.9599C58.7951 17.2759 58.9817 12.0209 59.1482 9.87065C59.2813 8.15044 59.4402 3.03787 59.5029 0.696605C58.1286 0.648207 56.7545 0.607165 55.3814 0.63197C54.8346 0.641691 54.2902 0.766647 53.7456 0.891619C53.2061 1.01544 52.6665 1.13929 52.1246 1.15106C48.4691 1.23019 44.8111 1.24352 41.1548 1.19922C37.9252 1.16014 34.6963 1.08619 31.4674 1.01225C29.793 0.973901 28.1184 0.935549 26.444 0.902066C26.0972 0.89518 25.7505 0.887919 25.4037 0.880658L25.403 0.880642C23.7143 0.845279 22.0252 0.809908 20.3368 0.817756C18.0695 0.828078 15.8001 0.850436 13.5368 0.96354C11.9356 1.04379 10.3355 1.15141 8.73559 1.25903C6.64861 1.39941 4.56172 1.53978 2.47236 1.61938C1.6559 1.65052 0.838871 1.66642 0.0214941 1.67323C0.272297 2.51221 0.166999 8.65921 0.0829973 11.6278L0.214846 15.1062L0 16.5823C0.0439463 16.6588 0.0723536 16.7578 0.0829973 16.8845C0.0870592 16.9329 0.0885324 16.9852 0.087302 17.0419C0.0868689 17.0612 0.0859469 17.0798 0.0845525 17.0979L0.155626 26.8577L0.0920267 31.9377V34.0097L0.0167727 37.0367C1.40162 36.9935 2.78525 36.9639 4.16204 37.0489C5.44714 37.1282 6.72977 37.2429 8.0126 37.3576C10.3164 37.5636 12.6211 37.7697 14.9418 37.7714C15.8138 37.7719 16.6857 37.8694 17.5713 37.9683C17.9815 38.0141 18.3948 38.0603 18.8122 38.0973L18.7812 38.3497C18.6853 39.1301 18.6023 39.8051 18.5288 40.4041C18.1727 40.4041 17.8282 40.3957 17.4922 40.3874C16.7551 40.3693 16.0593 40.3522 15.3739 40.4278C14.5181 40.522 13.674 40.7301 12.8323 40.9376C12.6399 40.985 12.4475 41.0325 12.2552 41.0785C11.9619 41.1486 11.58 41.2664 11.4403 41.4887C10.7844 42.5342 11.6669 44.5636 12.8663 44.7042L13.135 44.7358C15.2453 44.9837 17.3622 45.2323 19.4827 45.3136C25.1757 45.5312 30.8537 45.1429 36.5313 44.7545C36.7773 44.7377 37.0235 44.7205 37.2699 44.7033C39.561 44.5434 41.8637 44.3827 44.1454 44.5038C45.9598 44.6002 46.6104 43.7981 46.0823 42.0873C46.059 42.0116 46.0372 41.9352 46.0155 41.8589L46.0151 41.8577C45.9736 41.712 45.9321 41.5663 45.8797 41.4247C45.5452 40.5172 45.2837 40.3878 44.335 40.4407C43.7433 40.4733 43.1495 40.4656 42.5364 40.4577C42.2602 40.4542 41.98 40.4506 41.6945 40.4506C41.6822 40.211 41.6709 39.9939 41.6596 39.7741C41.6496 39.5808 41.6395 39.3855 41.6285 39.1711Z" fill="#F29E5A"/>
<path fill-rule="evenodd" clip-rule="evenodd" d="M56.6679 7.43715C56.7391 6.33207 56.8111 5.2139 56.8835 4.07666C56.6943 3.72531 56.2122 3.55931 55.6028 3.58039C54.5393 3.61995 53.4745 3.63629 52.4101 3.63543C50.64 3.6339 48.8698 3.62229 47.0995 3.61068C43.4082 3.58648 39.7169 3.56227 36.0272 3.62942C34.2141 3.6624 32.4006 3.66316 30.587 3.66393C26.2521 3.66575 21.9167 3.66758 17.5848 4.10934C15.208 4.35174 12.8116 4.39986 10.4148 4.44799C9.20136 4.47235 7.98786 4.49672 6.77675 4.5463C6.0405 4.5764 5.29951 4.66973 4.57745 4.81723C3.26665 5.08473 3.25116 5.15481 3.28858 6.46991C3.30626 7.09162 3.32446 7.71332 3.34265 8.33501C3.41921 10.9502 3.49577 13.5653 3.53329 16.1809C3.54546 17.0315 3.5188 17.8827 3.49214 18.7339C3.46227 19.6876 3.4324 20.6412 3.45717 21.5936C3.55565 25.3884 3.55178 29.175 3.11571 32.953C3.00863 33.8815 3.19827 34.1043 4.15212 34.1632C5.58334 34.2518 7.01757 34.3176 8.45137 34.3326C10.9976 34.3599 13.5439 34.3785 16.0903 34.3972C19.3288 34.421 22.5673 34.4447 25.8057 34.4861C31.4958 34.5588 37.1862 34.6358 42.8741 34.7945C45.337 34.8633 47.7979 34.9998 50.259 35.1362C51.4898 35.2045 52.7207 35.2727 53.9518 35.3325C54.2845 35.3488 54.6183 35.3449 54.995 35.3405C55.1833 35.3383 55.3823 35.3359 55.5972 35.3359C55.8599 33.3662 55.7548 31.4376 55.6509 29.529C55.5654 27.96 55.4806 26.4045 55.6015 24.8508C55.7736 22.6415 55.8928 20.4281 56.0119 18.2147C56.0766 17.0106 56.1414 15.8066 56.2148 14.6031C56.3591 12.2353 56.5115 9.86786 56.6679 7.43715ZM54.938 33.4087C54.9401 33.8242 54.9423 34.2507 54.9423 34.6934C54.4767 34.6934 54.0309 34.7029 53.599 34.712C52.7054 34.731 51.8711 34.7487 51.0442 34.6788C42.7885 33.9843 34.5195 33.789 26.2388 33.866C25.3391 33.8746 24.4389 33.8325 23.5387 33.7904C22.6824 33.7503 21.826 33.7102 20.9698 33.7138C19.5892 33.7197 18.2087 33.7529 16.8281 33.7862C15.2964 33.8231 13.7646 33.86 12.2328 33.8596C10.3279 33.8589 8.42293 33.8007 6.51797 33.7425C5.78885 33.7203 5.05973 33.698 4.33061 33.6789C4.21462 33.6761 4.09918 33.6511 3.95076 33.6188C3.87135 33.6016 3.7825 33.5823 3.67908 33.5632C3.71587 31.284 3.77308 29.0059 3.83032 26.7268C4.00725 19.6816 4.1844 12.628 3.75906 5.50961C4.18871 5.50961 4.6071 5.50517 5.01771 5.50081C5.88486 5.4916 6.71736 5.48276 7.54827 5.51691C11.1306 5.6634 14.7041 5.48732 18.2773 5.31124C20.5679 5.19837 22.8584 5.0855 25.1512 5.05762C27.0273 5.0347 28.9035 5.01733 30.7797 4.99997C32.8821 4.98051 34.9846 4.96105 37.0869 4.93378C40.8677 4.88467 44.6483 4.82885 48.4289 4.77303C50.4749 4.74282 52.5208 4.71262 54.5668 4.68347C54.8719 4.67916 55.1773 4.68023 55.5148 4.68141C55.682 4.68199 55.8571 4.68261 56.044 4.68261C56.044 5.03172 56.0498 5.37176 56.0555 5.70535C56.0676 6.41142 56.0791 7.08859 56.0341 7.7618C55.938 9.19818 55.8251 10.6336 55.7121 12.069C55.5278 14.4107 55.3434 16.7522 55.2325 19.0971C55.095 22.0016 55.0475 24.9106 55 27.8195C54.9833 28.8399 54.9667 29.8604 54.9461 30.8806C54.9295 31.7068 54.9336 32.5333 54.938 33.4087Z" fill="#8E460B"/>
<path fill-rule="evenodd" clip-rule="evenodd" d="M41.6285 39.1711L41.6201 39.0082C41.779 39.0082 41.9156 39.0078 42.0376 39.0075C42.262 39.0069 42.4375 39.0064 42.6135 39.0086C43.1793 39.016 43.7455 39.0323 44.3116 39.0487L44.3121 39.0487C45.5498 39.0844 46.7873 39.12 48.0206 39.0628C50.5423 38.9462 53.0615 38.7761 55.5807 38.606C56.6561 38.5334 57.7315 38.4608 58.8072 38.3923C58.7524 36.398 58.5998 31.7064 58.4278 28.8942C58.2799 26.4757 58.4222 24.4265 58.5554 22.5091C58.6159 21.6397 58.6744 20.7972 58.7031 19.9599C58.7951 17.2759 58.9817 12.0209 59.1482 9.87065C59.2813 8.15044 59.4402 3.03787 59.5029 0.696605C58.1286 0.648207 56.7545 0.607165 55.3814 0.63197C54.8346 0.641691 54.2902 0.766647 53.7456 0.891619C53.2061 1.01544 52.6665 1.13929 52.1246 1.15106C48.4691 1.23019 44.8111 1.24352 41.1548 1.19922C37.9252 1.16014 34.6963 1.08619 31.4674 1.01225C29.793 0.973901 28.1184 0.935549 26.444 0.902066C26.0972 0.89518 25.7505 0.887919 25.4037 0.880658L25.403 0.880642C23.7143 0.845279 22.0252 0.809908 20.3368 0.817756C18.0695 0.828078 15.8001 0.850436 13.5368 0.96354C11.9356 1.04379 10.3355 1.15141 8.73559 1.25903C6.64861 1.39941 4.56172 1.53978 2.47236 1.61938C1.6559 1.65052 0.838871 1.66642 0.0214941 1.67323C0.272297 2.51221 0.166999 8.65921 0.0829973 11.6278L0.214846 15.1062L0 16.5823C0.0439463 16.6588 0.0723536 16.7578 0.0829973 16.8845C0.0870592 16.9329 0.0885324 16.9852 0.087302 17.0419C0.0868689 17.0612 0.0859469 17.0798 0.0845525 17.0979L0.155626 26.8577L0.0920267 31.9377V34.0097L0.0167727 37.0367C1.40162 36.9935 2.78525 36.9639 4.16204 37.0489C5.44714 37.1282 6.72977 37.2429 8.0126 37.3576C10.3164 37.5636 12.6211 37.7697 14.9418 37.7714C15.8138 37.7719 16.6857 37.8694 17.5713 37.9683C17.9815 38.0141 18.3948 38.0603 18.8122 38.0973L18.7812 38.3497C18.6853 39.1301 18.6023 39.8051 18.5288 40.4041C18.1727 40.4041 17.8282 40.3957 17.4922 40.3874C16.7551 40.3693 16.0593 40.3522 15.3739 40.4278C14.5181 40.522 13.674 40.7301 12.8323 40.9376C12.6399 40.985 12.4475 41.0325 12.2552 41.0785C11.9619 41.1486 11.58 41.2664 11.4403 41.4887C10.7844 42.5342 11.6669 44.5636 12.8663 44.7042L13.135 44.7358C15.2453 44.9837 17.3622 45.2323 19.4827 45.3136C25.1757 45.5312 30.8537 45.1429 36.5313 44.7545C36.7773 44.7377 37.0235 44.7205 37.2699 44.7033C39.561 44.5434 41.8637 44.3827 44.1454 44.5038C45.9598 44.6002 46.6104 43.7981 46.0823 42.0873C46.059 42.0116 46.0372 41.9352 46.0155 41.8589L46.0151 41.8577C45.9736 41.712 45.9321 41.5663 45.8797 41.4247C45.5452 40.5172 45.2837 40.3878 44.335 40.4407C43.7433 40.4733 43.1495 40.4656 42.5364 40.4577C42.2602 40.4542 41.98 40.4506 41.6945 40.4506C41.6822 40.211 41.6709 39.9939 41.6596 39.7741C41.6496 39.5808 41.6395 39.3855 41.6285 39.1711ZM57.7642 36.6389C57.7533 36.8008 57.7421 36.9694 57.7337 37.1478C57.1152 37.1934 56.5055 37.2452 55.9015 37.2966C54.5869 37.4083 53.3001 37.5177 52.0115 37.5555C51.5202 37.57 51.0288 37.5851 50.5373 37.6002C47.2396 37.7015 43.939 37.8029 40.6439 37.7258C38.2715 37.6703 35.9024 37.4844 33.5332 37.2985L33.5326 37.2985C32.3549 37.206 31.1773 37.1136 29.9992 37.0372C29.1831 36.9844 28.3645 36.9645 27.5462 36.9447C27.3465 36.9399 27.1468 36.935 26.9471 36.9297C25.8231 36.8996 24.6987 36.8761 23.5744 36.8526C21.1844 36.8027 18.7941 36.7528 16.4074 36.639C14.2096 36.534 12.0142 36.3804 9.81864 36.2267L9.81791 36.2267C8.19149 36.1128 6.56502 35.999 4.93745 35.9049C4.06558 35.8545 3.19015 35.8671 2.2579 35.8804C1.8134 35.8868 1.35598 35.8933 0.879871 35.8933C0.868207 35.6502 0.854272 35.4236 0.841013 35.2079C0.81469 34.7796 0.791014 34.3943 0.793015 34.0097C0.800949 32.5111 0.814552 31.0125 0.828155 29.5139L0.828162 29.5132C0.850689 27.0315 0.873217 24.5497 0.870001 22.068C0.864808 17.9055 0.840242 13.7431 0.815674 9.58046L0.815615 9.57043C0.803596 7.53351 0.791578 5.49657 0.781833 3.45957C0.781295 3.37413 0.792507 3.28853 0.809388 3.15965C0.819526 3.08224 0.831708 2.98923 0.844619 2.87127C1.07985 2.85754 1.31732 2.84274 1.55634 2.82785C2.07366 2.79561 2.59847 2.7629 3.12347 2.73966C3.96587 2.70222 4.80851 2.66841 5.65116 2.6346C7.07342 2.57754 8.49573 2.52048 9.91702 2.44594C10.9929 2.38943 12.0686 2.31079 13.1442 2.23216C15.2033 2.08162 17.2622 1.93111 19.321 1.93591C23.1811 1.94489 27.0409 2.01898 30.9009 2.09308C34.069 2.15389 37.2372 2.21471 40.4056 2.23952C42.3583 2.25488 44.3113 2.18645 46.2646 2.11801C47.5931 2.07146 48.9217 2.0249 50.2504 2.00471C52.1913 1.97533 54.1331 1.98239 56.1146 1.98959C57.0053 1.99283 57.9041 1.9961 58.8145 1.9961C58.8145 2.25135 58.8167 2.508 58.8189 2.76557V2.76649C58.8239 3.35569 58.8289 3.94972 58.808 4.5429C58.7905 5.0434 58.7536 5.54313 58.7168 6.04287C58.6857 6.46419 58.6546 6.8855 58.6351 7.30727C58.5617 8.88904 58.4921 10.4711 58.4225 12.0531L58.4224 12.0537C58.3091 14.6295 58.1958 17.2053 58.0658 19.7801C58.0086 20.9113 57.9305 22.0419 57.8524 23.1724L57.8524 23.173C57.7267 24.993 57.601 26.8127 57.5626 28.6344C57.5293 30.2028 57.6097 31.7737 57.69 33.3447C57.7303 34.1318 57.7705 34.9189 57.7965 35.7058C57.8063 36.0069 57.7862 36.3091 57.7642 36.6389ZM44.5231 41.3781C44.6445 41.3875 44.7801 41.3981 44.9371 41.4057C45.0523 42.1433 45.1495 42.7643 45.2514 43.4154C45.1453 43.4442 45.0553 43.4732 44.9756 43.4988C44.8306 43.5455 44.7196 43.5812 44.6072 43.5857C43.3889 43.6337 42.1703 43.6771 40.9517 43.7205L40.9497 43.7206C38.7557 43.7987 36.5616 43.8768 34.369 43.9822C32.9135 44.0522 31.4591 44.1466 30.0048 44.2411L30.0042 44.2411C28.421 44.3439 26.8378 44.4468 25.2531 44.518C23.4998 44.5967 21.7379 44.6079 19.9854 44.5271C18.2936 44.4491 16.6043 44.3157 14.8614 44.1781C14.0953 44.1176 13.3189 44.0563 12.5274 43.9985C12.3881 43.2739 12.2655 42.6352 12.1305 41.9312C14.7246 41.2857 17.1127 41.0311 19.65 41.3636C21.9663 41.6668 24.3119 41.7523 26.6568 41.8379C27.5414 41.8701 28.4258 41.9024 29.3085 41.9463C29.8276 41.9721 30.3489 41.953 30.8701 41.9339C31.0886 41.9259 31.3071 41.9179 31.5254 41.9132C32.3407 41.8957 33.1561 41.8803 33.9714 41.8649C36.0634 41.8254 38.1554 41.7859 40.2461 41.7111C41.0375 41.6827 41.8264 41.5929 42.6156 41.503C43.0593 41.4525 43.5032 41.4019 43.9475 41.3623C44.1214 41.3469 44.2978 41.3606 44.5231 41.3781ZM36.7184 38.732C37.9509 38.8143 39.1854 38.8968 40.4237 38.9751C40.468 39.5849 40.4976 39.9956 40.5385 40.5693C40.3527 40.5961 40.1685 40.6288 39.9853 40.6614C39.5923 40.7313 39.204 40.8003 38.8144 40.8079C36.0423 40.8621 33.2693 40.9013 30.4968 40.9051C28.1917 40.9082 25.8853 40.8922 23.5819 40.8135C22.7403 40.7849 21.9009 40.6872 21.0023 40.5825C20.5785 40.5332 20.1414 40.4823 19.6848 40.4364C19.6259 39.7066 19.5653 38.9587 19.49 38.0315C25.3032 37.9692 30.9885 38.3491 36.7184 38.732Z" fill="#8E460B"/>
</svg>
