<svg width="24" height="24" viewBox="0 0 24 24" fill="none" xmlns="http://www.w3.org/2000/svg">
<path d="M10.6718 15.0439L11.1834 14.4478L9.29979 12.7951L8.78816 13.3912C8.69801 13.4966 8.70879 13.656 8.81288 13.747L9.00701 13.9171C8.80884 14.0554 8.49908 13.963 8.49908 13.963C8.49908 13.963 7.99314 14.9446 7.14232 15.9361C4.9171 18.5284 2.84353 20.3147 1.70827 21.6368C1.26072 22.1585 1.31536 22.9481 1.83094 23.4002C2.34652 23.8524 3.12743 23.7965 3.57498 23.2748C4.71024 21.9527 6.16755 19.6253 8.39228 17.033C9.24307 16.042 10.1334 15.3973 10.1334 15.3973C10.1334 15.3973 9.99974 15.1002 10.1069 14.8824L10.3199 15.0692C10.424 15.1608 10.5817 15.1493 10.6718 15.0439Z" fill="#6E4114"/>
<path d="M9.12058 13.2411C9.12058 13.2411 9.09139 13.2754 8.99294 13.3895C8.89497 13.5042 8.89101 13.6429 9.01833 13.7544C9.14566 13.866 9.53197 14.205 9.76723 14.4118C10.0025 14.6187 10.5958 14.5864 10.5958 14.5864C10.5958 14.5864 9.78165 14.1624 9.12058 13.2411Z" fill="#A85E2D"/>
<path d="M9.26606 13.6702C9.22542 13.7177 9.15434 13.7227 9.10787 13.6817C9.06091 13.6406 9.05599 13.5687 9.09662 13.5217C9.13726 13.4742 9.20834 13.4692 9.25481 13.5102C9.30177 13.5513 9.30669 13.6231 9.26606 13.6702Z" fill="#D89161"/>
<path d="M8.57617 14.127C8.57617 14.127 8.9266 14.7852 9.95345 15.3354C9.95345 15.3354 9.54347 14.5135 8.57617 14.127Z" fill="#A85E2D"/>
<path d="M1.90682 21.7069C1.43687 22.2545 1.62279 22.9892 1.90115 23.2334C2.17952 23.4777 2.82002 23.4385 3.41138 22.6654C4.00273 21.8924 7.83776 16.7156 7.43785 16.3519C7.24441 16.1764 6.22302 17.3162 4.95992 18.611C4.20681 19.3833 2.69663 20.7879 1.90681 21.7074L1.90682 21.7069Z" fill="#A85E2D"/>
<path d="M20.2527 2.42133C17.3049 -0.582697 12.5063 -0.60092 9.53624 2.37997C6.56548 5.36157 6.54677 10.2138 9.49465 13.2172C12.4425 16.2212 17.2411 16.2394 20.2119 13.2578C23.1826 10.2769 23.2006 5.42465 20.2527 2.42133ZM10.3313 12.3782C7.84154 9.84167 7.85679 5.74355 10.3659 3.22665C12.8751 0.708346 16.9271 0.724466 19.4168 3.26099C21.9066 5.79752 21.8913 9.89564 19.3815 12.4132C16.873 14.9308 12.821 14.9154 10.3313 12.3782Z" fill="#6E4114"/>
<path d="M20 13.0423C22.0031 11.0329 22.6083 8.13749 21.8118 5.59255C21.4743 4.51177 20.8837 3.49408 20.0395 2.63478C17.2081 -0.25079 12.6001 -0.268312 9.7472 2.59483C8.75048 3.595 8.09963 4.81456 7.79604 6.10069C7.22906 8.49634 7.86535 11.1247 9.70769 13.0024C12.5391 15.8879 17.1471 15.9055 20 13.0423ZM10.3308 12.3779C8.93763 10.9579 8.32836 9.04864 8.50372 7.20109C8.64027 5.74814 9.26132 4.33374 10.3655 3.22634C12.8746 0.70803 16.9267 0.724151 19.4164 3.26068C20.3833 4.24683 20.9732 5.46849 21.1846 6.74201C21.5173 8.74376 20.9156 10.8738 19.381 12.4129C16.8726 14.9305 12.8199 14.9144 10.3308 12.3779Z" fill="#A85E2D"/>
<path d="M8.50387 7.20109C8.23909 6.85696 8.00204 6.48899 7.79688 6.10069C8.10047 4.81456 8.75132 3.595 9.74804 2.59483C12.601 -0.268313 17.2089 -0.25079 20.0403 2.63478C20.8846 3.49478 21.4751 4.51177 21.8127 5.59255C21.6352 5.99346 21.4252 6.37825 21.1847 6.74201C20.9733 5.46849 20.3834 4.24683 19.4165 3.26068C16.9268 0.724151 12.8748 0.708731 10.3656 3.22634C9.26146 4.33375 8.64042 5.74885 8.50387 7.20109Z" fill="#D89161"/>
<path d="M19.7109 2.96484C17.059 0.262899 12.7436 0.246778 10.0723 2.92839C7.40093 5.6093 7.3836 9.97306 10.0355 12.675C12.6874 15.3769 17.0029 15.3931 19.6742 12.7121C22.3462 10.0305 22.3629 5.66678 19.7116 2.96484H19.7109ZM10.3301 12.3785C7.84037 9.84199 7.85562 5.74387 10.3648 3.22697C12.8739 0.708666 16.9259 0.724787 19.4157 3.26131C21.9054 5.79784 21.8901 9.89596 19.3803 12.4136C16.8719 14.9312 12.8198 14.9157 10.3301 12.3785Z" fill="#6E4114"/>
<path opacity="0.25" d="M19.4302 12.4628C16.8941 15.0077 12.7984 14.9916 10.2816 12.4277C7.76484 9.86316 7.78079 5.72159 10.3163 3.17665C12.8524 0.631708 16.9481 0.647828 19.4649 3.21169C21.9817 5.77626 21.9657 9.91783 19.4302 12.4628Z" fill="white"/>
<g opacity="0.25">
<path d="M12.233 3.6625C12.0902 3.6625 11.9509 3.58821 11.8733 3.45434C11.7575 3.25388 11.8241 2.99595 12.0223 2.8789C12.2587 2.73943 12.5068 2.61607 12.7612 2.51304C12.974 2.42613 13.2166 2.53056 13.3025 2.74644C13.3885 2.96161 13.2852 3.20692 13.0717 3.29383C12.8554 3.38214 12.6433 3.48658 12.4423 3.60573C12.3765 3.64498 12.3044 3.6632 12.233 3.6632V3.6625Z" fill="white"/>
</g>
<g opacity="0.25">
<path d="M11.1544 11.972C11.0477 11.972 10.9402 11.9307 10.8591 11.8479C9.79519 10.7637 9.21227 9.32544 9.21781 7.79749C9.22336 6.26955 9.81737 4.83622 10.8896 3.75965C11.0525 3.59634 11.3159 3.59705 11.4781 3.76176C11.6396 3.92647 11.6389 4.1928 11.476 4.35681C10.5611 5.27428 10.0551 6.49734 10.0503 7.801C10.0454 9.10395 10.5424 10.3312 11.4504 11.2557C11.6119 11.4204 11.6112 11.6867 11.4483 11.8508C11.3672 11.9321 11.2612 11.9727 11.1551 11.9727L11.1544 11.972Z" fill="white"/>
</g>
</svg>
