<svg width="49" height="80" viewBox="0 0 49 80" fill="none" xmlns="http://www.w3.org/2000/svg">
<path d="M37.2716 42.1707C37.2716 42.1707 37.2716 42.1613 37.2716 42.152C37.1874 41.9745 37.0658 41.8251 36.9442 41.6756C36.8507 41.5542 36.7478 41.4328 36.673 41.2927C36.673 41.2927 36.673 41.2833 36.673 41.274C36.673 41.2366 36.6636 41.1899 36.6449 41.1526C36.7104 41.0498 36.7104 40.9378 36.6636 40.835C36.7104 40.7229 36.7197 40.6015 36.6449 40.4894C36.6169 40.4427 36.5888 40.396 36.5607 40.3493C36.5607 40.3493 36.5607 40.3493 36.5607 40.34C36.5514 40.3119 36.5327 40.2746 36.5233 40.2466C36.4672 40.0971 36.4298 39.9477 36.383 39.7982C36.2802 39.4713 36.1866 39.1351 36.0183 38.8268C35.9715 38.7334 35.8686 38.6774 35.7657 38.6587C35.6722 38.6213 35.5693 38.6307 35.4571 38.6961L32.1087 40.7509L22.8025 10.7871C22.8025 10.7871 22.8679 10.7404 22.896 10.7124C23.1672 10.4602 23.3449 10.1333 23.3636 9.76904C23.3823 9.35806 23.1018 8.99379 22.7557 8.79764C22.4377 8.62018 22.0355 8.67622 21.6895 8.75094C21.3527 8.835 21.0347 8.96577 20.7074 9.06851C20.7074 9.06851 11.7379 11.7305 11.635 11.7585C11.0457 11.9173 10.5687 12.3657 10.391 12.9448C10.232 13.4678 10.4097 14.0843 10.9335 14.3271C11.2234 14.4579 11.5321 14.4766 11.8407 14.4299L14.6934 23.6301C13.1876 24.2372 11.7285 24.9564 10.3536 25.8251C8.23983 27.1608 6.39728 28.8327 4.84468 30.7941C2.16972 34.1753 0.579711 38.1917 0.149472 42.4789C-0.243354 46.3365 0.20559 50.2688 1.32795 53.9769C2.45967 57.713 4.32092 61.3464 7.13617 64.0925C8.483 65.4188 10.073 66.5209 11.822 67.2495C13.7862 68.0714 15.9467 68.5758 18.0885 68.5291C18.1821 69.734 18.2943 70.9483 18.4253 72.1532L18.0698 72.2653L19.239 76.0388L44.6792 68.1742L43.5194 64.4287L42.21 64.8303C42.21 64.8303 42.1913 64.8303 42.1726 64.8303L40.6293 65.3067C40.3861 64.5875 39.6285 62.3925 39.6285 62.3925L28.4049 65.8578C28.4049 65.8578 28.4049 65.9512 28.433 65.9979C28.433 66.0259 28.433 66.0633 28.4517 66.0913L29.228 68.6132C29.2467 68.6879 29.3028 68.7533 29.3589 68.7906L26.4969 69.678L23.2982 59.3476L26.2818 58.4229L27.002 60.758C26.9646 61.0008 27.161 61.2903 27.479 61.1969L38.2256 57.8718C38.4313 57.8064 38.5062 57.6196 38.4781 57.4515C38.5062 57.3767 38.5062 57.302 38.4781 57.218L37.7486 54.8642L39.8811 54.201C39.9746 54.173 40.0401 54.117 40.0775 54.0516C40.2084 53.9582 40.2739 53.7994 40.2178 53.6313L39.9091 52.6412C39.9746 52.4077 39.8062 52.0995 39.535 52.1275C39.4882 52.1275 39.4321 52.1275 39.3854 52.1368C39.3479 52.1555 39.3105 52.1742 39.2731 52.2022L39.0767 52.2582C39.0767 52.2582 39.0486 52.2209 39.0393 52.1929C39.0299 52.1742 39.0206 52.1462 39.0112 52.1275C39.0112 52.1275 39.0112 52.1275 39.0112 52.1181C39.0112 52.0808 38.9645 52.0154 38.9458 51.978C38.9271 51.9313 38.9084 51.8846 38.8896 51.8379C38.8055 51.6231 38.7119 51.4083 38.5903 51.2028C38.5249 51.1 38.3846 51.0066 38.263 51.0253C38.0105 51.0627 37.7766 51.1374 37.5522 51.2401C37.5054 51.2588 37.4586 51.2868 37.4119 51.3055C37.3464 51.3335 37.2529 51.3709 37.1874 51.4083C37.1967 51.4083 37.2061 51.3989 37.2155 51.3896C37.2061 51.3896 37.1874 51.4083 37.178 51.4083C37.15 51.4176 37.1219 51.427 37.1032 51.4456C37.0471 51.4643 37.0003 51.4923 36.9442 51.511C36.7478 51.5857 36.6449 51.7725 36.6917 51.978C36.701 52.0341 36.7197 52.0808 36.7291 52.1368C36.7291 52.1648 36.7385 52.2769 36.7291 52.1555C36.7291 52.1835 36.7291 52.2022 36.7385 52.2302C36.7572 52.361 36.7759 52.5011 36.8133 52.6225C36.8413 52.7253 36.8881 52.828 36.9349 52.9121L24.8134 56.6575C24.8134 56.6575 24.7853 56.6202 24.7759 56.5922C24.7666 56.5735 24.7572 56.5455 24.7479 56.5268C24.7479 56.5268 24.7479 56.5268 24.7479 56.5174C24.7479 56.4801 24.7011 56.4147 24.6824 56.3773C24.6637 56.3306 24.645 56.2839 24.6263 56.2372C24.5421 56.0224 24.4486 55.8076 24.327 55.6021C24.2615 55.4993 24.1212 55.4059 23.9996 55.4246C23.7471 55.462 23.5133 55.5367 23.2888 55.6394C23.2421 55.6581 23.1953 55.6861 23.1485 55.7048C23.0831 55.7328 22.9895 55.7702 22.9241 55.8076C22.9334 55.8076 22.9428 55.7982 22.9521 55.7889C22.9428 55.7889 22.9241 55.8076 22.9147 55.8076C22.8866 55.8169 22.8586 55.8263 22.8399 55.8449C22.7838 55.8636 22.737 55.8916 22.6809 55.9103C22.4845 55.985 22.3816 56.1718 22.4283 56.3867C22.4377 56.4427 22.4564 56.4894 22.4658 56.5455C22.4658 56.5735 22.4751 56.6856 22.4658 56.5641C22.4658 56.5922 22.4658 56.6108 22.4751 56.6389C22.4938 56.7696 22.5125 56.9097 22.5499 57.0312C22.578 57.1339 22.6248 57.2366 22.6715 57.3207L22.288 57.4421C21.7456 57.1806 21.0441 57.3207 20.4829 57.5355C19.6037 57.8811 18.7713 58.4135 18.2663 59.2168C17.6864 60.1508 17.6864 61.2997 17.7425 62.3645C17.7518 62.6073 17.7705 62.8595 17.7799 63.1024C16.1712 62.1777 14.8337 60.8233 13.7955 59.2635C12.4019 57.1526 11.3731 54.7988 10.7838 52.3423C10.204 49.9045 10.073 47.3265 10.6529 44.8794C11.2234 42.4696 12.5329 40.3213 14.5157 38.8175C15.7971 37.8461 17.2655 37.1643 18.7994 36.7253L21.1844 44.431C21.2125 44.5338 21.2779 44.6085 21.3527 44.6459C21.3527 44.6459 21.3621 44.6459 21.3715 44.6459C21.4089 44.6645 21.4556 44.6832 21.5117 44.6832C21.7549 44.8887 22.0262 45.0755 22.2974 45.2436C22.6528 45.4678 23.0456 45.692 23.4572 45.7947C23.5507 45.8134 23.6442 45.8227 23.7471 45.8227L19.716 48.2886C19.6224 48.3446 19.5757 48.4194 19.557 48.4941C19.4728 48.6155 19.4447 48.793 19.5476 48.9144C19.8001 49.2133 20.0433 49.5122 20.2959 49.8111C20.4174 49.9512 20.5484 50.0913 20.67 50.2314C20.7542 50.3155 20.829 50.4089 20.9412 50.4742C21.0254 50.5209 21.1096 50.5396 21.1937 50.5396C21.2312 50.577 21.2686 50.6143 21.306 50.661C21.306 50.6704 21.3247 50.6797 21.334 50.6891C21.3527 50.7171 21.3808 50.7451 21.3995 50.7731C21.5024 50.9039 21.5959 51.0347 21.6988 51.1654C21.8391 51.3522 21.9981 51.5764 22.2039 51.7258C22.2693 51.8099 22.3629 51.8659 22.4751 51.8659C22.5406 51.8846 22.6154 51.8846 22.6809 51.8659C22.7651 51.8379 22.8586 51.7632 22.9053 51.6791C22.9053 51.6791 22.9053 51.6698 22.9053 51.6605L23.0737 51.5577C23.1485 51.5484 23.2233 51.511 23.2795 51.4456C23.2795 51.4456 23.2795 51.4363 23.2982 51.427L23.3262 51.4083L25.1407 54.3598C25.2997 54.6213 25.6271 54.556 25.7674 54.3598C25.8235 54.3598 25.8796 54.3411 25.9451 54.3038L29.2935 52.2489C29.5086 52.1181 29.5086 51.8846 29.3963 51.7258C29.4525 51.6231 29.4618 51.4923 29.387 51.3616L27.7502 48.6996L28.0682 48.5034L29.4712 50.7825C29.5927 50.988 29.8359 50.9319 29.9482 50.7825C29.9949 50.7825 30.0323 50.7638 30.0791 50.7358L32.6138 49.1759C32.7728 49.0732 32.7728 48.8957 32.6886 48.7743C32.7354 48.6996 32.7447 48.5968 32.6886 48.4941L31.4166 46.4299L31.8468 46.1683L33.6613 49.1199C33.8203 49.3814 34.1477 49.316 34.288 49.1199C34.3441 49.1199 34.4002 49.1012 34.4657 49.0638L37.814 47.009C38.0292 46.8782 38.0292 46.6447 37.9169 46.4859C37.973 46.3832 37.9824 46.2524 37.9076 46.1216L36.2708 43.4596L37.3932 42.7685C37.6925 42.5817 37.5709 42.1987 37.3183 42.096L37.2716 42.1707Z" fill="#5900B2"/>
<path d="M10.3161 28.9242C10.3161 28.9242 10.2413 28.9522 10.2132 28.9709C7.79079 29.6528 6.54684 33.2114 8.31456 35.1542C9.39951 36.3498 11.2888 36.2377 12.6169 35.5465C13.9918 34.8273 15.0768 33.2955 14.9084 31.6983C14.8055 30.7082 14.2631 29.7649 13.4213 29.2231C12.5141 28.6253 11.3262 28.588 10.3068 28.9242H10.3161Z" fill="#5900B2"/>
<path d="M11.5703 13.6914H11.5048C11.1494 13.6914 11.0278 13.3831 11.14 13.0842C11.3482 12.5645 12.1179 12.3871 12.7255 12.247C12.8822 12.2109 13.0282 12.1773 13.1509 12.1409C14.2265 11.8233 15.2927 11.4964 16.359 11.1695C17.4439 10.8426 18.5289 10.5157 19.6045 10.1794C19.871 10.1 20.1351 10.0183 20.3993 9.93662C20.6634 9.85492 20.928 9.77307 21.1945 9.6937C21.2175 9.68653 21.2472 9.67676 21.2821 9.66524C21.7017 9.52686 22.8867 9.13609 22.5414 9.95523C22.3934 10.3 21.9998 10.4139 21.659 10.5126C21.612 10.5261 21.5661 10.5394 21.5219 10.553C21.246 10.6371 20.9701 10.7235 20.6942 10.8098C20.4183 10.8962 20.1423 10.9827 19.8664 11.0667C19.3288 11.2348 18.7888 11.4029 18.2488 11.571L18.2478 11.5713C17.7079 11.7393 17.1679 11.9074 16.6303 12.0755C16.2218 12.2047 15.8133 12.3322 15.4056 12.4595C14.8706 12.6265 14.3363 12.7933 13.8056 12.9628C13.6186 13.0235 13.4315 13.0819 13.2445 13.1403C13.0574 13.1987 12.8703 13.257 12.6833 13.3178C12.5763 13.3513 12.4572 13.3979 12.3334 13.4464C12.0785 13.5461 11.8032 13.6538 11.5703 13.6727V13.6914Z" fill="#B366FF"/>
<path d="M39.0459 63.0944L29.2356 66.1271L29.869 68.1704L39.6793 65.1377L39.0459 63.0944Z" fill="#B366FF"/>
<path d="M18.9429 72.7912L43.0042 65.3531L43.7675 67.8157L19.7063 75.2538L18.9429 72.7912Z" fill="#B366FF"/>
<path d="M37.0221 55.1025L26.9974 58.2015L27.6639 60.3518L37.6887 57.2528L37.0221 55.1025Z" fill="#B366FF"/>
<path d="M22.9319 58.0628L39.2646 53.0139L39.4361 53.5671L23.1034 58.616L22.9319 58.0628Z" fill="#B366FF"/>
<path d="M37.6277 52.6505C37.6277 52.6505 37.5996 52.6132 37.5903 52.6132C37.5884 52.6095 37.5866 52.6062 37.5848 52.6031C37.5819 52.5983 37.5791 52.5941 37.5763 52.5899C37.5716 52.5829 37.5669 52.5758 37.5622 52.5665C37.5622 52.5581 37.5584 52.5497 37.5543 52.5404C37.5492 52.5291 37.5435 52.5165 37.5435 52.5011C37.5388 52.4777 37.5318 52.4567 37.5248 52.4357C37.5178 52.4147 37.5108 52.3937 37.5061 52.3703L37.478 52.2302C37.5061 52.3516 37.478 52.2022 37.4687 52.1648V52.1181C37.5342 52.0901 37.5996 52.0621 37.6651 52.0247C37.6932 52.0154 37.7119 52.0061 37.7399 51.9874C37.8128 51.951 37.8913 51.9203 37.9667 51.8908L37.9958 51.8794L38.0299 51.8659C38.0392 51.8659 38.0579 51.8659 38.0673 51.8566C38.0859 51.9031 38.1045 51.9473 38.1232 51.9915C38.1419 52.0359 38.1608 52.0808 38.1795 52.1275L38.1981 52.1712L38.2158 52.2132L38.2163 52.2145C38.2576 52.3128 38.2972 52.4071 38.3479 52.5011L37.6932 52.7066C37.6932 52.7066 37.6557 52.6692 37.6277 52.6505Z" fill="#B366FF"/>
<path d="M23.3083 57.0307C23.3177 57.0307 23.3457 57.068 23.3457 57.068C23.3738 57.0867 23.4112 57.1241 23.4112 57.1241L24.0659 56.9186C24.0152 56.8245 23.9757 56.7304 23.9343 56.6319C23.9223 56.6034 23.9102 56.5744 23.8976 56.545C23.8789 56.4984 23.8602 56.4541 23.8415 56.4098C23.8229 56.3655 23.804 56.3207 23.7853 56.2741C23.776 56.2835 23.7573 56.2835 23.7479 56.2835C23.7274 56.2917 23.7064 56.2999 23.6852 56.3082C23.6097 56.3377 23.531 56.3684 23.458 56.4049C23.4299 56.4236 23.4112 56.4329 23.3831 56.4422C23.3177 56.4796 23.2522 56.5076 23.1867 56.5356V56.5823C23.1961 56.6197 23.2241 56.7692 23.1961 56.6477L23.2241 56.7878C23.2288 56.8112 23.2358 56.8322 23.2429 56.8532C23.2499 56.8742 23.2569 56.8952 23.2616 56.9186C23.2616 56.934 23.2672 56.9466 23.2723 56.9579C23.2765 56.9672 23.2803 56.9756 23.2803 56.984C23.2849 56.9933 23.2896 57.0003 23.2943 57.0073L23.3001 57.0162C23.3028 57.0205 23.3056 57.0252 23.3083 57.0307Z" fill="#B366FF"/>
<path d="M18.5669 64.4005C18.6322 65.5088 18.6975 66.6171 18.7814 67.7254H18.8375C18.8469 67.9775 18.8563 68.2297 18.875 68.4819H18.8469C18.9404 69.6308 19.0433 70.789 19.1649 71.9378L25.7868 69.8923L22.5133 59.3377C22.4572 59.263 22.4291 59.1696 22.4291 59.0762L22.2327 58.4504C22.1859 58.4224 22.1485 58.385 22.1205 58.3383C21.7089 57.6938 20.493 58.3383 20.0254 58.6092C19.2491 59.0575 18.7066 59.6833 18.5195 60.5707C18.3543 61.3802 18.4208 62.2492 18.485 63.0888C18.4971 63.2469 18.5092 63.4041 18.5195 63.5596C18.5289 63.5689 18.5476 63.5782 18.5663 63.5782C18.5663 63.8585 18.5944 64.1387 18.6224 64.4189C18.6051 64.4189 18.5716 64.4028 18.5669 64.4005Z" fill="#B366FF"/>
<path d="M10.1579 43.777C10.9623 41.2832 12.571 39.1722 14.769 37.7432C15.9381 36.9866 17.2194 36.4355 18.5476 36.0526L14.9186 24.3491C12.9264 25.1617 11.0278 26.1798 9.3068 27.4595C7.4362 28.8512 5.82748 30.5885 4.50871 32.5126C2.15175 35.9405 0.963916 39.9475 0.776856 44.0946C0.617855 47.7747 1.2258 51.5015 2.44169 54.9668C3.67629 58.4787 5.61236 61.8599 8.47438 64.2978C9.91475 65.5213 11.5796 66.446 13.3847 67.0251C14.8718 67.5015 16.4525 67.791 18.0238 67.763L17.9677 67.0345C17.9022 66.0351 17.8367 65.0263 17.7806 64.0269C16.9763 63.6159 16.2187 63.1022 15.5266 62.5138C14.3761 61.5237 13.4595 60.3094 12.6739 59.0111C9.98022 54.5838 8.5305 48.8395 10.1579 43.777Z" fill="#B366FF"/>
<path d="M21.7651 43.8981L12.5336 14.1305L21.9615 11.2163C22.0176 11.2069 22.0737 11.1883 22.1298 11.1696L31.4267 41.1521L30.903 41.4696C30.8468 41.2828 30.6785 41.1334 30.4447 41.2081L21.7651 43.8888V43.8981Z" fill="#B366FF"/>
<path d="M23.2334 44.9821C23.2615 44.9821 23.3176 44.9914 23.3176 44.9914V44.9821C23.4205 45.0194 23.514 45.0381 23.6169 45.0568C23.6636 45.0661 23.7104 45.0755 23.7572 45.0755H23.832C23.8881 45.0568 23.9536 45.0568 24.0191 45.0755C24.2061 45.0755 24.3932 45.0661 24.5802 45.0475C24.6083 45.0381 24.6457 45.0381 24.6738 45.0381H24.7205C24.7386 45.0351 24.7556 45.0321 24.7723 45.0291L24.8 45.0241C24.8258 45.0194 24.8515 45.0148 24.8795 45.0101C24.9918 44.9914 25.0947 44.9634 25.2069 44.926C25.2443 44.9167 25.3191 44.8887 25.3191 44.8887L29.6309 42.2454L22.3916 44.487L22.4103 44.5057C22.4347 44.522 22.4583 44.5382 22.4816 44.5542C22.5386 44.5934 22.5937 44.6313 22.6535 44.6645C22.8219 44.7673 22.9996 44.87 23.1866 44.9634C23.196 44.9727 23.2147 44.9821 23.2334 44.9821Z" fill="#B366FF"/>
<path d="M28.6769 51.7815L25.7401 53.5842C25.5717 53.4628 25.4034 53.276 25.2724 53.0985C25.1041 52.8557 24.9638 52.6035 24.8235 52.3326C24.7632 52.2146 24.7047 52.0953 24.6462 51.9759C24.4779 51.6323 24.3091 51.2878 24.0939 50.9689L27.0589 49.1475L28.6769 51.7722V51.7815Z" fill="#B366FF"/>
<path d="M28.5145 48.2609L30.8894 46.8041L32.1426 48.8416L29.7677 50.2984L28.5145 48.2609Z" fill="#B366FF"/>
<path d="M35.572 43.9316L32.44 45.8529L34.0554 48.4793L37.1875 46.5581L35.572 43.9316Z" fill="#B366FF"/>
<path d="M22.9996 50.7542V50.7635L36.1967 42.6748C36.0377 42.3759 35.8787 42.077 35.6917 41.7875L22.5226 49.8669C22.5133 49.8762 22.5016 49.8855 22.4899 49.8949C22.4782 49.9042 22.4665 49.9136 22.4572 49.9229C22.5413 50.1004 22.6442 50.2685 22.7565 50.4366C22.7939 50.502 22.8313 50.558 22.8781 50.6141C22.9061 50.6328 22.9248 50.6608 22.9435 50.6888C22.9482 50.6935 22.9529 50.7005 22.9576 50.7075C22.9622 50.7145 22.9669 50.7215 22.9716 50.7262L22.9996 50.7542Z" fill="#B366FF"/>
<path d="M20.8882 49.1859C20.7588 49.0336 20.629 48.8808 20.4931 48.7363L25.6559 45.5699C25.8243 45.5046 25.9739 45.4205 26.1236 45.3271C26.161 45.2991 26.1984 45.2617 26.2265 45.2243L35.4859 39.5454C35.4859 39.5454 35.4859 39.5641 35.4953 39.5734C35.5514 39.7322 35.5982 39.8909 35.6449 40.0497C35.7104 40.2832 35.7852 40.5355 35.9068 40.7503L21.3348 49.689C21.1809 49.5303 21.0347 49.3583 20.8882 49.1859Z" fill="#B366FF"/>
<path d="M10.5688 30.5787C10.4659 30.5974 10.3537 30.6348 10.2508 30.6815C10.0076 30.8122 9.82054 31.0644 9.70831 31.3166C9.47448 31.877 9.44642 32.5775 9.76443 33.1099C10.0918 33.6704 10.8587 33.9226 11.4573 33.6704C12.0372 33.4275 12.4768 32.8764 12.589 32.26C12.7013 31.6715 12.5049 30.999 12.0091 30.6348C11.5789 30.3172 11.0364 30.3172 10.5781 30.5694L10.5688 30.5787Z" fill="#5900B2"/>
<path d="M6.60232 40.0406C6.34043 40.0406 6.0879 40.134 5.88213 40.2928C5.66701 40.3395 5.46125 40.4609 5.30225 40.6477C4.96554 41.0493 4.8346 41.6098 4.8533 42.1235C4.86266 42.3944 4.92813 42.6559 5.04036 42.8987C5.16195 43.1696 5.35837 43.3751 5.6109 43.5339C6.0879 43.8328 6.68649 43.8608 7.17285 43.5619C8.05203 43.0295 8.40745 41.6658 7.86497 40.7878C7.60309 40.3582 7.09803 40.0406 6.59296 40.0312L6.60232 40.0406Z" fill="#5900B2"/>
<path d="M19.8377 64.6155C20.8011 64.9611 21.9702 64.6341 22.4005 63.6627C22.7465 62.8968 22.6904 61.8974 22.2228 61.1969C21.9889 60.8513 21.6429 60.5711 21.2313 60.5057C21.1004 60.4777 20.9601 60.4777 20.8292 60.487C20.3989 60.459 19.9687 60.5524 19.6133 60.7953C19.1737 61.0941 18.8744 61.5518 18.7154 62.0469C18.5657 62.5139 18.5564 63.0463 18.7154 63.504C18.9024 64.0364 19.3046 64.4287 19.8377 64.6155ZM19.3794 63.0836C19.3794 63.0836 19.3794 63.0276 19.3701 63.0089C19.3701 62.9342 19.3514 62.8501 19.3514 62.7754C19.3514 62.7194 19.3514 62.6727 19.3514 62.6166C19.3514 62.6166 19.3514 62.5606 19.3607 62.5326C19.3794 62.4205 19.4075 62.3084 19.4449 62.1963C19.4449 62.187 19.4449 62.1683 19.4543 62.159C19.4543 62.1496 19.4636 62.1216 19.473 62.1122C19.501 62.0562 19.5197 62.0002 19.5478 61.9441C19.5759 61.8974 19.5946 61.8507 19.6226 61.804C19.6226 61.804 19.6226 61.7947 19.632 61.7853C19.7442 61.7853 19.8564 61.748 19.95 61.6639C19.8939 61.7106 19.978 61.6359 19.9874 61.6359C20.0154 61.6172 20.0435 61.5892 20.0716 61.5705C20.1183 61.5331 20.1651 61.4958 20.2212 61.4678C20.268 61.4397 20.3147 61.4117 20.3615 61.3837C20.3896 61.365 20.4083 61.3557 20.4363 61.3463C20.4363 61.3463 20.4737 61.3277 20.4925 61.3183C20.5205 61.309 20.5766 61.281 20.586 61.281C20.6327 61.2623 20.6795 61.2529 20.7263 61.2343C20.745 61.2343 20.7917 61.2249 20.8105 61.2249C20.8759 61.2343 20.932 61.2436 20.9975 61.2623C21.063 61.281 21.1285 61.281 21.1846 61.2623C21.1846 61.2623 21.1659 61.2623 21.1565 61.2529C21.1565 61.2529 21.1659 61.2529 21.1752 61.2529C21.1752 61.2529 21.1846 61.2529 21.1939 61.2529C21.222 61.2623 21.25 61.281 21.2781 61.2996C21.2781 61.2996 21.2968 61.309 21.3062 61.3183C21.3062 61.3183 21.3155 61.3183 21.3249 61.3277C21.3249 61.3277 21.3249 61.3277 21.3155 61.3277C21.3716 61.3744 21.4278 61.4304 21.4839 61.4864C21.4839 61.4864 21.4932 61.4958 21.5026 61.5051C21.5306 61.5425 21.5493 61.5705 21.568 61.6079C21.5868 61.6359 21.6055 61.6639 21.6242 61.6919C21.6335 61.7106 21.6616 61.776 21.6709 61.7947C21.727 61.9348 21.7738 62.0749 21.8019 62.2243C21.8019 62.2243 21.8019 62.215 21.8019 62.2057C21.8019 62.2057 21.8019 62.2243 21.8019 62.2337C21.8019 62.2804 21.8019 62.2804 21.8019 62.271C21.8019 62.271 21.8019 62.271 21.8019 62.2804C21.8019 62.3177 21.8019 62.3551 21.8112 62.3925C21.8112 62.4859 21.8206 62.5699 21.8112 62.6633C21.8112 62.7007 21.8112 62.7474 21.8112 62.7848C21.8112 62.8034 21.8112 62.8128 21.8112 62.8315C21.8019 62.9155 21.7832 63.0089 21.7551 63.093C21.7458 63.1397 21.727 63.1771 21.7177 63.2238C21.7177 63.2331 21.7177 63.2424 21.7083 63.2518C21.6709 63.3358 21.6335 63.4106 21.5868 63.4853C21.5868 63.4853 21.5868 63.4946 21.5774 63.504C21.5774 63.4946 21.5774 63.4853 21.5587 63.532C21.5587 63.532 21.5587 63.5413 21.5493 63.5507C21.5493 63.5507 21.5493 63.5507 21.5493 63.5413C21.5306 63.5693 21.5026 63.5974 21.4839 63.6254C21.4558 63.6534 21.4278 63.6908 21.3903 63.7188C21.3903 63.7188 21.3903 63.7188 21.381 63.7188C21.3903 63.7188 21.3903 63.7094 21.3623 63.7375C21.3623 63.7375 21.3623 63.7375 21.3716 63.7281C21.3623 63.7375 21.3529 63.7468 21.3342 63.7562C21.3342 63.7562 21.3529 63.7468 21.3529 63.7375C21.3529 63.7375 21.3529 63.7375 21.3436 63.7468C21.2781 63.7935 21.2033 63.8309 21.1378 63.8776C21.1191 63.8776 21.1004 63.8963 21.0817 63.8963C21.0349 63.9149 20.9882 63.9243 20.932 63.943C20.9133 63.943 20.8946 63.943 20.8759 63.9523C20.8198 63.9523 20.7637 63.9616 20.7076 63.971C20.6421 63.971 20.586 63.971 20.5205 63.971C20.4831 63.971 20.4457 63.971 20.4176 63.971C20.3989 63.971 20.3896 63.971 20.3709 63.971C20.3709 63.971 20.3615 63.971 20.3428 63.971C20.2306 63.9523 20.1183 63.9243 20.0061 63.8963C20.0061 63.8963 19.9593 63.8776 19.9406 63.8682C19.8845 63.8402 19.8284 63.8122 19.7723 63.7748C19.7629 63.7748 19.7536 63.7655 19.7442 63.7562C19.7442 63.7562 19.7349 63.7468 19.7162 63.7375C19.6787 63.7001 19.6413 63.6721 19.6039 63.6347C19.5946 63.6254 19.5759 63.6067 19.5665 63.588C19.5384 63.5413 19.501 63.4946 19.473 63.4479C19.4543 63.4106 19.4356 63.3732 19.4169 63.3358C19.473 63.4386 19.3981 63.2985 19.3888 63.2704C19.3794 63.2331 19.3607 63.1864 19.3514 63.149C19.3514 63.121 19.342 63.1023 19.3327 63.0743L19.3794 63.0836Z" fill="#5900B2"/>
<path d="M21.3538 61.3558C21.3444 61.3558 21.335 61.3463 21.3257 61.3369C21.3163 61.3369 21.3257 61.3369 21.3632 61.3558H21.3538Z" fill="#5900B2"/>
</svg>
