<svg width="46" height="32" viewBox="0 0 46 32" fill="none" xmlns="http://www.w3.org/2000/svg">
<path d="M32.4902 27.948C31.8107 26.5819 30.8921 24.8637 30.3909 24.4695C29.8502 24.0433 22.7595 19.0949 21.9535 18.1001C21.2496 17.2307 14.3508 6.61551 12.6179 3.94556C12.2831 3.42963 11.7817 3.60331 11.6198 3.69978L11.6012 3.71104C11.4248 3.81666 10.954 4.09826 10.707 4.24614C10.4515 4.39843 10.4571 4.76275 10.7276 5.25095C12.4029 8.27879 18.5253 19.3126 19.2207 20.1707C20.0261 21.1654 26.2715 26.4333 26.6351 27.0178C26.8274 27.327 27.0195 28.2819 27.1583 29.1129C27.2547 29.7198 27.5941 30.4634 28.4121 30.358C29.2293 30.2527 30.994 30.0257 31.6785 29.938C32.3635 29.8495 33.037 29.2062 32.4902 27.948Z" fill="url(#paint0_linear_934_117)"/>
<path opacity="0.3" d="M13.6686 10.5408C13.6367 10.4185 13.6032 10.2949 13.5718 10.1746C13.535 10.0348 13.4987 9.8945 13.4616 9.75363C13.4317 9.64177 13.4009 9.53191 13.3705 9.4231C13.2338 8.93096 13.1044 8.46656 13.0795 7.94831C13.052 7.38411 12.9277 6.86374 12.6631 6.20801C12.6047 6.06238 12.5536 5.91426 12.5025 5.76614C12.4228 5.53455 12.3408 5.29471 12.2289 5.07391C12.0455 4.70877 11.7933 4.42202 11.5261 4.11853C11.4697 4.05436 11.4127 3.98907 11.3557 3.92347C11.3433 3.90901 11.3326 3.89308 11.3207 3.87937C11.3686 3.85047 11.4125 3.82434 11.4539 3.79944C11.4605 3.80694 11.4664 3.81584 11.4724 3.82319C11.5291 3.8887 11.5857 3.95324 11.6415 4.01725C11.9154 4.32891 12.1743 4.62286 12.3662 5.00524C12.4825 5.23551 12.5664 5.48002 12.6477 5.71649C12.6979 5.86183 12.7481 6.00844 12.8054 6.15122C13.0768 6.82311 13.2047 7.35877 13.2326 7.94058C13.257 8.44248 13.3842 8.89893 13.5189 9.38164C13.5496 9.49179 13.5802 9.60225 13.6101 9.71411C13.6473 9.85468 13.6842 9.99517 13.7202 10.1354C13.8043 10.4577 13.8937 10.7872 13.9897 11.1149C13.8818 10.9222 13.775 10.7311 13.6686 10.5408ZM13.9783 9.68918C13.5149 8.14013 13.344 6.47868 13.2057 4.85016C13.1444 4.75539 13.0855 4.66506 13.029 4.5776C13.1719 6.30516 13.3359 8.07913 13.8307 9.73372L13.8416 9.77264C13.949 10.14 14.0748 10.4834 14.2721 10.5127C14.3028 10.5171 14.3321 10.5138 14.3613 10.5034C14.4139 10.4841 14.4641 10.4395 14.5097 10.369C14.6369 10.1727 14.66 9.87344 14.6783 9.63274C14.6822 9.5828 14.6856 9.53561 14.6899 9.49217C14.7415 8.97976 14.7544 8.45856 14.7601 7.9724C14.763 7.72853 14.7609 7.48429 14.7596 7.23931C14.7078 7.15947 14.6571 7.08122 14.6058 7.00281C14.6087 7.32596 14.6101 7.64901 14.6061 7.97033C14.6003 8.45328 14.588 8.97016 14.5368 9.47728C14.532 9.52153 14.5286 9.56969 14.5245 9.62082C14.5077 9.84408 14.4867 10.122 14.3807 10.2847C14.347 10.3355 14.3154 10.3631 14.2941 10.3606C14.2472 10.3537 14.1447 10.2619 13.9895 9.72945L13.9783 9.68918ZM29.218 30.2533C29.0137 29.0339 28.6482 27.8348 27.7694 26.9622C27.092 26.2898 26.3082 25.9291 25.5055 25.9039C25.5692 25.9621 25.6321 26.02 25.6918 26.0752C26.3887 26.1469 27.0669 26.4822 27.6608 27.0714C28.5068 27.9122 28.8647 29.08 29.0654 30.2735C29.1153 30.2668 29.1658 30.2603 29.218 30.2533ZM17.5904 16.697L17.5801 16.6382C17.4364 15.7323 17.1144 14.849 16.803 13.9947C16.6941 13.696 16.5858 13.3988 16.4855 13.1014C16.0011 11.6675 15.7238 10.1891 15.6401 8.58885C15.5839 8.50342 15.5282 8.41777 15.4728 8.33317C15.5395 10.0495 15.8236 11.625 16.3398 13.1509C16.4408 13.4491 16.5497 13.7478 16.6585 14.0477C16.9673 14.8949 17.2867 15.7715 17.4286 16.6626L17.4385 16.7232C17.4628 16.8679 17.5008 17.097 17.4648 17.2609C17.4971 17.3174 17.5313 17.3765 17.5634 17.4316C17.6778 17.2282 17.6258 16.9075 17.5904 16.697ZM31.9059 29.886C31.7104 29.0391 31.448 28.1792 31.0847 27.4014C30.4715 26.0875 29.414 25.0339 28.3916 24.0158C28.2127 23.8372 28.0349 23.6603 27.861 23.4828C27.3508 22.9628 26.9352 22.3431 26.5326 21.7437C26.5079 21.7065 26.4826 21.6701 26.4579 21.6329C26.3343 21.5424 26.2099 21.4527 26.0862 21.3616C26.1086 21.3943 26.1326 21.4262 26.155 21.459C26.2388 21.5815 26.3218 21.7054 26.4051 21.8296C26.8112 22.435 27.231 23.0607 27.7512 23.5906C27.9257 23.768 28.104 23.9457 28.283 24.124C29.296 25.1332 30.3431 26.1767 30.9452 27.4666C31.3039 28.2345 31.5636 29.0852 31.757 29.9232C31.8073 29.9137 31.8568 29.9015 31.9059 29.886ZM31.0159 30.0224C30.9413 29.4998 30.8296 28.9882 30.6559 28.4976C30.1973 27.1999 29.0343 25.954 28.1394 25.1367C27.8149 24.8401 27.479 24.559 27.1541 24.2866C26.4702 23.7124 25.8237 23.171 25.2486 22.4843C24.2721 21.3199 23.4243 20.2434 22.9204 18.9674C22.8363 18.8987 22.7557 18.8331 22.6797 18.7697C22.6887 18.7957 22.6956 18.8196 22.7049 18.8456C23.206 20.2235 24.1 21.3534 25.1309 22.5834C25.7146 23.2797 26.3964 23.8513 27.0556 24.4045C27.3786 24.6758 27.7132 24.9559 28.0357 25.25C28.917 26.0554 30.0624 27.2813 30.511 28.5486C30.6805 29.0276 30.7891 29.5291 30.8624 30.0415C30.9144 30.0351 30.9662 30.0285 31.0159 30.0224ZM21.7285 22.3018C22.0481 22.3645 22.3788 22.4295 22.7064 22.4399C22.8223 22.4435 22.9202 22.4312 23.0012 22.4013C23.0921 22.3677 23.1597 22.3138 23.2048 22.2393C23.4134 21.8925 23.03 21.2237 22.8246 20.8645L22.8062 20.8334C22.3583 20.0502 21.7825 19.3566 21.2249 18.6864C21.0195 18.4389 20.814 18.1918 20.6135 17.939C19.9935 17.1574 19.6449 16.2578 19.4834 15.0212C19.4538 14.7954 19.4323 14.5664 19.4086 14.3386C19.3469 14.2456 19.2854 14.1517 19.2222 14.0571C19.2546 14.3856 19.2886 14.7151 19.3314 15.0407C19.4965 16.3062 19.8546 17.2298 20.4932 18.0348C20.6943 18.2878 20.9004 18.5364 21.1062 18.7846C21.6597 19.4498 22.2318 20.1383 22.6729 20.9098L22.6905 20.9407C22.8538 21.2252 23.235 21.8903 23.0729 22.1599C23.0179 22.2497 22.8967 22.2921 22.7118 22.2865C22.3961 22.2758 22.0723 22.2123 21.7585 22.1505C21.6168 22.1231 21.4761 22.0952 21.3361 22.0721C21.2876 22.0642 21.2387 22.0577 21.1894 22.0503C21.2589 22.1132 21.3303 22.1769 21.4019 22.2416C21.5108 22.2606 21.6189 22.2804 21.7285 22.3018Z" fill="#E8D1C1"/>
<path d="M6.58267 6.99767C5.95514 6.62789 5.59512 5.95645 5.60457 5.47893C3.42022 7.93416 3.53203 12.7965 3.53203 12.7965C4.67657 15.7436 7.40117 21.5971 15.4055 23.6244C14.8285 22.7629 14.2176 21.7675 13.64 20.73C8.80668 18.0993 6.87647 13.8818 5.96011 11.524C5.96011 11.524 5.90741 9.23005 6.58267 6.99767Z" fill="url(#paint1_linear_934_117)"/>
<path d="M6.58267 6.99767C5.95514 6.62789 5.59512 5.95645 5.60457 5.47893C3.42022 7.93416 3.53203 12.7965 3.53203 12.7965L5.96011 11.524C5.96011 11.524 5.90741 9.23005 6.58267 6.99767Z" fill="url(#paint2_linear_934_117)"/>
<path d="M16.797 4.03437C15.807 4.39694 9.94474 6.54646 8.38942 7.11657C7.66464 7.38203 7.04966 7.27331 6.58267 6.99751C5.90772 9.22996 5.96049 11.5236 5.96049 11.5236C6.87655 13.8814 8.80715 18.0986 13.6404 20.7296C11.8045 17.4275 10.312 13.6902 11.3579 12.4083C12.292 11.263 15.2306 9.68296 17.0196 8.78748L19.0393 5.5131L16.797 4.03437Z" fill="#59616E"/>
<path d="M16.9426 3.98095C16.9426 3.98095 16.8896 4.00021 16.7969 4.03462L19.0389 5.51328L17.0193 8.78766C17.1237 8.73538 17.2262 8.68448 17.3224 8.63699C17.7447 8.401 18.1633 8.17615 18.5581 7.97007L21.7833 4.21471C21.7833 4.21471 18.0292 3.87839 16.9426 3.98095Z" fill="url(#paint3_linear_934_117)"/>
<path d="M16.7969 4.03462L19.0389 5.51328L21.7833 4.21471C21.7833 4.21471 18.0292 3.87839 16.9426 3.98095C16.9426 3.98095 16.8895 4.0005 16.7969 4.03462Z" fill="url(#paint4_linear_934_117)"/>
<path d="M13.5479 27.948C14.2274 26.5819 15.146 24.8637 15.6472 24.4695C16.1879 24.0433 23.2786 19.0949 24.0846 18.1001C24.7885 17.2307 31.6872 6.61551 33.4202 3.94556C33.755 3.42963 34.2564 3.60331 34.4183 3.69978L34.4369 3.71104C34.6133 3.81666 35.0841 4.09826 35.3311 4.24614C35.5866 4.39843 35.581 4.76275 35.3104 5.25095C33.6352 8.27879 27.5128 19.3126 26.8173 20.1707C26.0119 21.1654 19.7666 26.4333 19.403 27.0178C19.2106 27.327 19.0186 28.2819 18.8797 29.1129C18.7834 29.7198 18.444 30.4634 17.626 30.358C16.8088 30.2527 15.0441 30.0257 14.3596 29.938C13.6746 29.8495 13.0011 29.2062 13.5479 27.948Z" fill="url(#paint5_linear_934_117)"/>
<path opacity="0.3" d="M16.0012 30.1478C16.1356 29.6308 16.2935 29.1189 16.496 28.6254C16.8459 27.7745 17.3777 26.9882 18.1695 26.152C19.1002 25.1684 19.8467 24.4749 20.5901 23.9049C20.9721 23.6114 21.528 23.2373 21.9399 23.3753C21.9447 23.3766 21.9494 23.3785 21.9543 23.3801C22.1478 23.4509 22.2851 23.6282 22.3623 23.9066C22.3896 24.005 22.4089 24.1056 22.4254 24.2076C22.3787 24.2494 22.3326 24.2904 22.2867 24.3308C22.2705 24.2 22.2482 24.0716 22.214 23.9476C22.1508 23.7199 22.0453 23.5771 21.9006 23.5245C21.8973 23.5228 21.8938 23.5218 21.8907 23.5207C21.5088 23.3927 20.8882 23.8703 20.6835 24.0264C19.9475 24.5919 19.2061 25.2795 18.2811 26.2571C17.5029 27.0798 16.9806 27.8505 16.6384 28.6837C16.4411 29.1635 16.2872 29.6625 16.1553 30.1677C16.1042 30.1613 16.0527 30.1547 16.0012 30.1478ZM16.8201 30.2533C17.0244 29.0339 17.3899 27.8348 18.2687 26.9622C18.9461 26.2898 19.7299 25.9291 20.5326 25.9039C20.4688 25.9621 20.406 26.02 20.3462 26.0752C19.6494 26.1469 18.9712 26.4822 18.3773 27.0714C17.5313 27.9122 17.1734 29.08 16.9727 30.2736C16.9228 30.2669 16.8723 30.2603 16.8201 30.2533ZM28.4477 16.697L28.458 16.6382C28.6017 15.7323 28.9237 14.849 29.2351 13.9947C29.3439 13.696 29.4522 13.3988 29.5526 13.1014C30.037 11.6675 30.3143 10.1891 30.398 8.58885C30.4541 8.50342 30.5099 8.41777 30.5652 8.33317C30.4986 10.0495 30.2145 11.625 29.6983 13.1509C29.5973 13.4491 29.4884 13.7478 29.3796 14.0477C29.0708 14.8949 28.7514 15.7715 28.6095 16.6626L28.5996 16.7232C28.5753 16.8679 28.5373 17.097 28.5733 17.2609C28.5409 17.3174 28.5068 17.3765 28.4747 17.4316C28.3603 17.2282 28.4123 16.9075 28.4477 16.697ZM14.1322 29.886C14.3277 29.0391 14.59 28.1792 14.9534 27.4014C15.5666 26.0875 16.6241 25.0339 17.6465 24.0158C17.8254 23.8372 18.0032 23.6603 18.1771 23.4828C18.6873 22.9628 19.1029 22.3431 19.5054 21.7437C19.5302 21.7065 19.5555 21.6701 19.5802 21.6329C19.7038 21.5424 19.8282 21.4527 19.9519 21.3616C19.9295 21.3943 19.9055 21.4262 19.8831 21.459C19.7993 21.5815 19.7162 21.7054 19.633 21.8296C19.2269 22.435 18.8071 23.0607 18.2869 23.5906C18.1124 23.768 17.9341 23.9457 17.7551 24.124C16.7421 25.1332 15.6949 26.1767 15.0929 27.4666C14.7342 28.2345 14.4744 29.0852 14.2811 29.9232C14.2307 29.9137 14.1813 29.9015 14.1322 29.886ZM24.3096 22.3018C23.99 22.3645 23.6593 22.4295 23.3317 22.4399C23.2158 22.4435 23.1179 22.4312 23.0369 22.4013C22.946 22.3677 22.8784 22.3138 22.8333 22.2393C22.6247 21.8925 23.0081 21.2237 23.2135 20.8645L23.2319 20.8334C23.6798 20.0502 24.2556 19.3566 24.8132 18.6864C25.0186 18.4389 25.2241 18.1918 25.4246 17.939C26.0446 17.1574 26.3932 16.2578 26.5547 15.0212C26.5843 14.7954 26.6058 14.5664 26.6295 14.3386C26.6912 14.2456 26.7527 14.1517 26.8159 14.0571C26.7835 14.3856 26.7495 14.7151 26.7067 15.0407C26.5416 16.3062 26.1835 17.2298 25.5448 18.0348C25.3438 18.2878 25.1377 18.5364 24.9318 18.7846C24.3784 19.4498 23.8063 20.1383 23.3651 20.9098L23.3476 20.9407C23.1843 21.2252 22.8031 21.8903 22.9652 22.16C23.0202 22.2497 23.1414 22.2921 23.3263 22.2865C23.642 22.2758 23.9658 22.2123 24.2796 22.1505C24.4213 22.1231 24.562 22.0952 24.702 22.0721C24.7505 22.0642 24.7994 22.0577 24.8487 22.0503C24.7792 22.1132 24.7078 22.1769 24.6362 22.2416C24.5273 22.2606 24.4192 22.2804 24.3096 22.3018Z" fill="#E8D1C1"/>
<path d="M39.4554 6.99767C40.0829 6.62789 40.443 5.95645 40.4335 5.47893C42.6179 7.93416 42.5061 12.7965 42.5061 12.7965C41.3615 15.7436 38.6369 21.5971 30.6326 23.6244C31.2096 22.7629 31.8204 21.7675 32.3981 20.73C37.2314 18.0993 39.1616 13.8818 40.078 11.524C40.078 11.524 40.1307 9.23005 39.4554 6.99767Z" fill="url(#paint6_linear_934_117)"/>
<path d="M39.4554 6.99767C40.0829 6.62789 40.443 5.95645 40.4335 5.47893C42.6179 7.93416 42.5061 12.7965 42.5061 12.7965L40.078 11.524C40.078 11.524 40.1307 9.23005 39.4554 6.99767Z" fill="url(#paint7_linear_934_117)"/>
<path d="M29.2411 4.03437C30.2311 4.39694 36.0933 6.54646 37.6487 7.11657C38.3735 7.38203 38.9884 7.27331 39.4554 6.99751C40.1304 9.22996 40.0776 11.5236 40.0776 11.5236C39.1615 13.8814 37.2309 18.0986 32.3977 20.7296C34.2336 17.4275 35.7261 13.6902 34.6802 12.4083C33.7461 11.263 30.8075 9.68296 29.0184 8.78748L26.9988 5.5131L29.2411 4.03437Z" fill="#59616E"/>
<path d="M29.0955 3.98095C29.0955 3.98095 29.1485 4.00021 29.2411 4.03462L26.9992 5.51328L29.0188 8.78766C28.9144 8.73538 28.8118 8.68448 28.7157 8.63699C28.2934 8.401 27.8748 8.17615 27.48 7.97007L24.2548 4.21471C24.2548 4.21471 28.0089 3.87839 29.0955 3.98095Z" fill="url(#paint8_linear_934_117)"/>
<path d="M29.2411 4.03462L26.9992 5.51328L24.2548 4.21471C24.2548 4.21471 28.0089 3.87839 29.0955 3.98095C29.0955 3.98095 29.1485 4.0005 29.2411 4.03462Z" fill="url(#paint9_linear_934_117)"/>
<defs>
<linearGradient id="paint0_linear_934_117" x1="12.7239" y1="2.46447" x2="30.1675" y2="30.9916" gradientUnits="userSpaceOnUse">
<stop stop-color="#A0592B"/>
<stop offset="0.3333" stop-color="#A35B2C"/>
<stop offset="0.5859" stop-color="#AD602E"/>
<stop offset="0.8112" stop-color="#BD6933"/>
<stop offset="1" stop-color="#D17538"/>
</linearGradient>
<linearGradient id="paint1_linear_934_117" x1="5.47281" y1="15.0562" x2="18.8014" y2="13.7195" gradientUnits="userSpaceOnUse">
<stop stop-color="#F0EAFF"/>
<stop offset="1" stop-color="#AFABBA"/>
</linearGradient>
<linearGradient id="paint2_linear_934_117" x1="2.25982" y1="6.26633" x2="6.076" y2="11.0127" gradientUnits="userSpaceOnUse">
<stop stop-color="#F0EAFF"/>
<stop offset="1" stop-color="#AFABBA"/>
</linearGradient>
<linearGradient id="paint3_linear_934_117" x1="19.1855" y1="4.30472" x2="17.0244" y2="8.01937" gradientUnits="userSpaceOnUse">
<stop stop-color="#F0EAFF"/>
<stop offset="1" stop-color="#AFABBA"/>
</linearGradient>
<linearGradient id="paint4_linear_934_117" x1="18.5011" y1="1.69831" x2="19.5724" y2="4.9929" gradientUnits="userSpaceOnUse">
<stop stop-color="#F0EAFF"/>
<stop offset="1" stop-color="#AFABBA"/>
</linearGradient>
<linearGradient id="paint5_linear_934_117" x1="33.3142" y1="2.46447" x2="15.8706" y2="30.9916" gradientUnits="userSpaceOnUse">
<stop stop-color="#A0592B"/>
<stop offset="0.3333" stop-color="#A35B2C"/>
<stop offset="0.5859" stop-color="#AD602E"/>
<stop offset="0.8112" stop-color="#BD6933"/>
<stop offset="1" stop-color="#D17538"/>
</linearGradient>
<linearGradient id="paint6_linear_934_117" x1="40.5653" y1="15.0562" x2="27.2367" y2="13.7195" gradientUnits="userSpaceOnUse">
<stop stop-color="#F0EAFF"/>
<stop offset="1" stop-color="#AFABBA"/>
</linearGradient>
<linearGradient id="paint7_linear_934_117" x1="43.7783" y1="6.26633" x2="39.9621" y2="11.0127" gradientUnits="userSpaceOnUse">
<stop stop-color="#F0EAFF"/>
<stop offset="1" stop-color="#AFABBA"/>
</linearGradient>
<linearGradient id="paint8_linear_934_117" x1="26.8526" y1="4.30472" x2="29.0137" y2="8.01937" gradientUnits="userSpaceOnUse">
<stop stop-color="#F0EAFF"/>
<stop offset="1" stop-color="#AFABBA"/>
</linearGradient>
<linearGradient id="paint9_linear_934_117" x1="27.537" y1="1.69831" x2="26.4657" y2="4.9929" gradientUnits="userSpaceOnUse">
<stop stop-color="#F0EAFF"/>
<stop offset="1" stop-color="#AFABBA"/>
</linearGradient>
</defs>
</svg>
