<svg width="32" height="32" viewBox="0 0 32 32" fill="none" xmlns="http://www.w3.org/2000/svg">
<path d="M15.9998 30.6666L15.9539 30.6508C11.5611 29.1365 5.82037 24.8561 4.09977 17.7782C2.06825 9.43268 2.78947 4.80056 2.79699 4.75466L2.8113 4.66701L2.89637 4.64217C2.91218 4.63766 4.52738 4.16512 8.99055 3.01424C13.7131 1.79752 15.9494 1.34341 15.9716 1.3389L15.9994 1.33325L16.0273 1.3389C16.0495 1.34341 18.2854 1.79752 23.0121 3.01424C27.4715 4.16512 29.0904 4.63766 29.1062 4.64217L29.1913 4.66701L29.2056 4.75466C29.2131 4.80056 29.9264 9.43268 27.8991 17.7778C26.1785 24.8561 20.4381 29.1361 16.045 30.6504L15.9998 30.6666ZM3.0635 4.88747C2.97654 5.55791 2.50979 10.0535 4.3738 17.7112C6.06165 24.6541 11.68 28.8626 15.9994 30.3679C20.3192 28.8626 25.9372 24.6541 27.625 17.7112C29.4853 10.0542 29.0253 5.55867 28.9395 4.88747C28.5503 4.77611 26.8244 4.28927 22.9417 3.28738C18.5056 2.14515 16.2701 1.67712 15.9994 1.62107C15.7284 1.67675 13.4917 2.14553 9.06094 3.28738C5.17482 4.28927 3.45158 4.77611 3.0635 4.88747ZM15.9998 28.8825L15.9482 28.8622C11.98 27.3095 7.2116 23.4784 5.72739 17.385C4.34444 11.7055 4.28007 7.85817 4.36477 6.07071L4.36966 5.96875L4.46828 5.94167C5.36302 5.69448 6.94623 5.26784 9.40799 4.63728C13.0442 3.70048 15.2086 3.21665 15.9704 3.05224L16.0002 3.04584L16.0299 3.05224C16.986 3.25879 19.1097 3.73923 22.5923 4.63728C25.0985 5.2795 26.6637 5.70126 27.5358 5.94167L27.6348 5.96875L27.6393 6.07109C27.7206 7.86607 27.6514 11.7228 26.2763 17.385C24.7933 23.475 20.0222 27.3069 16.0517 28.8626L15.9998 28.8825ZM6.00143 17.318C7.45364 23.2805 12.108 27.0394 15.9998 28.5793C19.8938 27.0368 24.5505 23.2767 26.0019 17.318C27.3427 11.795 27.4346 8.00753 27.3615 6.18584C26.4732 5.94129 24.9337 5.52781 22.522 4.91005C19.0796 4.02215 16.9679 3.54321 16.0002 3.33403C15.2146 3.50409 13.0634 3.98641 9.47838 4.91005C7.10696 5.51766 5.55161 5.93564 4.64219 6.18584C4.5654 8.00038 4.65273 11.7792 6.00143 17.318Z" fill="#748CA3"/>
<path d="M6.00143 17.318C7.45364 23.2805 12.108 27.0394 15.9998 28.5793C19.8938 27.0368 24.5505 23.2767 26.0019 17.318C27.3427 11.795 27.4346 8.00753 27.3615 6.18584C26.4732 5.94129 24.9337 5.52781 22.522 4.91005C19.0796 4.02215 16.9679 3.54321 16.0002 3.33403C15.2146 3.50409 13.0634 3.98641 9.47838 4.91005C7.10696 5.51766 5.55161 5.93564 4.64219 6.18584C4.5654 8.00038 4.65273 11.7792 6.00143 17.318Z" fill="#748CA3"/>
<path fill-rule="evenodd" clip-rule="evenodd" d="M3.0635 4.88747C2.97654 5.55791 2.50979 10.0535 4.3738 17.7112C6.06165 24.6541 11.68 28.8626 15.9994 30.3679C20.3192 28.8626 25.9372 24.6541 27.625 17.7112C29.4853 10.0542 29.0253 5.55867 28.9395 4.88747C28.5503 4.77611 26.8244 4.28927 22.9417 3.28738C18.5056 2.14515 16.2701 1.67712 15.9994 1.62107C15.7284 1.67675 13.4917 2.14553 9.06094 3.28738C5.17482 4.28927 3.45158 4.77611 3.0635 4.88747ZM15.9482 28.8622L15.9998 28.8825L16.0517 28.8626C20.0222 27.3069 24.7933 23.475 26.2763 17.385C27.6514 11.7228 27.7206 7.86607 27.6393 6.07109L27.6348 5.96875L27.5358 5.94167C26.6637 5.70126 25.0985 5.2795 22.5923 4.63728C19.1097 3.73923 16.986 3.25879 16.0299 3.05224L16.0002 3.04584L15.9704 3.05224C15.2086 3.21665 13.0442 3.70048 9.40799 4.63728C6.94623 5.26784 5.36302 5.69448 4.46828 5.94167L4.36966 5.96875L4.36477 6.07071C4.28007 7.85817 4.34444 11.7055 5.72739 17.385C7.2116 23.4784 11.98 27.3095 15.9482 28.8622Z" fill="#DFDAED"/>
<path d="M8.97502 4.97091C12.6244 4.01725 14.9323 3.47959 16 3.23804V29.1428C12.1036 27.4052 7.55408 23.5139 6.09815 17.4465C4.83163 12.1578 4.57568 8.34272 4.57141 6.14405C5.6255 5.85748 7.06863 5.46787 8.97502 4.97091Z" fill="#AA5F2E"/>
<path d="M23.0249 4.97091C19.3754 4.01725 17.0676 3.47959 15.9999 3.23804V29.1428C19.8963 27.4052 24.4458 23.5139 25.9017 17.4465C27.1683 12.1578 27.4242 8.34272 27.4285 6.14405C26.3744 5.85748 24.9313 5.46787 23.0249 4.97091Z" fill="#DC9160"/>
</svg>
