<svg width="32" height="19" viewBox="0 0 32 19" fill="none" xmlns="http://www.w3.org/2000/svg">
<path d="M23.9363 13.193C24.0016 12.8795 24.1242 12.8871 24.2251 12.879C25.1994 12.8018 26.1739 12.7274 27.1487 12.664C27.3486 12.651 27.5157 12.6452 27.6824 12.4196C28.5477 11.249 29.5599 10.3645 30.6782 9.70075C31.0081 9.50488 31.2898 9.23148 31.2932 8.6914C31.2963 8.1769 31.0123 7.93019 30.7177 7.71607C29.9561 7.16243 29.1748 6.65223 28.4402 6.03991C27.9981 5.67139 27.5556 5.59247 27.057 5.55212C26.4731 5.50465 26.0433 6.07847 25.4528 6.05566C24.1905 6.00676 22.9225 5.92225 21.6594 6.10355C21.4757 6.12982 21.3572 6.04464 21.2626 5.83931C22.1939 5.21441 23.5703 4.80515 24.4379 5.23223C25.4219 5.71684 26.298 5.19843 27.3221 5.10607C25.65 3.71651 23.8804 2.91807 22.2353 1.77411C21.7907 1.46498 21.2891 1.30965 20.8225 1.05481C20.5588 0.911094 20.3717 0.986152 20.3397 1.36058C20.2351 2.58644 19.9552 3.79802 20.1948 5.05504C20.3474 5.8551 20.148 6.11239 19.5411 6.06834C19.0234 6.03085 18.5025 6.03391 17.9836 6.05727C14.9514 6.19308 14.7618 6.26754 11.7293 6.35926C7.80307 6.47772 6.00698 6.37979 2.07914 6.36595C1.68232 6.36455 1.29188 6.3961 0.876803 6.60454C0.91956 7.71813 0.461075 8.84487 0.921301 9.95112C1.07636 10.3237 1.19873 10.7279 1.19097 11.1218C1.17549 11.9024 1.53264 11.9965 1.96313 12.1412C3.36877 12.6135 4.8107 12.2078 6.22016 12.4961C6.88739 12.6327 7.5339 12.5416 8.31364 12.2921C7.70571 11.9376 7.20421 11.7555 6.61417 11.6822C6.78599 12.2442 6.55224 12.2637 6.2827 12.2305C5.47363 12.1315 4.65539 12.0983 3.85954 11.9027C3.49738 11.8135 3.0322 11.8165 2.76551 11.2676C3.79597 10.7358 7.93411 10.9875 8.47199 12.4527C7.59806 13.3684 1.80246 13.032 0.754488 11.9749C0.786952 12.2985 0.855563 12.5913 0.837431 12.8741C0.786046 13.6786 1.12531 13.9473 1.62925 14.0129C2.05838 14.0688 2.4927 14.1812 2.91813 14.139C4.19419 14.0121 5.4738 14.0226 6.75006 13.9536C10.8523 13.7319 12.825 13.6541 14.7977 13.6579C16.3173 13.6626 17.1426 13.485 18.6408 13.7293C20.2445 13.9907 21.8405 13.9843 23.4422 14.0329C23.9368 14.0479 24.4351 13.9645 24.9212 14.2315C23.5064 14.2255 22.0914 14.2194 20.6011 14.213C20.9893 15.1152 21.041 15.9666 20.9277 16.894C20.8569 17.4732 20.7711 18.1449 21.1601 18.767C22.9013 16.6564 25.2306 15.7484 26.8128 13.252C25.8313 13.1855 24.8979 13.3382 23.9363 13.193Z" fill="white"/>
</svg>
