<svg width="70" height="28" viewBox="0 0 70 28" fill="none" xmlns="http://www.w3.org/2000/svg">
<rect width="70" height="28" rx="14" fill="url(#paint0_linear_954_676)"/>
<rect width="70" height="28" rx="14" fill="#040720" fill-opacity="0.6"/>
<path d="M14.2441 18.6172C13.502 18.6172 12.8398 18.4355 12.2578 18.0723C11.6758 17.709 11.2168 17.1934 10.8809 16.5254C10.5488 15.8535 10.3828 15.0586 10.3828 14.1406C10.3828 13.2188 10.5488 12.4219 10.8809 11.75C11.2168 11.0781 11.6758 10.5605 12.2578 10.1973C12.8398 9.83398 13.502 9.65234 14.2441 9.65234C14.9902 9.65234 15.6523 9.83398 16.2305 10.1973C16.8086 10.5605 17.2637 11.0781 17.5957 11.75C17.9277 12.4219 18.0938 13.2188 18.0938 14.1406C18.0938 15.0586 17.9277 15.8535 17.5957 16.5254C17.2637 17.1934 16.8086 17.709 16.2305 18.0723C15.6523 18.4355 14.9902 18.6172 14.2441 18.6172ZM14.2441 17.6328C14.7715 17.6328 15.248 17.5 15.6738 17.2344C16.1035 16.9648 16.4434 16.5703 16.6934 16.0508C16.9473 15.5312 17.0742 14.8945 17.0742 14.1406C17.0742 13.3828 16.9473 12.7441 16.6934 12.2246C16.4434 11.7012 16.1035 11.3066 15.6738 11.041C15.248 10.7715 14.7715 10.6367 14.2441 10.6367C13.7168 10.6367 13.2383 10.7715 12.8086 11.041C12.3789 11.3066 12.0371 11.7012 11.7832 12.2246C11.5293 12.7441 11.4023 13.3828 11.4023 14.1406C11.4023 14.8945 11.5293 15.5312 11.7832 16.0508C12.0371 16.5703 12.3789 16.9648 12.8086 17.2344C13.2383 17.5 13.7168 17.6328 14.2441 17.6328ZM22.0781 11.9492V12.8047H18.5508V11.9492H22.0781ZM19.6055 18.5V11.0469C19.6055 10.6719 19.6934 10.3594 19.8691 10.1094C20.0488 9.85938 20.2793 9.67188 20.5605 9.54688C20.8418 9.42188 21.1367 9.35938 21.4453 9.35938C21.6953 9.35938 21.8984 9.38086 22.0547 9.42383C22.2148 9.46289 22.332 9.5 22.4062 9.53516L22.1133 10.4023C22.0625 10.3828 21.9922 10.3613 21.9023 10.3379C21.8164 10.3105 21.6992 10.2969 21.5508 10.2969C21.2188 10.2969 20.9766 10.3828 20.8242 10.5547C20.6758 10.7227 20.6016 10.9688 20.6016 11.293V18.5H19.6055ZM25.8398 11.9492V12.8047H22.3125V11.9492H25.8398ZM23.3672 18.5V11.0469C23.3672 10.6719 23.4551 10.3594 23.6309 10.1094C23.8105 9.85938 24.041 9.67188 24.3223 9.54688C24.6035 9.42188 24.8984 9.35938 25.207 9.35938C25.457 9.35938 25.6602 9.38086 25.8164 9.42383C25.9766 9.46289 26.0938 9.5 26.168 9.53516L25.875 10.4023C25.8242 10.3828 25.7539 10.3613 25.6641 10.3379C25.5781 10.3105 25.4609 10.2969 25.3125 10.2969C24.9805 10.2969 24.7383 10.3828 24.5859 10.5547C24.4375 10.7227 24.3633 10.9688 24.3633 11.293V18.5H23.3672Z" fill="white"/>
<path d="M36 14C36 7.37258 41.3726 2 48 2H56C62.6274 2 68 7.37258 68 14V14C68 20.6274 62.6274 26 56 26H48C41.3726 26 36 20.6274 36 14V14Z" fill="url(#paint1_linear_954_676)"/>
<path d="M48.5605 18.6172C47.7988 18.6172 47.1133 18.4395 46.5039 18.084C45.8984 17.7285 45.4199 17.2168 45.0684 16.5488C44.7207 15.8809 44.5469 15.0781 44.5469 14.1406C44.5469 13.1992 44.7207 12.3945 45.0684 11.7266C45.4199 11.0547 45.8984 10.541 46.5039 10.1855C47.1133 9.83008 47.7988 9.65234 48.5605 9.65234C49.3262 9.65234 50.0098 9.83008 50.6113 10.1855C51.2129 10.541 51.6895 11.0547 52.041 11.7266C52.3926 12.3945 52.5684 13.1992 52.5684 14.1406C52.5684 15.0781 52.3926 15.8809 52.041 16.5488C51.6895 17.2168 51.2129 17.7285 50.6113 18.084C50.0098 18.4395 49.3262 18.6172 48.5605 18.6172ZM48.5605 17.1992C49.0332 17.1992 49.4512 17.082 49.8145 16.8477C50.1777 16.6133 50.4629 16.2695 50.6699 15.8164C50.877 15.3594 50.9805 14.8008 50.9805 14.1406C50.9805 13.4766 50.877 12.916 50.6699 12.459C50.4629 12.002 50.1777 11.6562 49.8145 11.4219C49.4512 11.1875 49.0332 11.0703 48.5605 11.0703C48.0879 11.0703 47.668 11.1875 47.3008 11.4219C46.9375 11.6562 46.6523 12.002 46.4453 12.459C46.2383 12.916 46.1348 13.4766 46.1348 14.1406C46.1348 14.8008 46.2383 15.3594 46.4453 15.8164C46.6523 16.2695 46.9375 16.6133 47.3008 16.8477C47.668 17.082 48.0879 17.1992 48.5605 17.1992ZM55.0879 14.668V18.5H53.5469V11.9492H55.0586V13.0684H55.1348C55.2832 12.7012 55.5156 12.4102 55.832 12.1953C56.1523 11.9766 56.5586 11.8672 57.0508 11.8672C57.5039 11.8672 57.8984 11.9629 58.2344 12.1543C58.5703 12.3457 58.8301 12.627 59.0137 12.998C59.2012 13.3652 59.2949 13.8105 59.2949 14.334V18.5H57.7539V14.5742C57.7539 14.1367 57.6406 13.7949 57.4141 13.5488C57.1875 13.2988 56.875 13.1738 56.4766 13.1738C56.207 13.1738 55.9668 13.2324 55.7559 13.3496C55.5488 13.4668 55.3848 13.6367 55.2637 13.8594C55.1465 14.0781 55.0879 14.3477 55.0879 14.668Z" fill="white"/>
<defs>
<linearGradient id="paint0_linear_954_676" x1="35" y1="0" x2="35" y2="28" gradientUnits="userSpaceOnUse">
<stop stop-color="#3395FF"/>
<stop offset="1" stop-color="#0053AD"/>
</linearGradient>
<linearGradient id="paint1_linear_954_676" x1="52" y1="2" x2="52" y2="26" gradientUnits="userSpaceOnUse">
<stop stop-color="#3395FF"/>
<stop offset="1" stop-color="#0053AD"/>
</linearGradient>
</defs>
</svg>
