<svg width="70" height="28" viewBox="0 0 70 28" fill="none" xmlns="http://www.w3.org/2000/svg">
<rect width="70" height="28" rx="14" fill="url(#paint0_linear_952_676)"/>
<rect width="70" height="28" rx="14" fill="#040720" fill-opacity="0.6"/>
<path d="M2 14C2 7.37258 7.37258 2 14 2H22C28.6274 2 34 7.37258 34 14C34 20.6274 28.6274 26 22 26H14C7.37258 26 2 20.6274 2 14Z" fill="url(#paint1_linear_952_676)"/>
<path d="M11.5254 18.5V9.76953H14.8008C15.4727 9.76953 16.0352 9.88672 16.4883 10.1211C16.9453 10.3555 17.291 10.6836 17.5254 11.1055C17.7598 11.5234 17.877 12.0098 17.877 12.5645C17.877 13.123 17.7578 13.6074 17.5195 14.0176C17.2852 14.4277 16.9375 14.7441 16.4766 14.9668C16.0156 15.1895 15.4492 15.3008 14.7773 15.3008H12.4512V13.9941H14.5605C14.9551 13.9941 15.2773 13.9395 15.5273 13.8301C15.7812 13.7207 15.9668 13.5605 16.084 13.3496C16.2051 13.1348 16.2656 12.873 16.2656 12.5645C16.2656 12.2559 16.2051 11.9922 16.084 11.7734C15.9629 11.5508 15.7773 11.3828 15.5273 11.2695C15.2773 11.1523 14.9531 11.0938 14.5547 11.0938H13.1074V18.5H11.5254ZM16.4297 18.5L14.3145 14.5391H16.0371L18.1992 18.5H16.4297ZM22.9922 15.752V11.9492H24.5332V18.5H23.0391V17.334H22.9688C22.8203 17.7012 22.5781 18.002 22.2422 18.2363C21.9062 18.4707 21.4922 18.5859 21 18.582C20.5703 18.582 20.1914 18.4883 19.8633 18.3008C19.5391 18.1094 19.2832 17.8301 19.0957 17.4629C18.9121 17.0918 18.8203 16.6445 18.8203 16.1211V11.9492H20.3613V15.8867C20.3613 16.2969 20.4746 16.625 20.7012 16.8711C20.9316 17.1172 21.2324 17.2383 21.6035 17.2344C21.8301 17.2344 22.0488 17.1797 22.2598 17.0703C22.4746 16.9609 22.6504 16.7969 22.7871 16.5781C22.9238 16.3594 22.9922 16.084 22.9922 15.752Z" fill="white"/>
<path d="M46.2344 18.5V9.76953H51.5078V10.707H47.2891V13.625H51.2266V14.5625H47.2891V17.5625H51.5664V18.5H46.2344ZM53.7109 14.5625V18.5H52.7148V11.9492H53.6758V12.9805H53.7695C53.9219 12.6445 54.1543 12.375 54.4668 12.1719C54.7793 11.9688 55.1836 11.8672 55.6797 11.8672C56.1211 11.8672 56.5078 11.957 56.8398 12.1367C57.1719 12.3164 57.4297 12.5898 57.6133 12.957C57.8008 13.3203 57.8945 13.7812 57.8945 14.3398V18.5H56.8984V14.4102C56.8984 13.8984 56.7637 13.498 56.4941 13.209C56.2246 12.916 55.8574 12.7695 55.3926 12.7695C55.0723 12.7695 54.7852 12.8398 54.5312 12.9805C54.2773 13.1211 54.0762 13.3242 53.9277 13.5898C53.7832 13.8555 53.7109 14.1797 53.7109 14.5625Z" fill="white"/>
<defs>
<linearGradient id="paint0_linear_952_676" x1="35" y1="0" x2="35" y2="28" gradientUnits="userSpaceOnUse">
<stop stop-color="#3395FF"/>
<stop offset="1" stop-color="#0053AD"/>
</linearGradient>
<linearGradient id="paint1_linear_952_676" x1="18" y1="2" x2="18" y2="26" gradientUnits="userSpaceOnUse">
<stop stop-color="#3395FF"/>
<stop offset="1" stop-color="#0053AD"/>
</linearGradient>
</defs>
</svg>
