<svg width="70" height="28" viewBox="0 0 70 28" fill="none" xmlns="http://www.w3.org/2000/svg">
<rect width="70" height="28" rx="14" fill="url(#paint0_linear_947_1303)"/>
<rect width="70" height="28" rx="14" fill="#040720" fill-opacity="0.6"/>
<path d="M12.0117 18.5V9.76953H14.9648C15.6484 9.76953 16.207 9.88672 16.6406 10.1211C17.0781 10.3516 17.4023 10.6699 17.6133 11.0762C17.8242 11.4785 17.9297 11.9375 17.9297 12.4531C17.9297 12.9648 17.8242 13.4199 17.6133 13.8184C17.4062 14.2168 17.084 14.5293 16.6465 14.7559C16.2129 14.9785 15.6562 15.0898 14.9766 15.0898H12.5977V14.1406H14.9414C15.4102 14.1406 15.7871 14.0723 16.0723 13.9355C16.3574 13.7988 16.5645 13.6055 16.6934 13.3555C16.8223 13.1016 16.8867 12.8008 16.8867 12.4531C16.8867 12.1016 16.8203 11.7949 16.6875 11.5332C16.5586 11.2715 16.3516 11.0684 16.0664 10.9238C15.7812 10.7793 15.4023 10.707 14.9297 10.707H13.0664V18.5H12.0117ZM17.0391 18.5L14.9297 14.5742H16.125L18.2695 18.5H17.0391ZM23.1211 15.8281V11.9492H24.1172V18.5H23.1211V17.3867H23.0508C22.8945 17.7188 22.6543 18.002 22.3301 18.2363C22.0098 18.4707 21.6016 18.5859 21.1055 18.582C20.6953 18.582 20.332 18.4941 20.0156 18.3184C19.6992 18.1387 19.4492 17.8652 19.2656 17.498C19.0859 17.1309 18.9961 16.668 18.9961 16.1094V11.9492H19.9922V16.0508C19.9922 16.5234 20.127 16.9023 20.3965 17.1875C20.6699 17.4727 21.0156 17.6133 21.4336 17.6094C21.6836 17.6094 21.9375 17.5469 22.1953 17.4219C22.457 17.293 22.6758 17.0977 22.8516 16.8359C23.0312 16.5703 23.1211 16.2344 23.1211 15.8281Z" fill="white"/>
<path d="M36 14C36 7.37258 41.3726 2 48 2H56C62.6274 2 68 7.37258 68 14C68 20.6274 62.6274 26 56 26H48C41.3726 26 36 20.6274 36 14Z" fill="url(#paint1_linear_947_1303)"/>
<path d="M45.7656 18.5V9.76953H51.4492V11.0938H47.3477V13.4375H51.1445V14.7441H47.3477V17.1758H51.4727V18.5H45.7656ZM54.0859 14.668V18.5H52.5449V11.9492H54.0566V13.0684H54.1328C54.2812 12.7012 54.5137 12.4102 54.8301 12.1953C55.1504 11.9766 55.5566 11.8672 56.0488 11.8672C56.502 11.8672 56.8965 11.9629 57.2324 12.1543C57.5684 12.3457 57.8281 12.627 58.0117 12.998C58.1992 13.3652 58.293 13.8105 58.293 14.334V18.5H56.752V14.5742C56.752 14.1367 56.6387 13.7949 56.4121 13.5488C56.1855 13.2988 55.873 13.1738 55.4746 13.1738C55.2051 13.1738 54.9648 13.2324 54.7539 13.3496C54.5469 13.4668 54.3828 13.6367 54.2617 13.8594C54.1445 14.0781 54.0859 14.3477 54.0859 14.668Z" fill="white"/>
<defs>
<linearGradient id="paint0_linear_947_1303" x1="35" y1="0" x2="35" y2="28" gradientUnits="userSpaceOnUse">
<stop stop-color="#3395FF"/>
<stop offset="1" stop-color="#0053AD"/>
</linearGradient>
<linearGradient id="paint1_linear_947_1303" x1="52" y1="2" x2="52" y2="26" gradientUnits="userSpaceOnUse">
<stop stop-color="#3395FF"/>
<stop offset="1" stop-color="#0053AD"/>
</linearGradient>
</defs>
</svg>
