<svg width="70" height="28" viewBox="0 0 70 28" fill="none" xmlns="http://www.w3.org/2000/svg">
<rect width="70" height="28" rx="14" fill="url(#paint0_linear_954_681)"/>
<rect width="70" height="28" rx="14" fill="#040720" fill-opacity="0.6"/>
<path d="M2 14C2 7.37258 7.37258 2 14 2H22C28.6274 2 34 7.37258 34 14V14C34 20.6274 28.6274 26 22 26H14C7.37258 26 2 20.6274 2 14V14Z" fill="url(#paint1_linear_954_681)"/>
<path d="M13.9043 18.6172C13.1426 18.6172 12.457 18.4395 11.8477 18.084C11.2422 17.7285 10.7637 17.2168 10.4121 16.5488C10.0645 15.8809 9.89062 15.0781 9.89062 14.1406C9.89062 13.1992 10.0645 12.3945 10.4121 11.7266C10.7637 11.0547 11.2422 10.541 11.8477 10.1855C12.457 9.83008 13.1426 9.65234 13.9043 9.65234C14.6699 9.65234 15.3535 9.83008 15.9551 10.1855C16.5566 10.541 17.0332 11.0547 17.3848 11.7266C17.7363 12.3945 17.9121 13.1992 17.9121 14.1406C17.9121 15.0781 17.7363 15.8809 17.3848 16.5488C17.0332 17.2168 16.5566 17.7285 15.9551 18.084C15.3535 18.4395 14.6699 18.6172 13.9043 18.6172ZM13.9043 17.1992C14.377 17.1992 14.7949 17.082 15.1582 16.8477C15.5215 16.6133 15.8066 16.2695 16.0137 15.8164C16.2207 15.3594 16.3242 14.8008 16.3242 14.1406C16.3242 13.4766 16.2207 12.916 16.0137 12.459C15.8066 12.002 15.5215 11.6562 15.1582 11.4219C14.7949 11.1875 14.377 11.0703 13.9043 11.0703C13.4316 11.0703 13.0117 11.1875 12.6445 11.4219C12.2812 11.6562 11.9961 12.002 11.7891 12.459C11.582 12.916 11.4785 13.4766 11.4785 14.1406C11.4785 14.8008 11.582 15.3594 11.7891 15.8164C11.9961 16.2695 12.2812 16.6133 12.6445 16.8477C13.0117 17.082 13.4316 17.1992 13.9043 17.1992ZM22.2188 11.9492V13.1445H18.3574V11.9492H22.2188ZM19.3184 18.5V11.334C19.3184 10.8926 19.4102 10.5254 19.5938 10.2324C19.7773 9.93945 20.0234 9.7207 20.332 9.57617C20.6445 9.43164 20.9883 9.35938 21.3633 9.35938C21.6328 9.35938 21.8711 9.38086 22.0781 9.42383C22.2891 9.4668 22.4434 9.50586 22.541 9.54102L22.2246 10.7363C22.1621 10.7129 22.082 10.6914 21.9844 10.6719C21.8867 10.6484 21.7754 10.6367 21.6504 10.6367C21.3652 10.6367 21.1602 10.707 21.0352 10.8477C20.9141 10.9883 20.8535 11.1875 20.8535 11.4453V18.5H19.3184ZM26.3203 11.9492V13.1445H22.459V11.9492H26.3203ZM23.4199 18.5V11.334C23.4199 10.8926 23.5117 10.5254 23.6953 10.2324C23.8789 9.93945 24.125 9.7207 24.4336 9.57617C24.7461 9.43164 25.0898 9.35938 25.4648 9.35938C25.7344 9.35938 25.9727 9.38086 26.1797 9.42383C26.3906 9.4668 26.5449 9.50586 26.6426 9.54102L26.3262 10.7363C26.2637 10.7129 26.1836 10.6914 26.0859 10.6719C25.9883 10.6484 25.877 10.6367 25.752 10.6367C25.4668 10.6367 25.2617 10.707 25.1367 10.8477C25.0156 10.9883 24.9551 11.1875 24.9551 11.4453V18.5H23.4199Z" fill="white"/>
<path d="M48.7598 18.6406C48.1699 18.6406 47.6523 18.5 47.207 18.2188C46.7617 17.9375 46.4141 17.543 46.1641 17.0352C45.918 16.5273 45.7949 15.9375 45.7949 15.2656C45.7949 14.582 45.918 13.9863 46.1641 13.4785C46.4141 12.9668 46.7617 12.5703 47.207 12.2891C47.6523 12.0078 48.1699 11.8672 48.7598 11.8672C49.3535 11.8672 49.873 12.0078 50.3184 12.2891C50.7637 12.5703 51.1113 12.9668 51.3613 13.4785C51.6113 13.9863 51.7363 14.582 51.7363 15.2656C51.7363 15.9375 51.6113 16.5273 51.3613 17.0352C51.1113 17.543 50.7637 17.9375 50.3184 18.2188C49.873 18.5 49.3535 18.6406 48.7598 18.6406ZM48.7598 17.7383C49.2129 17.7383 49.584 17.623 49.873 17.3926C50.1621 17.1621 50.377 16.8594 50.5176 16.4844C50.6582 16.1055 50.7285 15.6992 50.7285 15.2656C50.7285 14.8242 50.6582 14.4141 50.5176 14.0352C50.377 13.6562 50.1621 13.3516 49.873 13.1211C49.584 12.8867 49.2129 12.7695 48.7598 12.7695C48.3145 12.7695 47.9473 12.8867 47.6582 13.1211C47.3691 13.3516 47.1543 13.6562 47.0137 14.0352C46.873 14.4141 46.8027 14.8242 46.8027 15.2656C46.8027 15.6992 46.873 16.1055 47.0137 16.4844C47.1543 16.8594 47.3691 17.1621 47.6582 17.3926C47.9473 17.623 48.3145 17.7383 48.7598 17.7383ZM53.7051 14.5625V18.5H52.709V11.9492H53.6699V12.9805H53.7637C53.916 12.6445 54.1484 12.375 54.4609 12.1719C54.7734 11.9688 55.1777 11.8672 55.6738 11.8672C56.1152 11.8672 56.502 11.957 56.834 12.1367C57.166 12.3164 57.4238 12.5898 57.6074 12.957C57.7949 13.3203 57.8887 13.7812 57.8887 14.3398V18.5H56.8926V14.4102C56.8926 13.8984 56.7578 13.498 56.4883 13.209C56.2188 12.916 55.8516 12.7695 55.3867 12.7695C55.0664 12.7695 54.7793 12.8398 54.5254 12.9805C54.2715 13.1211 54.0703 13.3242 53.9219 13.5898C53.7773 13.8555 53.7051 14.1797 53.7051 14.5625Z" fill="white"/>
<defs>
<linearGradient id="paint0_linear_954_681" x1="35" y1="0" x2="35" y2="28" gradientUnits="userSpaceOnUse">
<stop stop-color="#3395FF"/>
<stop offset="1" stop-color="#0053AD"/>
</linearGradient>
<linearGradient id="paint1_linear_954_681" x1="18" y1="2" x2="18" y2="26" gradientUnits="userSpaceOnUse">
<stop stop-color="#3395FF"/>
<stop offset="1" stop-color="#0053AD"/>
</linearGradient>
</defs>
</svg>
